<svg width="141" height="48" viewBox="0 0 141 48" fill="none" xmlns="http://www.w3.org/2000/svg">
<g filter="url(#filter0_ddd_234_1256)">
<g clip-path="url(#clip0_234_1256)">
<rect x="4.22949" y="3" width="132" height="40" rx="12" fill="#272727"/>
<rect width="132" height="40" transform="translate(4.22949 3)" fill="white" fill-opacity="0.08"/>
<path d="M26.3913 29V17.8H33.2373V19.466H28.2253V22.588H32.5373V24.17H28.2253V27.334H33.0973V29H26.3913ZM35.538 29L37.918 24.968L35.37 20.53H37.372L39.164 23.666L39.304 24.128H39.472L39.612 23.666L41.502 20.53H43.378L40.774 24.842L43.21 29H41.18L39.542 26.186L39.402 25.738H39.234L39.094 26.186L37.442 29H35.538ZM45.7348 31.8V20.53H47.4988V21.328H47.9468C48.1241 21.0107 48.3948 20.7633 48.7588 20.586C49.1228 20.3993 49.5288 20.306 49.9768 20.306C50.6674 20.306 51.2694 20.488 51.7828 20.852C52.2961 21.216 52.6928 21.734 52.9728 22.406C53.2528 23.0687 53.3928 23.8573 53.3928 24.772C53.3928 25.6773 53.2528 26.466 52.9728 27.138C52.6928 27.8007 52.2961 28.314 51.7828 28.678C51.2694 29.042 50.6674 29.224 49.9768 29.224C49.5288 29.224 49.1228 29.1353 48.7588 28.958C48.3948 28.7713 48.1241 28.524 47.9468 28.216H47.4988V31.8H45.7348ZM49.5428 27.6C50.2148 27.6 50.7328 27.3527 51.0968 26.858C51.4701 26.354 51.6568 25.6587 51.6568 24.772C51.6568 23.876 51.4701 23.1807 51.0968 22.686C50.7328 22.182 50.2148 21.93 49.5428 21.93C48.8708 21.93 48.3481 22.182 47.9748 22.686C47.6014 23.1807 47.4148 23.876 47.4148 24.772C47.4148 25.668 47.6014 26.3633 47.9748 26.858C48.3481 27.3527 48.8708 27.6 49.5428 27.6ZM59.1795 29.238C58.3862 29.238 57.6955 29.056 57.1075 28.692C56.5288 28.328 56.0762 27.8147 55.7495 27.152C55.4322 26.48 55.2735 25.6867 55.2735 24.772C55.2735 23.8573 55.4322 23.0687 55.7495 22.406C56.0762 21.734 56.5288 21.216 57.1075 20.852C57.6955 20.488 58.3862 20.306 59.1795 20.306C59.9822 20.306 60.6728 20.488 61.2515 20.852C61.8302 21.216 62.2782 21.734 62.5955 22.406C62.9222 23.0687 63.0855 23.8573 63.0855 24.772C63.0855 25.6867 62.9222 26.48 62.5955 27.152C62.2782 27.8147 61.8302 28.328 61.2515 28.692C60.6728 29.056 59.9822 29.238 59.1795 29.238ZM59.1795 27.614C59.8608 27.614 60.3928 27.3667 60.7755 26.872C61.1582 26.368 61.3495 25.668 61.3495 24.772C61.3495 23.8667 61.1582 23.1667 60.7755 22.672C60.3928 22.168 59.8608 21.916 59.1795 21.916C58.4982 21.916 57.9662 22.168 57.5835 22.672C57.2008 23.1667 57.0095 23.8667 57.0095 24.772C57.0095 25.668 57.2008 26.368 57.5835 26.872C57.9662 27.3667 58.4982 27.614 59.1795 27.614ZM65.4422 20.53H68.8442V21.202H69.3062C69.4649 20.9127 69.6936 20.6933 69.9922 20.544C70.2909 20.3853 70.6269 20.306 71.0002 20.306C71.6816 20.306 72.2089 20.5487 72.5822 21.034C72.9649 21.5193 73.1562 22.2007 73.1562 23.078V24.352H71.3362V23.33C71.3362 22.434 70.9816 21.986 70.2722 21.986C69.8242 21.986 69.4882 22.1867 69.2642 22.588C69.0496 22.9893 68.9422 23.596 68.9422 24.408V27.376H71.4902V29H65.6662V27.376H67.2062V22.154H65.4422V20.53ZM78.705 18.346V20.53H82.485V22.154H78.705V26.172C78.705 26.6387 78.7983 26.998 78.985 27.25C79.1716 27.4927 79.447 27.614 79.811 27.614C80.1843 27.614 80.4783 27.4787 80.693 27.208C80.917 26.9373 81.0803 26.5127 81.183 25.934H82.751C82.7043 27.0073 82.4196 27.8287 81.897 28.398C81.3836 28.958 80.6696 29.238 79.755 29.238C78.8496 29.238 78.1543 28.9767 77.669 28.454C77.1836 27.922 76.941 27.1753 76.941 26.214V22.154H75.177V20.53H76.941V18.346H78.705Z" fill="white"/>
<path d="M103.488 19.505L105.396 17.6309V25.445C105.396 25.6611 105.484 25.8683 105.64 26.0211C105.796 26.1739 106.008 26.2598 106.229 26.2598C106.45 26.2598 106.662 26.1739 106.819 26.0211C106.975 25.8683 107.063 25.6611 107.063 25.445V17.6309L108.971 19.505C109.048 19.5813 109.141 19.642 109.242 19.6833C109.344 19.7247 109.453 19.746 109.563 19.746C109.673 19.746 109.782 19.7247 109.883 19.6833C109.985 19.642 110.077 19.5813 110.154 19.505C110.232 19.4292 110.294 19.3391 110.337 19.2398C110.379 19.1405 110.401 19.034 110.401 18.9265C110.401 18.8189 110.379 18.7124 110.337 18.6131C110.294 18.5138 110.232 18.4237 110.154 18.3479L106.821 15.0887C106.742 15.0145 106.648 14.9563 106.546 14.9176C106.343 14.8361 106.116 14.8361 105.913 14.9176C105.81 14.9563 105.717 15.0145 105.638 15.0887L102.304 18.3479C102.227 18.4239 102.165 18.5141 102.123 18.6134C102.081 18.7126 102.059 18.819 102.059 18.9265C102.059 19.0339 102.081 19.1403 102.123 19.2395C102.165 19.3388 102.227 19.429 102.304 19.505C102.382 19.5809 102.474 19.6412 102.576 19.6823C102.677 19.7234 102.786 19.7446 102.896 19.7446C103.006 19.7446 103.115 19.7234 103.216 19.6823C103.318 19.6412 103.41 19.5809 103.488 19.505ZM113.729 24.6302C113.508 24.6302 113.296 24.716 113.14 24.8688C112.984 25.0216 112.896 25.2289 112.896 25.445V28.7042C112.896 28.9203 112.808 29.1276 112.652 29.2804C112.496 29.4332 112.284 29.519 112.063 29.519H100.396C100.175 29.519 99.963 29.4332 99.8067 29.2804C99.6505 29.1276 99.5627 28.9203 99.5627 28.7042V25.445C99.5627 25.2289 99.4749 25.0216 99.3186 24.8688C99.1623 24.716 98.9503 24.6302 98.7293 24.6302C98.5083 24.6302 98.2964 24.716 98.1401 24.8688C97.9838 25.0216 97.896 25.2289 97.896 25.445V28.7042C97.896 29.3525 98.1594 29.9743 98.6282 30.4327C99.0971 30.8911 99.733 31.1487 100.396 31.1487H112.063C112.726 31.1487 113.362 30.8911 113.83 30.4327C114.299 29.9743 114.563 29.3525 114.563 28.7042V25.445C114.563 25.2289 114.475 25.0216 114.319 24.8688C114.162 24.716 113.95 24.6302 113.729 24.6302Z" fill="white"/>
</g>
</g>
<defs>
<filter id="filter0_ddd_234_1256" x="0.229492" y="0" width="140" height="48" filterUnits="userSpaceOnUse" color-interpolation-filters="sRGB">
<feFlood flood-opacity="0" result="BackgroundImageFix"/>
<feColorMatrix in="SourceAlpha" type="matrix" values="0 0 0 0 0 0 0 0 0 0 0 0 0 0 0 0 0 0 127 0" result="hardAlpha"/>
<feMorphology radius="1" operator="dilate" in="SourceAlpha" result="effect1_dropShadow_234_1256"/>
<feOffset dy="1"/>
<feGaussianBlur stdDeviation="1.5"/>
<feColorMatrix type="matrix" values="0 0 0 0 0 0 0 0 0 0 0 0 0 0 0 0 0 0 0.15 0"/>
<feBlend mode="normal" in2="BackgroundImageFix" result="effect1_dropShadow_234_1256"/>
<feColorMatrix in="SourceAlpha" type="matrix" values="0 0 0 0 0 0 0 0 0 0 0 0 0 0 0 0 0 0 127 0" result="hardAlpha"/>
<feOffset dy="1"/>
<feGaussianBlur stdDeviation="1"/>
<feColorMatrix type="matrix" values="0 0 0 0 0 0 0 0 0 0 0 0 0 0 0 0 0 0 0.3 0"/>
<feBlend mode="normal" in2="effect1_dropShadow_234_1256" result="effect2_dropShadow_234_1256"/>
<feColorMatrix in="SourceAlpha" type="matrix" values="0 0 0 0 0 0 0 0 0 0 0 0 0 0 0 0 0 0 127 0" result="hardAlpha"/>
<feOffset dy="1"/>
<feGaussianBlur stdDeviation="1"/>
<feColorMatrix type="matrix" values="0 0 0 0 0 0 0 0 0 0 0 0 0 0 0 0 0 0 0.3 0"/>
<feBlend mode="normal" in2="effect2_dropShadow_234_1256" result="effect3_dropShadow_234_1256"/>
<feBlend mode="normal" in="SourceGraphic" in2="effect3_dropShadow_234_1256" result="shape"/>
</filter>
<clipPath id="clip0_234_1256">
<rect x="4.22949" y="3" width="132" height="40" rx="12" fill="white"/>
</clipPath>
</defs>
</svg>
