<svg width="244" height="48" viewBox="0 0 244 48" fill="none" xmlns="http://www.w3.org/2000/svg">
<g filter="url(#filter0_ddd_234_1261)">
<g clip-path="url(#clip0_234_1261)">
<rect x="4.13672" y="3" width="235" height="40" rx="12" fill="#272727"/>
<rect x="4.13672" y="3" width="235" height="40" rx="4" fill="white" fill-opacity="0.08"/>
<path d="M35.1367 23.75H29.8867V29H28.3867V23.75H23.1367V22.25H28.3867V17H29.8867V22.25H35.1367V23.75Z" fill="white"/>
<path d="M51.6375 29.238C50.2841 29.238 49.2621 28.7527 48.5715 27.782C47.8901 26.802 47.5495 25.3413 47.5495 23.4C47.5495 21.4587 47.8995 20.0027 48.5995 19.032C49.3088 18.052 50.3635 17.562 51.7635 17.562C52.5288 17.562 53.1915 17.7253 53.7515 18.052C54.3115 18.3693 54.7501 18.8407 55.0675 19.466C55.3848 20.082 55.5715 20.8333 55.6275 21.72H53.9475C53.8075 20.9173 53.5555 20.3107 53.1915 19.9C52.8368 19.48 52.3608 19.27 51.7635 19.27C50.9515 19.27 50.3495 19.606 49.9575 20.278C49.5748 20.95 49.3835 21.9907 49.3835 23.4C49.3835 24.8093 49.5655 25.85 49.9295 26.522C50.2935 27.194 50.8628 27.53 51.6375 27.53C52.1975 27.53 52.6501 27.3387 52.9955 26.956C53.3408 26.564 53.5788 25.9993 53.7095 25.262H55.3895C55.3335 26.102 55.1468 26.8207 54.8295 27.418C54.5215 28.006 54.0968 28.4587 53.5555 28.776C53.0141 29.084 52.3748 29.238 51.6375 29.238ZM57.6762 20.53H61.0782V21.202H61.5402C61.6989 20.9127 61.9275 20.6933 62.2262 20.544C62.5249 20.3853 62.8609 20.306 63.2342 20.306C63.9155 20.306 64.4429 20.5487 64.8162 21.034C65.1989 21.5193 65.3902 22.2007 65.3902 23.078V24.352H63.5702V23.33C63.5702 22.434 63.2155 21.986 62.5062 21.986C62.0582 21.986 61.7222 22.1867 61.4982 22.588C61.2835 22.9893 61.1762 23.596 61.1762 24.408V27.376H63.7242V29H57.9002V27.376H59.4402V22.154H57.6762V20.53ZM68.9089 23.89H73.8789L73.2909 24.66C73.2909 23.736 73.1276 23.036 72.8009 22.56C72.4836 22.084 72.0076 21.846 71.3729 21.846C70.7009 21.846 70.1829 22.098 69.8189 22.602C69.4549 23.0967 69.2729 23.7967 69.2729 24.702C69.2729 25.682 69.4549 26.424 69.8189 26.928C70.1829 27.432 70.7196 27.684 71.4289 27.684C71.8676 27.684 72.2549 27.5767 72.5909 27.362C72.9269 27.138 73.2116 26.816 73.4449 26.396H75.1109C74.9616 26.984 74.7096 27.4927 74.3549 27.922C74.0096 28.342 73.5849 28.6687 73.0809 28.902C72.5863 29.126 72.0309 29.238 71.4149 29.238C70.6029 29.238 69.9076 29.0607 69.3289 28.706C68.7596 28.342 68.3209 27.824 68.0129 27.152C67.7143 26.4707 67.5649 25.654 67.5649 24.702C67.5649 23.7967 67.7189 23.0173 68.0269 22.364C68.3443 21.7107 68.7876 21.2067 69.3569 20.852C69.9263 20.488 70.5983 20.306 71.3729 20.306C72.1103 20.306 72.7403 20.474 73.2629 20.81C73.7949 21.146 74.1963 21.6407 74.4669 22.294C74.7469 22.938 74.8869 23.722 74.8869 24.646C74.8869 24.7673 74.8823 24.8887 74.8729 25.01C74.8729 25.122 74.8683 25.234 74.8589 25.346H68.9089V23.89ZM82.9137 23.694V25.15L80.5337 25.514C80.1697 25.5793 79.899 25.71 79.7217 25.906C79.5443 26.0927 79.4557 26.34 79.4557 26.648C79.4557 26.9467 79.563 27.1893 79.7777 27.376C79.9923 27.5533 80.2817 27.642 80.6457 27.642C81.0283 27.642 81.3783 27.5533 81.6957 27.376C82.0223 27.1893 82.279 26.9467 82.4657 26.648C82.6617 26.34 82.7597 25.9993 82.7597 25.626V23.54C82.7597 23.0173 82.6057 22.6113 82.2977 22.322C81.999 22.0327 81.579 21.888 81.0377 21.888C80.655 21.888 80.3143 21.9533 80.0157 22.084C79.717 22.2053 79.4743 22.3873 79.2877 22.63C79.101 22.8633 78.9703 23.1527 78.8957 23.498H77.2017C77.2577 22.8353 77.449 22.266 77.7757 21.79C78.1117 21.314 78.5597 20.95 79.1197 20.698C79.6797 20.4367 80.3283 20.306 81.0657 20.306C82.1577 20.306 82.9977 20.5767 83.5857 21.118C84.183 21.65 84.4817 22.4153 84.4817 23.414V29H82.7597V28.202H82.3117C82.1063 28.5287 81.8263 28.7807 81.4717 28.958C81.1263 29.126 80.697 29.21 80.1837 29.21C79.6703 29.21 79.2177 29.1073 78.8257 28.902C78.443 28.6967 78.1443 28.412 77.9297 28.048C77.7243 27.6747 77.6217 27.2453 77.6217 26.76C77.6217 26.0413 77.8457 25.4533 78.2937 24.996C78.751 24.5387 79.4043 24.2447 80.2537 24.114L82.9137 23.694ZM90.7444 18.346V20.53H94.5244V22.154H90.7444V26.172C90.7444 26.6387 90.8377 26.998 91.0244 27.25C91.2111 27.4927 91.4864 27.614 91.8504 27.614C92.2237 27.614 92.5177 27.4787 92.7324 27.208C92.9564 26.9373 93.1197 26.5127 93.2224 25.934H94.7904C94.7437 27.0073 94.4591 27.8287 93.9364 28.398C93.4231 28.958 92.7091 29.238 91.7944 29.238C90.8891 29.238 90.1937 28.9767 89.7084 28.454C89.2231 27.922 88.9804 27.1753 88.9804 26.214V22.154H87.2164V20.53H88.9804V18.346H90.7444ZM98.6171 23.89H103.587L102.999 24.66C102.999 23.736 102.836 23.036 102.509 22.56C102.192 22.084 101.716 21.846 101.081 21.846C100.409 21.846 99.8911 22.098 99.5271 22.602C99.1631 23.0967 98.9811 23.7967 98.9811 24.702C98.9811 25.682 99.1631 26.424 99.5271 26.928C99.8911 27.432 100.428 27.684 101.137 27.684C101.576 27.684 101.963 27.5767 102.299 27.362C102.635 27.138 102.92 26.816 103.153 26.396H104.819C104.67 26.984 104.418 27.4927 104.063 27.922C103.718 28.342 103.293 28.6687 102.789 28.902C102.294 29.126 101.739 29.238 101.123 29.238C100.311 29.238 99.6158 29.0607 99.0371 28.706C98.4678 28.342 98.0291 27.824 97.7211 27.152C97.4225 26.4707 97.2731 25.654 97.2731 24.702C97.2731 23.7967 97.4271 23.0173 97.7351 22.364C98.0525 21.7107 98.4958 21.2067 99.0651 20.852C99.6345 20.488 100.306 20.306 101.081 20.306C101.818 20.306 102.448 20.474 102.971 20.81C103.503 21.146 103.904 21.6407 104.175 22.294C104.455 22.938 104.595 23.722 104.595 24.646C104.595 24.7673 104.59 24.8887 104.581 25.01C104.581 25.122 104.576 25.234 104.567 25.346H98.6171V23.89ZM132.427 23.694V25.15L130.047 25.514C129.683 25.5793 129.413 25.71 129.235 25.906C129.058 26.0927 128.969 26.34 128.969 26.648C128.969 26.9467 129.077 27.1893 129.291 27.376C129.506 27.5533 129.795 27.642 130.159 27.642C130.542 27.642 130.892 27.5533 131.209 27.376C131.536 27.1893 131.793 26.9467 131.979 26.648C132.175 26.34 132.273 25.9993 132.273 25.626V23.54C132.273 23.0173 132.119 22.6113 131.811 22.322C131.513 22.0327 131.093 21.888 130.551 21.888C130.169 21.888 129.828 21.9533 129.529 22.084C129.231 22.2053 128.988 22.3873 128.801 22.63C128.615 22.8633 128.484 23.1527 128.409 23.498H126.715C126.771 22.8353 126.963 22.266 127.289 21.79C127.625 21.314 128.073 20.95 128.633 20.698C129.193 20.4367 129.842 20.306 130.579 20.306C131.671 20.306 132.511 20.5767 133.099 21.118C133.697 21.65 133.995 22.4153 133.995 23.414V29H132.273V28.202H131.825C131.62 28.5287 131.34 28.7807 130.985 28.958C130.64 29.126 130.211 29.21 129.697 29.21C129.184 29.21 128.731 29.1073 128.339 28.902C127.957 28.6967 127.658 28.412 127.443 28.048C127.238 27.6747 127.135 27.2453 127.135 26.76C127.135 26.0413 127.359 25.4533 127.807 24.996C128.265 24.5387 128.918 24.2447 129.767 24.114L132.427 23.694ZM147.193 29V17.8H151.155C151.883 17.8 152.517 17.94 153.059 18.22C153.6 18.4907 154.015 18.878 154.305 19.382C154.603 19.886 154.753 20.4787 154.753 21.16C154.753 21.832 154.603 22.42 154.305 22.924C154.015 23.4187 153.6 23.8013 153.059 24.072C152.517 24.3427 151.883 24.478 151.155 24.478H149.027V29H147.193ZM149.027 22.826H151.197C151.738 22.826 152.158 22.6813 152.457 22.392C152.765 22.0933 152.919 21.6873 152.919 21.174C152.919 20.6607 152.765 20.2593 152.457 19.97C152.158 19.6713 151.738 19.522 151.197 19.522H149.027V22.826ZM162.136 23.694V25.15L159.756 25.514C159.392 25.5793 159.121 25.71 158.944 25.906C158.766 26.0927 158.678 26.34 158.678 26.648C158.678 26.9467 158.785 27.1893 159 27.376C159.214 27.5533 159.504 27.642 159.868 27.642C160.25 27.642 160.6 27.5533 160.918 27.376C161.244 27.1893 161.501 26.9467 161.688 26.648C161.884 26.34 161.982 25.9993 161.982 25.626V23.54C161.982 23.0173 161.828 22.6113 161.52 22.322C161.221 22.0327 160.801 21.888 160.26 21.888C159.877 21.888 159.536 21.9533 159.238 22.084C158.939 22.2053 158.696 22.3873 158.51 22.63C158.323 22.8633 158.192 23.1527 158.118 23.498H156.424C156.48 22.8353 156.671 22.266 156.998 21.79C157.334 21.314 157.782 20.95 158.342 20.698C158.902 20.4367 159.55 20.306 160.288 20.306C161.38 20.306 162.22 20.5767 162.808 21.118C163.405 21.65 163.704 22.4153 163.704 23.414V29H161.982V28.202H161.534C161.328 28.5287 161.048 28.7807 160.694 28.958C160.348 29.126 159.919 29.21 159.406 29.21C158.892 29.21 158.44 29.1073 158.048 28.902C157.665 28.6967 157.366 28.412 157.152 28.048C156.946 27.6747 156.844 27.2453 156.844 26.76C156.844 26.0413 157.068 25.4533 157.516 24.996C157.973 24.5387 158.626 24.2447 159.476 24.114L162.136 23.694ZM167.068 17.128H171.366V27.376H173.9V29H167.068V27.376H169.602V18.752H167.068V17.128ZM177.839 23.89H182.809L182.221 24.66C182.221 23.736 182.058 23.036 181.731 22.56C181.414 22.084 180.938 21.846 180.303 21.846C179.631 21.846 179.113 22.098 178.749 22.602C178.385 23.0967 178.203 23.7967 178.203 24.702C178.203 25.682 178.385 26.424 178.749 26.928C179.113 27.432 179.65 27.684 180.359 27.684C180.798 27.684 181.185 27.5767 181.521 27.362C181.857 27.138 182.142 26.816 182.375 26.396H184.041C183.892 26.984 183.64 27.4927 183.285 27.922C182.94 28.342 182.515 28.6687 182.011 28.902C181.516 29.126 180.961 29.238 180.345 29.238C179.533 29.238 178.838 29.0607 178.259 28.706C177.69 28.342 177.251 27.824 176.943 27.152C176.644 26.4707 176.495 25.654 176.495 24.702C176.495 23.7967 176.649 23.0173 176.957 22.364C177.274 21.7107 177.718 21.2067 178.287 20.852C178.856 20.488 179.528 20.306 180.303 20.306C181.04 20.306 181.67 20.474 182.193 20.81C182.725 21.146 183.126 21.6407 183.397 22.294C183.677 22.938 183.817 23.722 183.817 24.646C183.817 24.7673 183.812 24.8887 183.803 25.01C183.803 25.122 183.798 25.234 183.789 25.346H177.839V23.89ZM189.772 18.346V20.53H193.552V22.154H189.772V26.172C189.772 26.6387 189.865 26.998 190.052 27.25C190.238 27.4927 190.514 27.614 190.878 27.614C191.251 27.614 191.545 27.4787 191.76 27.208C191.984 26.9373 192.147 26.5127 192.25 25.934H193.818C193.771 27.0073 193.486 27.8287 192.964 28.398C192.45 28.958 191.736 29.238 190.822 29.238C189.916 29.238 189.221 28.9767 188.736 28.454C188.25 27.922 188.008 27.1753 188.008 26.214V22.154H186.244V20.53H188.008V18.346H189.772ZM199.674 18.346V20.53H203.454V22.154H199.674V26.172C199.674 26.6387 199.768 26.998 199.954 27.25C200.141 27.4927 200.416 27.614 200.78 27.614C201.154 27.614 201.448 27.4787 201.662 27.208C201.886 26.9373 202.05 26.5127 202.152 25.934H203.72C203.674 27.0073 203.389 27.8287 202.866 28.398C202.353 28.958 201.639 29.238 200.724 29.238C199.819 29.238 199.124 28.9767 198.638 28.454C198.153 27.922 197.91 27.1753 197.91 26.214V22.154H196.146V20.53H197.91V18.346H199.674ZM207.547 23.89H212.517L211.929 24.66C211.929 23.736 211.766 23.036 211.439 22.56C211.122 22.084 210.646 21.846 210.011 21.846C209.339 21.846 208.821 22.098 208.457 22.602C208.093 23.0967 207.911 23.7967 207.911 24.702C207.911 25.682 208.093 26.424 208.457 26.928C208.821 27.432 209.358 27.684 210.067 27.684C210.506 27.684 210.893 27.5767 211.229 27.362C211.565 27.138 211.85 26.816 212.083 26.396H213.749C213.6 26.984 213.348 27.4927 212.993 27.922C212.648 28.342 212.223 28.6687 211.719 28.902C211.225 29.126 210.669 29.238 210.053 29.238C209.241 29.238 208.546 29.0607 207.967 28.706C207.398 28.342 206.959 27.824 206.651 27.152C206.353 26.4707 206.203 25.654 206.203 24.702C206.203 23.7967 206.357 23.0173 206.665 22.364C206.983 21.7107 207.426 21.2067 207.995 20.852C208.565 20.488 209.237 20.306 210.011 20.306C210.749 20.306 211.379 20.474 211.901 20.81C212.433 21.146 212.835 21.6407 213.105 22.294C213.385 22.938 213.525 23.722 213.525 24.646C213.525 24.7673 213.521 24.8887 213.511 25.01C213.511 25.122 213.507 25.234 213.497 25.346H207.547V23.89Z" fill="white"/>
</g>
</g>
<defs>
<filter id="filter0_ddd_234_1261" x="0.136719" y="0" width="243" height="48" filterUnits="userSpaceOnUse" color-interpolation-filters="sRGB">
<feFlood flood-opacity="0" result="BackgroundImageFix"/>
<feColorMatrix in="SourceAlpha" type="matrix" values="0 0 0 0 0 0 0 0 0 0 0 0 0 0 0 0 0 0 127 0" result="hardAlpha"/>
<feMorphology radius="1" operator="dilate" in="SourceAlpha" result="effect1_dropShadow_234_1261"/>
<feOffset dy="1"/>
<feGaussianBlur stdDeviation="1.5"/>
<feColorMatrix type="matrix" values="0 0 0 0 0 0 0 0 0 0 0 0 0 0 0 0 0 0 0.15 0"/>
<feBlend mode="normal" in2="BackgroundImageFix" result="effect1_dropShadow_234_1261"/>
<feColorMatrix in="SourceAlpha" type="matrix" values="0 0 0 0 0 0 0 0 0 0 0 0 0 0 0 0 0 0 127 0" result="hardAlpha"/>
<feOffset dy="1"/>
<feGaussianBlur stdDeviation="1"/>
<feColorMatrix type="matrix" values="0 0 0 0 0 0 0 0 0 0 0 0 0 0 0 0 0 0 0.3 0"/>
<feBlend mode="normal" in2="effect1_dropShadow_234_1261" result="effect2_dropShadow_234_1261"/>
<feColorMatrix in="SourceAlpha" type="matrix" values="0 0 0 0 0 0 0 0 0 0 0 0 0 0 0 0 0 0 127 0" result="hardAlpha"/>
<feOffset dy="1"/>
<feGaussianBlur stdDeviation="1"/>
<feColorMatrix type="matrix" values="0 0 0 0 0 0 0 0 0 0 0 0 0 0 0 0 0 0 0.3 0"/>
<feBlend mode="normal" in2="effect2_dropShadow_234_1261" result="effect3_dropShadow_234_1261"/>
<feBlend mode="normal" in="SourceGraphic" in2="effect3_dropShadow_234_1261" result="shape"/>
</filter>
<clipPath id="clip0_234_1261">
<rect x="4.13672" y="3" width="235" height="40" rx="12" fill="white"/>
</clipPath>
</defs>
</svg>
