<svg width="737" height="226" viewBox="0 0 737 226" fill="none" xmlns="http://www.w3.org/2000/svg">
<rect width="736" height="225.336" transform="translate(0.297363 0.332031)" fill="white"/>
<path d="M13.2579 18.5876C12.4695 18.5876 11.8782 18.3068 11.484 17.7452C11.0898 17.1836 10.8927 16.3411 10.8927 15.2179C10.8927 14.0947 11.0898 13.2522 11.484 12.6906C11.8782 12.129 12.4695 11.8482 13.2579 11.8482C14.0464 11.8482 14.6377 12.129 15.0319 12.6906C15.4261 13.2522 15.6232 14.0947 15.6232 15.2179C15.6232 16.3411 15.4261 17.1836 15.0319 17.7452C14.6377 18.3068 14.0464 18.5876 13.2579 18.5876ZM13.2579 17.7209C13.7548 17.7209 14.1193 17.5184 14.3515 17.1134C14.5837 16.7084 14.6998 16.0765 14.6998 15.2179C14.6998 14.3593 14.5837 13.7275 14.3515 13.3224C14.1193 12.9174 13.7548 12.7149 13.2579 12.7149C12.7611 12.7149 12.3966 12.9174 12.1644 13.3224C11.9322 13.7275 11.8161 14.3593 11.8161 15.2179C11.8161 16.0765 11.9322 16.7084 12.1644 17.1134C12.3966 17.5184 12.7611 17.7209 13.2579 17.7209ZM11.5488 15.9712L14.9347 13.4115V14.4646L11.5488 17.0243V15.9712Z" fill="#393939"/>
<path d="M52.8699 11.9768V17.5903H54.4575V18.457H50.1968V17.5903H51.9465V12.3656L52.2057 12.5195L50.1968 13.8237V12.8354L51.5577 11.9768H52.8699ZM57.8369 18.5866C57.0485 18.5866 56.4572 18.3058 56.063 17.7442C55.6688 17.1826 55.4717 16.3402 55.4717 15.2169C55.4717 14.0937 55.6688 13.2513 56.063 12.6896C56.4572 12.128 57.0485 11.8472 57.8369 11.8472C58.6254 11.8472 59.2167 12.128 59.6109 12.6896C60.0051 13.2513 60.2022 14.0937 60.2022 15.2169C60.2022 16.3402 60.0051 17.1826 59.6109 17.7442C59.2167 18.3058 58.6254 18.5866 57.8369 18.5866ZM57.8369 17.7199C58.3338 17.7199 58.6983 17.5174 58.9305 17.1124C59.1627 16.7074 59.2788 16.0756 59.2788 15.2169C59.2788 14.3583 59.1627 13.7265 58.9305 13.3215C58.6983 12.9164 58.3338 12.7139 57.8369 12.7139C57.3401 12.7139 56.9756 12.9164 56.7434 13.3215C56.5112 13.7265 56.3951 14.3583 56.3951 15.2169C56.3951 16.0756 56.5112 16.7074 56.7434 17.1124C56.9756 17.5174 57.3401 17.7199 57.8369 17.7199ZM56.1278 15.9702L59.5137 13.4106V14.4636L56.1278 17.0233V15.9702Z" fill="#393939"/>
<path d="M95.1283 17.0881L97.3883 15.3951C97.7015 15.1629 97.931 14.9253 98.0768 14.6823C98.2226 14.4339 98.2955 14.1666 98.2955 13.8804C98.2955 13.5186 98.1929 13.2351 97.9877 13.0299C97.7825 12.8192 97.499 12.7139 97.1372 12.7139C96.797 12.7139 96.5189 12.8192 96.3029 13.0299C96.0869 13.2405 95.9357 13.5483 95.8493 13.9533H94.9582C94.9798 13.5159 95.0878 13.1406 95.2822 12.8273C95.482 12.5087 95.7413 12.2657 96.0599 12.0983C96.3839 11.9309 96.743 11.8472 97.1372 11.8472C97.5584 11.8472 97.9229 11.9336 98.2307 12.1064C98.5439 12.2738 98.787 12.5087 98.9598 12.8111C99.1326 13.1136 99.219 13.47 99.219 13.8804C99.219 14.3016 99.111 14.6931 98.895 15.0549C98.679 15.4167 98.3522 15.7569 97.9148 16.0756L95.9141 17.5093V17.5903H99.0894V18.457H95.1283V17.0881ZM102.744 18.5866C101.956 18.5866 101.364 18.3058 100.97 17.7442C100.576 17.1826 100.379 16.3402 100.379 15.2169C100.379 14.0937 100.576 13.2513 100.97 12.6896C101.364 12.128 101.956 11.8472 102.744 11.8472C103.533 11.8472 104.124 12.128 104.518 12.6896C104.912 13.2513 105.109 14.0937 105.109 15.2169C105.109 16.3402 104.912 17.1826 104.518 17.7442C104.124 18.3058 103.533 18.5866 102.744 18.5866ZM102.744 17.7199C103.241 17.7199 103.605 17.5174 103.838 17.1124C104.07 16.7074 104.186 16.0756 104.186 15.2169C104.186 14.3583 104.07 13.7265 103.838 13.3215C103.605 12.9164 103.241 12.7139 102.744 12.7139C102.247 12.7139 101.883 12.9164 101.651 13.3215C101.418 13.7265 101.302 14.3583 101.302 15.2169C101.302 16.0756 101.418 16.7074 101.651 17.1124C101.883 17.5174 102.247 17.7199 102.744 17.7199ZM101.035 15.9702L104.421 13.4106V14.4636L101.035 17.0233V15.9702Z" fill="#393939"/>
<path d="M144.126 16.7317C144.126 17.0989 144.034 17.4229 143.851 17.7037C143.673 17.9845 143.427 18.2032 143.114 18.3598C142.8 18.511 142.441 18.5866 142.036 18.5866C141.594 18.5866 141.21 18.5083 140.886 18.3517C140.562 18.1897 140.311 17.9575 140.133 17.6551C139.955 17.3473 139.86 16.9828 139.849 16.5616H140.732C140.786 16.9342 140.927 17.2204 141.153 17.4202C141.38 17.62 141.672 17.7199 142.028 17.7199C142.26 17.7199 142.463 17.6767 142.636 17.5903C142.814 17.5039 142.952 17.3824 143.049 17.2258C143.146 17.0638 143.195 16.8775 143.195 16.6669C143.195 16.3483 143.092 16.0891 142.887 15.8892C142.687 15.6894 142.42 15.5895 142.085 15.5895H141.324V14.7309H142.085C142.431 14.7309 142.709 14.6391 142.919 14.4555C143.13 14.2719 143.235 14.0343 143.235 13.7427C143.235 13.4349 143.127 13.1865 142.911 12.9975C142.701 12.8084 142.417 12.7139 142.061 12.7139C141.688 12.7139 141.386 12.8192 141.153 13.0299C140.921 13.2405 140.767 13.5483 140.692 13.9533H139.809C139.83 13.5051 139.936 13.1244 140.125 12.8111C140.314 12.4979 140.573 12.2603 140.902 12.0983C141.232 11.9309 141.621 11.8472 142.069 11.8472C142.479 11.8472 142.841 11.9228 143.154 12.074C143.467 12.2252 143.71 12.4358 143.883 12.7058C144.061 12.9759 144.15 13.2999 144.15 13.6779C144.15 14.0289 144.056 14.3286 143.867 14.577C143.683 14.8254 143.438 14.9901 143.13 15.0711V15.2007C143.432 15.2817 143.673 15.4599 143.851 15.7353C144.034 16.0054 144.126 16.3375 144.126 16.7317ZM147.651 18.5866C146.863 18.5866 146.272 18.3058 145.877 17.7442C145.483 17.1826 145.286 16.3402 145.286 15.2169C145.286 14.0937 145.483 13.2513 145.877 12.6896C146.272 12.128 146.863 11.8472 147.651 11.8472C148.44 11.8472 149.031 12.128 149.425 12.6896C149.82 13.2513 150.017 14.0937 150.017 15.2169C150.017 16.3402 149.82 17.1826 149.425 17.7442C149.031 18.3058 148.44 18.5866 147.651 18.5866ZM147.651 17.7199C148.148 17.7199 148.513 17.5174 148.745 17.1124C148.977 16.7074 149.093 16.0756 149.093 15.2169C149.093 14.3583 148.977 13.7265 148.745 13.3215C148.513 12.9164 148.148 12.7139 147.651 12.7139C147.155 12.7139 146.79 12.9164 146.558 13.3215C146.326 13.7265 146.21 14.3583 146.21 15.2169C146.21 16.0756 146.326 16.7074 146.558 17.1124C146.79 17.5174 147.155 17.7199 147.651 17.7199ZM145.942 15.9702L149.328 13.4106V14.4636L145.942 17.0233V15.9702Z" fill="#393939"/>
<path d="M188.337 11.9768V15.711H189.301V16.5778H188.337V18.457H187.414V16.5778H184.498V15.3384L186.717 11.9768H188.337ZM185.3 15.6219V15.711H187.414V12.0659H187.665L185.3 15.6219ZM192.559 18.5866C191.771 18.5866 191.179 18.3058 190.785 17.7442C190.391 17.1826 190.194 16.3402 190.194 15.2169C190.194 14.0937 190.391 13.2513 190.785 12.6896C191.179 12.128 191.771 11.8472 192.559 11.8472C193.348 11.8472 193.939 12.128 194.333 12.6896C194.727 13.2513 194.924 14.0937 194.924 15.2169C194.924 16.3402 194.727 17.1826 194.333 17.7442C193.939 18.3058 193.348 18.5866 192.559 18.5866ZM192.559 17.7199C193.056 17.7199 193.42 17.5174 193.653 17.1124C193.885 16.7074 194.001 16.0756 194.001 15.2169C194.001 14.3583 193.885 13.7265 193.653 13.3215C193.42 12.9164 193.056 12.7139 192.559 12.7139C192.062 12.7139 191.698 12.9164 191.466 13.3215C191.233 13.7265 191.117 14.3583 191.117 15.2169C191.117 16.0756 191.233 16.7074 191.466 17.1124C191.698 17.5174 192.062 17.7199 192.559 17.7199ZM190.85 15.9702L194.236 13.4106V14.4636L190.85 17.0233V15.9702Z" fill="#393939"/>
<path d="M229.923 11.9768H233.868V12.8435H230.482L230.847 12.5033V14.5122H231.09C231.192 14.3988 231.336 14.3097 231.519 14.2449C231.703 14.1801 231.897 14.1477 232.102 14.1477C232.47 14.1477 232.794 14.2395 233.074 14.4231C233.361 14.6013 233.585 14.8524 233.747 15.1764C233.909 15.5004 233.99 15.8784 233.99 16.3105C233.99 16.7533 233.898 17.1475 233.714 17.4931C233.536 17.8333 233.288 18.1006 232.969 18.295C232.65 18.4894 232.283 18.5866 231.867 18.5866C231.246 18.5866 230.744 18.4219 230.361 18.0925C229.983 17.7631 229.761 17.3068 229.697 16.7236H230.596C230.682 17.0422 230.828 17.2879 231.033 17.4607C231.244 17.6335 231.516 17.7199 231.851 17.7199C232.1 17.7199 232.313 17.6632 232.491 17.5498C232.675 17.431 232.815 17.2663 232.912 17.0557C233.015 16.8397 233.066 16.5913 233.066 16.3105C233.066 16.0297 233.018 15.7893 232.921 15.5895C232.823 15.3897 232.686 15.2358 232.507 15.1278C232.335 15.0198 232.124 14.9658 231.876 14.9658C231.616 14.9658 231.39 15.0252 231.195 15.144C231.006 15.2574 230.863 15.4275 230.766 15.6543H229.923V11.9768ZM237.466 18.5866C236.678 18.5866 236.087 18.3058 235.692 17.7442C235.298 17.1826 235.101 16.3402 235.101 15.2169C235.101 14.0937 235.298 13.2513 235.692 12.6896C236.087 12.128 236.678 11.8472 237.466 11.8472C238.255 11.8472 238.846 12.128 239.24 12.6896C239.635 13.2513 239.832 14.0937 239.832 15.2169C239.832 16.3402 239.635 17.1826 239.24 17.7442C238.846 18.3058 238.255 18.5866 237.466 18.5866ZM237.466 17.7199C237.963 17.7199 238.328 17.5174 238.56 17.1124C238.792 16.7074 238.908 16.0756 238.908 15.2169C238.908 14.3583 238.792 13.7265 238.56 13.3215C238.328 12.9164 237.963 12.7139 237.466 12.7139C236.97 12.7139 236.605 12.9164 236.373 13.3215C236.141 13.7265 236.024 14.3583 236.024 15.2169C236.024 16.0756 236.141 16.7074 236.373 17.1124C236.605 17.5174 236.97 17.7199 237.466 17.7199ZM235.757 15.9702L239.143 13.4106V14.4636L235.757 17.0233V15.9702Z" fill="#393939"/>
<path d="M276.694 18.5866C276.267 18.5866 275.889 18.4948 275.56 18.3112C275.23 18.1222 274.971 17.863 274.782 17.5336C274.593 17.1988 274.499 16.8154 274.499 16.3834C274.499 16.054 274.563 15.7191 274.693 15.3789C274.823 15.0387 275.028 14.6607 275.309 14.2449L276.856 11.9768H277.884L276.337 14.2044L276.467 14.334C276.532 14.3124 276.602 14.2962 276.677 14.2854C276.758 14.2692 276.839 14.2611 276.92 14.2611C277.304 14.2611 277.644 14.3529 277.941 14.5365C278.244 14.7201 278.478 14.9712 278.646 15.2898C278.819 15.6084 278.905 15.9729 278.905 16.3834C278.905 16.8154 278.811 17.1988 278.622 17.5336C278.433 17.863 278.171 18.1222 277.836 18.3112C277.506 18.4948 277.126 18.5866 276.694 18.5866ZM275.422 16.3834C275.422 16.648 275.476 16.8802 275.584 17.08C275.692 17.2798 275.84 17.4364 276.029 17.5498C276.224 17.6632 276.448 17.7199 276.702 17.7199C276.961 17.7199 277.185 17.6632 277.374 17.5498C277.569 17.4364 277.717 17.2798 277.82 17.08C277.928 16.8802 277.982 16.648 277.982 16.3834C277.982 16.1188 277.928 15.8892 277.82 15.6948C277.717 15.495 277.569 15.3411 277.374 15.2331C277.185 15.1197 276.961 15.063 276.702 15.063C276.448 15.063 276.224 15.1197 276.029 15.2331C275.84 15.3411 275.692 15.495 275.584 15.6948C275.476 15.8892 275.422 16.1188 275.422 16.3834ZM282.374 18.5866C281.585 18.5866 280.994 18.3058 280.6 17.7442C280.205 17.1826 280.008 16.3402 280.008 15.2169C280.008 14.0937 280.205 13.2513 280.6 12.6896C280.994 12.128 281.585 11.8472 282.374 11.8472C283.162 11.8472 283.753 12.128 284.148 12.6896C284.542 13.2513 284.739 14.0937 284.739 15.2169C284.739 16.3402 284.542 17.1826 284.148 17.7442C283.753 18.3058 283.162 18.5866 282.374 18.5866ZM282.374 17.7199C282.87 17.7199 283.235 17.5174 283.467 17.1124C283.699 16.7074 283.815 16.0756 283.815 15.2169C283.815 14.3583 283.699 13.7265 283.467 13.3215C283.235 12.9164 282.87 12.7139 282.374 12.7139C281.877 12.7139 281.512 12.9164 281.28 13.3215C281.048 13.7265 280.932 14.3583 280.932 15.2169C280.932 16.0756 281.048 16.7074 281.28 17.1124C281.512 17.5174 281.877 17.7199 282.374 17.7199ZM280.664 15.9702L284.05 13.4106V14.4636L280.664 17.0233V15.9702Z" fill="#393939"/>
<path d="M323.561 13.3944L321.204 18.457H320.2L322.84 12.9245V12.8435H319.552V11.9768H323.561V13.3944ZM327.281 18.5866C326.492 18.5866 325.901 18.3058 325.507 17.7442C325.113 17.1826 324.916 16.3402 324.916 15.2169C324.916 14.0937 325.113 13.2513 325.507 12.6896C325.901 12.128 326.492 11.8472 327.281 11.8472C328.069 11.8472 328.661 12.128 329.055 12.6896C329.449 13.2513 329.646 14.0937 329.646 15.2169C329.646 16.3402 329.449 17.1826 329.055 17.7442C328.661 18.3058 328.069 18.5866 327.281 18.5866ZM327.281 17.7199C327.778 17.7199 328.142 17.5174 328.374 17.1124C328.607 16.7074 328.723 16.0756 328.723 15.2169C328.723 14.3583 328.607 13.7265 328.374 13.3215C328.142 12.9164 327.778 12.7139 327.281 12.7139C326.784 12.7139 326.419 12.9164 326.187 13.3215C325.955 13.7265 325.839 14.3583 325.839 15.2169C325.839 16.0756 325.955 16.7074 326.187 17.1124C326.419 17.5174 326.784 17.7199 327.281 17.7199ZM325.572 15.9702L328.958 13.4106V14.4636L325.572 17.0233V15.9702Z" fill="#393939"/>
<path d="M366.516 14.739C366.921 14.739 367.237 14.6499 367.464 14.4717C367.691 14.2935 367.804 14.0451 367.804 13.7265C367.804 13.4079 367.691 13.1595 367.464 12.9813C367.237 12.803 366.921 12.7139 366.516 12.7139C366.111 12.7139 365.795 12.803 365.569 12.9813C365.342 13.1595 365.228 13.4079 365.228 13.7265C365.228 14.0451 365.342 14.2935 365.569 14.4717C365.795 14.6499 366.111 14.739 366.516 14.739ZM364.337 13.6617C364.337 13.2945 364.426 12.9759 364.605 12.7058C364.788 12.4304 365.042 12.2198 365.366 12.074C365.695 11.9228 366.079 11.8472 366.516 11.8472C366.959 11.8472 367.342 11.9228 367.666 12.074C367.99 12.2198 368.242 12.4304 368.42 12.7058C368.603 12.9759 368.695 13.2945 368.695 13.6617C368.695 13.9965 368.601 14.2908 368.412 14.5446C368.228 14.7984 367.982 14.9685 367.675 15.0549V15.1845C367.982 15.2709 368.228 15.4545 368.412 15.7353C368.601 16.0108 368.695 16.3375 368.695 16.7155C368.695 17.0935 368.603 17.4229 368.42 17.7037C368.242 17.9791 367.988 18.1951 367.658 18.3517C367.334 18.5083 366.954 18.5866 366.516 18.5866C366.079 18.5866 365.695 18.5083 365.366 18.3517C365.042 18.1951 364.788 17.9791 364.605 17.7037C364.426 17.4229 364.337 17.0935 364.337 16.7155C364.337 16.3375 364.429 16.0108 364.613 15.7353C364.802 15.4545 365.05 15.2709 365.358 15.1845V15.0549C365.05 14.9685 364.802 14.7984 364.613 14.5446C364.429 14.2908 364.337 13.9965 364.337 13.6617ZM365.261 16.6426C365.261 16.9774 365.371 17.242 365.593 17.4364C365.814 17.6254 366.122 17.7199 366.516 17.7199C366.91 17.7199 367.218 17.6254 367.44 17.4364C367.661 17.242 367.772 16.9774 367.772 16.6426C367.772 16.3024 367.661 16.0378 367.44 15.8487C367.218 15.6597 366.91 15.5652 366.516 15.5652C366.122 15.5652 365.814 15.6597 365.593 15.8487C365.371 16.0378 365.261 16.3024 365.261 16.6426ZM372.188 18.5866C371.4 18.5866 370.808 18.3058 370.414 17.7442C370.02 17.1826 369.823 16.3402 369.823 15.2169C369.823 14.0937 370.02 13.2513 370.414 12.6896C370.808 12.128 371.4 11.8472 372.188 11.8472C372.976 11.8472 373.568 12.128 373.962 12.6896C374.356 13.2513 374.553 14.0937 374.553 15.2169C374.553 16.3402 374.356 17.1826 373.962 17.7442C373.568 18.3058 372.976 18.5866 372.188 18.5866ZM372.188 17.7199C372.685 17.7199 373.049 17.5174 373.282 17.1124C373.514 16.7074 373.63 16.0756 373.63 15.2169C373.63 14.3583 373.514 13.7265 373.282 13.3215C373.049 12.9164 372.685 12.7139 372.188 12.7139C371.691 12.7139 371.327 12.9164 371.094 13.3215C370.862 13.7265 370.746 14.3583 370.746 15.2169C370.746 16.0756 370.862 16.7074 371.094 17.1124C371.327 17.5174 371.691 17.7199 372.188 17.7199ZM370.479 15.9702L373.865 13.4106V14.4636L370.479 17.0233V15.9702Z" fill="#393939"/>
<path d="M411.432 11.8472C411.859 11.8472 412.237 11.9417 412.566 12.1307C412.896 12.3143 413.155 12.5735 413.344 12.9083C413.533 13.2378 413.627 13.6185 413.627 14.0505C413.627 14.3799 413.562 14.7147 413.433 15.0549C413.303 15.3951 413.098 15.7731 412.817 16.189L411.27 18.457H410.241L411.788 16.2295L411.659 16.0999C411.594 16.1215 411.521 16.1404 411.44 16.1566C411.365 16.1674 411.286 16.1728 411.205 16.1728C410.822 16.1728 410.479 16.081 410.177 15.8973C409.88 15.7137 409.645 15.4626 409.472 15.144C409.304 14.8254 409.221 14.4609 409.221 14.0505C409.221 13.6185 409.315 13.2378 409.504 12.9083C409.693 12.5735 409.952 12.3143 410.282 12.1307C410.617 11.9417 411 11.8472 411.432 11.8472ZM412.704 14.0505C412.704 13.7805 412.65 13.5483 412.542 13.3539C412.439 13.1541 412.291 12.9975 412.096 12.884C411.907 12.7706 411.683 12.7139 411.424 12.7139C411.17 12.7139 410.946 12.7706 410.752 12.884C410.563 12.9975 410.414 13.1541 410.306 13.3539C410.198 13.5483 410.144 13.7805 410.144 14.0505C410.144 14.3151 410.198 14.5473 410.306 14.7471C410.414 14.9415 410.563 15.0954 410.752 15.2088C410.946 15.3168 411.17 15.3708 411.424 15.3708C411.683 15.3708 411.907 15.3168 412.096 15.2088C412.291 15.0954 412.439 14.9415 412.542 14.7471C412.65 14.5473 412.704 14.3151 412.704 14.0505ZM417.096 18.5866C416.307 18.5866 415.716 18.3058 415.322 17.7442C414.928 17.1826 414.73 16.3402 414.73 15.2169C414.73 14.0937 414.928 13.2513 415.322 12.6896C415.716 12.128 416.307 11.8472 417.096 11.8472C417.884 11.8472 418.475 12.128 418.87 12.6896C419.264 13.2513 419.461 14.0937 419.461 15.2169C419.461 16.3402 419.264 17.1826 418.87 17.7442C418.475 18.3058 417.884 18.5866 417.096 18.5866ZM417.096 17.7199C417.593 17.7199 417.957 17.5174 418.189 17.1124C418.421 16.7074 418.538 16.0756 418.538 15.2169C418.538 14.3583 418.421 13.7265 418.189 13.3215C417.957 12.9164 417.593 12.7139 417.096 12.7139C416.599 12.7139 416.234 12.9164 416.002 13.3215C415.77 13.7265 415.654 14.3583 415.654 15.2169C415.654 16.0756 415.77 16.7074 416.002 17.1124C416.234 17.5174 416.599 17.7199 417.096 17.7199ZM415.387 15.9702L418.772 13.4106V14.4636L415.387 17.0233V15.9702Z" fill="#393939"/>
<path d="M457.036 11.9768V17.5903H458.624V18.457H454.363V17.5903H456.112V12.3656L456.372 12.5195L454.363 13.8237V12.8354L455.724 11.9768H457.036ZM462.003 18.5866C461.215 18.5866 460.623 18.3058 460.229 17.7442C459.835 17.1826 459.638 16.3402 459.638 15.2169C459.638 14.0937 459.835 13.2513 460.229 12.6896C460.623 12.128 461.215 11.8472 462.003 11.8472C462.791 11.8472 463.383 12.128 463.777 12.6896C464.171 13.2513 464.368 14.0937 464.368 15.2169C464.368 16.3402 464.171 17.1826 463.777 17.7442C463.383 18.3058 462.791 18.5866 462.003 18.5866ZM462.003 17.7199C462.5 17.7199 462.864 17.5174 463.096 17.1124C463.329 16.7074 463.445 16.0756 463.445 15.2169C463.445 14.3583 463.329 13.7265 463.096 13.3215C462.864 12.9164 462.5 12.7139 462.003 12.7139C461.506 12.7139 461.142 12.9164 460.909 13.3215C460.677 13.7265 460.561 14.3583 460.561 15.2169C460.561 16.0756 460.677 16.7074 460.909 17.1124C461.142 17.5174 461.506 17.7199 462.003 17.7199ZM460.294 15.9702L463.68 13.4106V14.4636L460.294 17.0233V15.9702ZM467.675 18.5866C466.886 18.5866 466.295 18.3058 465.901 17.7442C465.507 17.1826 465.309 16.3402 465.309 15.2169C465.309 14.0937 465.507 13.2513 465.901 12.6896C466.295 12.128 466.886 11.8472 467.675 11.8472C468.463 11.8472 469.054 12.128 469.449 12.6896C469.843 13.2513 470.04 14.0937 470.04 15.2169C470.04 16.3402 469.843 17.1826 469.449 17.7442C469.054 18.3058 468.463 18.5866 467.675 18.5866ZM467.675 17.7199C468.172 17.7199 468.536 17.5174 468.768 17.1124C469 16.7074 469.117 16.0756 469.117 15.2169C469.117 14.3583 469 13.7265 468.768 13.3215C468.536 12.9164 468.172 12.7139 467.675 12.7139C467.178 12.7139 466.813 12.9164 466.581 13.3215C466.349 13.7265 466.233 14.3583 466.233 15.2169C466.233 16.0756 466.349 16.7074 466.581 17.1124C466.813 17.5174 467.178 17.7199 467.675 17.7199ZM465.966 15.9702L469.351 13.4106V14.4636L465.966 17.0233V15.9702Z" fill="#393939"/>
<path d="M507.943 11.9768V17.5903H509.531V18.457H505.27V17.5903H507.02V12.3656L507.279 12.5195L505.27 13.8237V12.8354L506.631 11.9768H507.943ZM513.615 11.9768V17.5903H515.203V18.457H510.942V17.5903H512.691V12.3656L512.951 12.5195L510.942 13.8237V12.8354L512.303 11.9768H513.615ZM518.582 18.5866C517.794 18.5866 517.202 18.3058 516.808 17.7442C516.414 17.1826 516.217 16.3402 516.217 15.2169C516.217 14.0937 516.414 13.2513 516.808 12.6896C517.202 12.128 517.794 11.8472 518.582 11.8472C519.37 11.8472 519.962 12.128 520.356 12.6896C520.75 13.2513 520.947 14.0937 520.947 15.2169C520.947 16.3402 520.75 17.1826 520.356 17.7442C519.962 18.3058 519.37 18.5866 518.582 18.5866ZM518.582 17.7199C519.079 17.7199 519.443 17.5174 519.675 17.1124C519.908 16.7074 520.024 16.0756 520.024 15.2169C520.024 14.3583 519.908 13.7265 519.675 13.3215C519.443 12.9164 519.079 12.7139 518.582 12.7139C518.085 12.7139 517.721 12.9164 517.488 13.3215C517.256 13.7265 517.14 14.3583 517.14 15.2169C517.14 16.0756 517.256 16.7074 517.488 17.1124C517.721 17.5174 518.085 17.7199 518.582 17.7199ZM516.873 15.9702L520.259 13.4106V14.4636L516.873 17.0233V15.9702Z" fill="#393939"/>
<path d="M558.85 11.9768V17.5903H560.438V18.457H556.177V17.5903H557.927V12.3656L558.186 12.5195L556.177 13.8237V12.8354L557.538 11.9768H558.85ZM561.873 17.0881L564.133 15.3951C564.447 15.1629 564.676 14.9253 564.822 14.6823C564.968 14.4339 565.041 14.1666 565.041 13.8804C565.041 13.5186 564.938 13.2351 564.733 13.0299C564.528 12.8192 564.244 12.7139 563.882 12.7139C563.542 12.7139 563.264 12.8192 563.048 13.0299C562.832 13.2405 562.681 13.5483 562.594 13.9533H561.703C561.725 13.5159 561.833 13.1406 562.027 12.8273C562.227 12.5087 562.486 12.2657 562.805 12.0983C563.129 11.9309 563.488 11.8472 563.882 11.8472C564.303 11.8472 564.668 11.9336 564.976 12.1064C565.289 12.2738 565.532 12.5087 565.705 12.8111C565.878 13.1136 565.964 13.47 565.964 13.8804C565.964 14.3016 565.856 14.6931 565.64 15.0549C565.424 15.4167 565.097 15.7569 564.66 16.0756L562.659 17.5093V17.5903H565.834V18.457H561.873V17.0881ZM569.489 18.5866C568.701 18.5866 568.109 18.3058 567.715 17.7442C567.321 17.1826 567.124 16.3402 567.124 15.2169C567.124 14.0937 567.321 13.2513 567.715 12.6896C568.109 12.128 568.701 11.8472 569.489 11.8472C570.278 11.8472 570.869 12.128 571.263 12.6896C571.657 13.2513 571.854 14.0937 571.854 15.2169C571.854 16.3402 571.657 17.1826 571.263 17.7442C570.869 18.3058 570.278 18.5866 569.489 18.5866ZM569.489 17.7199C569.986 17.7199 570.351 17.5174 570.583 17.1124C570.815 16.7074 570.931 16.0756 570.931 15.2169C570.931 14.3583 570.815 13.7265 570.583 13.3215C570.351 12.9164 569.986 12.7139 569.489 12.7139C568.992 12.7139 568.628 12.9164 568.396 13.3215C568.163 13.7265 568.047 14.3583 568.047 15.2169C568.047 16.0756 568.163 16.7074 568.396 17.1124C568.628 17.5174 568.992 17.7199 569.489 17.7199ZM567.78 15.9702L571.166 13.4106V14.4636L567.78 17.0233V15.9702Z" fill="#393939"/>
<path d="M609.758 11.9768V17.5903H611.345V18.457H607.085V17.5903H608.834V12.3656L609.093 12.5195L607.085 13.8237V12.8354L608.445 11.9768H609.758ZM616.871 16.7317C616.871 17.0989 616.779 17.4229 616.596 17.7037C616.418 17.9845 616.172 18.2032 615.859 18.3598C615.545 18.511 615.186 18.5866 614.781 18.5866C614.339 18.5866 613.955 18.5083 613.631 18.3517C613.307 18.1897 613.056 17.9575 612.878 17.6551C612.7 17.3473 612.605 16.9828 612.594 16.5616H613.477C613.531 16.9342 613.672 17.2204 613.898 17.4202C614.125 17.62 614.417 17.7199 614.773 17.7199C615.005 17.7199 615.208 17.6767 615.381 17.5903C615.559 17.5039 615.697 17.3824 615.794 17.2258C615.891 17.0638 615.94 16.8775 615.94 16.6669C615.94 16.3483 615.837 16.0891 615.632 15.8892C615.432 15.6894 615.165 15.5895 614.83 15.5895H614.069V14.7309H614.83C615.176 14.7309 615.454 14.6391 615.664 14.4555C615.875 14.2719 615.98 14.0343 615.98 13.7427C615.98 13.4349 615.872 13.1865 615.656 12.9975C615.446 12.8084 615.162 12.7139 614.806 12.7139C614.433 12.7139 614.131 12.8192 613.898 13.0299C613.666 13.2405 613.512 13.5483 613.437 13.9533H612.554C612.575 13.5051 612.681 13.1244 612.87 12.8111C613.059 12.4979 613.318 12.2603 613.647 12.0983C613.977 11.9309 614.366 11.8472 614.814 11.8472C615.224 11.8472 615.586 11.9228 615.899 12.074C616.212 12.2252 616.455 12.4358 616.628 12.7058C616.806 12.9759 616.896 13.2999 616.896 13.6779C616.896 14.0289 616.801 14.3286 616.612 14.577C616.428 14.8254 616.183 14.9901 615.875 15.0711V15.2007C616.177 15.2817 616.418 15.4599 616.596 15.7353C616.779 16.0054 616.871 16.3375 616.871 16.7317ZM620.396 18.5866C619.608 18.5866 619.017 18.3058 618.622 17.7442C618.228 17.1826 618.031 16.3402 618.031 15.2169C618.031 14.0937 618.228 13.2513 618.622 12.6896C619.017 12.128 619.608 11.8472 620.396 11.8472C621.185 11.8472 621.776 12.128 622.17 12.6896C622.565 13.2513 622.762 14.0937 622.762 15.2169C622.762 16.3402 622.565 17.1826 622.17 17.7442C621.776 18.3058 621.185 18.5866 620.396 18.5866ZM620.396 17.7199C620.893 17.7199 621.258 17.5174 621.49 17.1124C621.722 16.7074 621.838 16.0756 621.838 15.2169C621.838 14.3583 621.722 13.7265 621.49 13.3215C621.258 12.9164 620.893 12.7139 620.396 12.7139C619.9 12.7139 619.535 12.9164 619.303 13.3215C619.071 13.7265 618.955 14.3583 618.955 15.2169C618.955 16.0756 619.071 16.7074 619.303 17.1124C619.535 17.5174 619.9 17.7199 620.396 17.7199ZM618.687 15.9702L622.073 13.4106V14.4636L618.687 17.0233V15.9702Z" fill="#393939"/>
<path d="M660.665 11.9768V17.5903H662.252V18.457H657.992V17.5903H659.741V12.3656L660.001 12.5195L657.992 13.8237V12.8354L659.353 11.9768H660.665ZM667.082 11.9768V15.711H668.046V16.5778H667.082V18.457H666.158V16.5778H663.242V15.3384L665.462 11.9768H667.082ZM664.044 15.6219V15.711H666.158V12.0659H666.409L664.044 15.6219ZM671.304 18.5866C670.515 18.5866 669.924 18.3058 669.53 17.7442C669.135 17.1826 668.938 16.3402 668.938 15.2169C668.938 14.0937 669.135 13.2513 669.53 12.6896C669.924 12.128 670.515 11.8472 671.304 11.8472C672.092 11.8472 672.683 12.128 673.078 12.6896C673.472 13.2513 673.669 14.0937 673.669 15.2169C673.669 16.3402 673.472 17.1826 673.078 17.7442C672.683 18.3058 672.092 18.5866 671.304 18.5866ZM671.304 17.7199C671.8 17.7199 672.165 17.5174 672.397 17.1124C672.629 16.7074 672.745 16.0756 672.745 15.2169C672.745 14.3583 672.629 13.7265 672.397 13.3215C672.165 12.9164 671.8 12.7139 671.304 12.7139C670.807 12.7139 670.442 12.9164 670.21 13.3215C669.978 13.7265 669.862 14.3583 669.862 15.2169C669.862 16.0756 669.978 16.7074 670.21 17.1124C670.442 17.5174 670.807 17.7199 671.304 17.7199ZM669.594 15.9702L672.98 13.4106V14.4636L669.594 17.0233V15.9702Z" fill="#393939"/>
<path d="M711.572 11.9768V17.5903H713.16V18.457H708.899V17.5903H710.649V12.3656L710.908 12.5195L708.899 13.8237V12.8354L710.26 11.9768H711.572ZM714.668 11.9768H718.613V12.8435H715.227L715.591 12.5033V14.5122H715.834C715.937 14.3988 716.08 14.3097 716.264 14.2449C716.447 14.1801 716.642 14.1477 716.847 14.1477C717.214 14.1477 717.538 14.2395 717.819 14.4231C718.105 14.6013 718.329 14.8524 718.491 15.1764C718.653 15.5004 718.734 15.8784 718.734 16.3105C718.734 16.7533 718.642 17.1475 718.459 17.4931C718.281 17.8333 718.032 18.1006 717.714 18.295C717.395 18.4894 717.028 18.5866 716.612 18.5866C715.991 18.5866 715.489 18.4219 715.105 18.0925C714.727 17.7631 714.506 17.3068 714.441 16.7236H715.34C715.427 17.0422 715.572 17.2879 715.778 17.4607C715.988 17.6335 716.261 17.7199 716.596 17.7199C716.844 17.7199 717.058 17.6632 717.236 17.5498C717.419 17.431 717.56 17.2663 717.657 17.0557C717.76 16.8397 717.811 16.5913 717.811 16.3105C717.811 16.0297 717.762 15.7893 717.665 15.5895C717.568 15.3897 717.43 15.2358 717.252 15.1278C717.079 15.0198 716.868 14.9658 716.62 14.9658C716.361 14.9658 716.134 15.0252 715.94 15.144C715.751 15.2574 715.608 15.4275 715.51 15.6543H714.668V11.9768ZM722.211 18.5866C721.422 18.5866 720.831 18.3058 720.437 17.7442C720.043 17.1826 719.846 16.3402 719.846 15.2169C719.846 14.0937 720.043 13.2513 720.437 12.6896C720.831 12.128 721.422 11.8472 722.211 11.8472C722.999 11.8472 723.591 12.128 723.985 12.6896C724.379 13.2513 724.576 14.0937 724.576 15.2169C724.576 16.3402 724.379 17.1826 723.985 17.7442C723.591 18.3058 722.999 18.5866 722.211 18.5866ZM722.211 17.7199C722.708 17.7199 723.072 17.5174 723.304 17.1124C723.537 16.7074 723.653 16.0756 723.653 15.2169C723.653 14.3583 723.537 13.7265 723.304 13.3215C723.072 12.9164 722.708 12.7139 722.211 12.7139C721.714 12.7139 721.35 12.9164 721.117 13.3215C720.885 13.7265 720.769 14.3583 720.769 15.2169C720.769 16.0756 720.885 16.7074 721.117 17.1124C721.35 17.5174 721.714 17.7199 722.211 17.7199ZM720.502 15.9702L723.888 13.4106V14.4636L720.502 17.0233V15.9702Z" fill="#393939"/>
<path d="M10.4229 38.478C10.4229 36.8096 11.7754 35.457 13.4438 35.457H55.1657V66.0631H13.4438C11.7754 66.0631 10.4229 64.7106 10.4229 63.0422L10.4229 38.478Z" fill="#020202"/>
<rect x="55.166" y="35.457" width="44.7428" height="30.6061" fill="#292929"/>
<rect x="99.9082" y="35.457" width="44.7428" height="30.6061" fill="#424242"/>
<rect x="144.651" y="35.457" width="44.7428" height="30.6061" fill="#5D5D5D"/>
<rect x="189.394" y="35.457" width="44.7428" height="30.6061" fill="#7A7A7A"/>
<rect x="234.137" y="35.457" width="44.7428" height="30.6061" fill="#989898"/>
<rect x="278.88" y="35.457" width="44.7428" height="30.6061" fill="#B7B7B7"/>
<rect x="323.623" y="35.457" width="44.7428" height="30.6061" fill="#D7D7D7"/>
<rect x="368.365" y="35.457" width="44.7428" height="30.6061" fill="#E3E3E3"/>
<rect x="413.108" y="35.457" width="44.7428" height="30.6061" fill="#EBEBEB"/>
<rect x="457.851" y="35.457" width="44.7428" height="30.6061" fill="#F1F1F1"/>
<rect x="502.594" y="35.457" width="44.7428" height="30.6061" fill="#F4F4F4"/>
<rect x="547.337" y="35.457" width="44.7428" height="30.6061" fill="#FAFAFA"/>
<rect x="592.079" y="35.457" width="44.7428" height="30.6061" fill="#FAFAFA"/>
<rect x="636.822" y="35.457" width="44.7428" height="30.6061" fill="#FAFAFA"/>
<rect x="10.9291" y="81.5697" width="417.164" height="58.7269" rx="2.02507" stroke="#545454" stroke-width="1.01253"/>
<path d="M18.9023 98.6508C18.9023 96.9824 20.2549 95.6299 21.9233 95.6299H61.9258V126.236H21.9233C20.2549 126.236 18.9023 124.883 18.9023 123.215V98.6508Z" fill="#020202"/>
<rect x="63.4443" y="95.6299" width="43.0235" height="30.6061" fill="#292929"/>
<rect x="107.987" y="95.6299" width="43.0235" height="30.6061" fill="#424242"/>
<rect x="152.529" y="95.6299" width="43.0235" height="30.6061" fill="#5D5D5D"/>
<rect x="197.071" y="95.6299" width="43.0235" height="30.6061" fill="#7A7A7A"/>
<rect x="241.613" y="95.6299" width="43.0235" height="30.6061" fill="#989898"/>
<rect x="286.156" y="95.6299" width="43.0235" height="30.6061" fill="#B7B7B7"/>
<rect x="330.698" y="95.6299" width="43.0235" height="30.6061" fill="#D7D7D7"/>
<rect x="375.24" y="95.6299" width="43.0235" height="30.6061" fill="#E3E3E3"/>
<rect x="10.9291" y="156.309" width="593.345" height="58.7269" rx="2.02507" stroke="#DFDFDF" stroke-width="1.01253"/>
<path d="M18.9023 173.39C18.9023 171.722 20.2549 170.369 21.9233 170.369H61.9258V200.975H21.9233C20.2549 200.975 18.9023 199.623 18.9023 197.954V173.39Z" fill="#020202"/>
<rect x="63.4443" y="170.369" width="43.0235" height="30.6061" fill="#292929"/>
<rect x="107.987" y="170.369" width="43.0235" height="30.6061" fill="#424242"/>
<rect x="152.529" y="170.369" width="43.0235" height="30.6061" fill="#5D5D5D"/>
<rect x="197.071" y="170.369" width="43.0235" height="30.6061" fill="#7A7A7A"/>
<rect x="241.613" y="170.369" width="43.0235" height="30.6061" fill="#989898"/>
<rect x="286.156" y="170.369" width="43.0235" height="30.6061" fill="#B7B7B7"/>
<rect x="330.698" y="170.369" width="43.0235" height="30.6061" fill="#D7D7D7"/>
<rect x="375.24" y="170.369" width="43.0235" height="30.6061" fill="#E3E3E3"/>
<rect x="419.783" y="170.369" width="43.0235" height="30.6061" fill="#E3E3E3"/>
<rect x="464.325" y="170.369" width="43.0235" height="30.6061" fill="#E3E3E3"/>
<rect x="508.867" y="170.369" width="43.0235" height="30.6061" fill="#E3E3E3"/>
<rect x="553.409" y="170.369" width="43.0235" height="30.6061" fill="#E3E3E3"/>
</svg>
