<svg width="156" height="48" viewBox="0 0 156 48" fill="none" xmlns="http://www.w3.org/2000/svg">
<rect x="4.41699" y="4" width="40" height="40" rx="4" fill="#D9D9D9"/>
<path d="M28.1826 22.8203V24.6719H20.7529V22.8203H28.1826Z" fill="black"/>
<rect x="48.417" y="4" width="59" height="40" rx="4" fill="#E6E6E6"/>
<path d="M86.033 17.428C86.9077 17.428 87.6757 17.62 88.337 18.004C89.009 18.3773 89.5317 18.9 89.905 19.572C90.289 20.2333 90.481 21.0013 90.481 21.876C90.481 22.5267 90.353 23.188 90.097 23.86C89.8517 24.532 89.457 25.2627 88.913 26.052L85.873 30.5H83.537L86.513 26.26L86.241 26.004C86.1343 26.036 86.017 26.0627 85.889 26.084C85.7717 26.1053 85.649 26.116 85.521 26.116C84.753 26.116 84.0703 25.9347 83.473 25.572C82.8757 25.1987 82.4063 24.692 82.065 24.052C81.7237 23.412 81.553 22.6867 81.553 21.876C81.553 21.0013 81.7397 20.2333 82.113 19.572C82.497 18.9 83.025 18.3773 83.697 18.004C84.3797 17.62 85.1583 17.428 86.033 17.428ZM88.385 21.876C88.385 21.364 88.289 20.9267 88.097 20.564C87.905 20.1907 87.6277 19.9027 87.265 19.7C86.913 19.4867 86.497 19.38 86.017 19.38C85.5477 19.38 85.1317 19.4867 84.769 19.7C84.417 19.9027 84.1397 20.1907 83.937 20.564C83.745 20.9267 83.649 21.364 83.649 21.876C83.649 22.3667 83.745 22.7987 83.937 23.172C84.1397 23.5453 84.417 23.8333 84.769 24.036C85.121 24.2387 85.537 24.34 86.017 24.34C86.497 24.34 86.913 24.2387 87.265 24.036C87.6277 23.8333 87.905 23.5453 88.097 23.172C88.289 22.7987 88.385 22.3667 88.385 21.876Z" fill="black"/>
<rect x="111.417" y="4" width="40" height="40" rx="4" fill="#D9D9D9"/>
<path d="M130.378 29.8516V25.3047H125.854V23.4062H130.378V18.8828H132.276V23.4062H136.823V25.3047H132.276V29.8516H130.378Z" fill="black"/>
</svg>
