<svg width="489" height="132" viewBox="0 0 489 132" fill="none" xmlns="http://www.w3.org/2000/svg">
<rect width="488.595" height="131.545" rx="9.02021" fill="white"/>
<path d="M74.2578 61.7613V70.0959H76.6151V71.3828H70.2889V70.0959H72.8867V62.3385L73.2716 62.5671L70.2889 64.5034V63.0361L72.3094 61.7613H74.2578ZM81.6327 71.5752C80.462 71.5752 79.5841 71.1583 78.9988 70.3244C78.4135 69.4906 78.1208 68.2398 78.1208 66.572C78.1208 64.9043 78.4135 63.6535 78.9988 62.8196C79.5841 61.9858 80.462 61.5688 81.6327 61.5688C82.8033 61.5688 83.6813 61.9858 84.2666 62.8196C84.8519 63.6535 85.1445 64.9043 85.1445 66.572C85.1445 68.2398 84.8519 69.4906 84.2666 70.3244C83.6813 71.1583 82.8033 71.5752 81.6327 71.5752ZM81.6327 70.2884C82.3703 70.2884 82.9115 69.9877 83.2563 69.3863C83.6011 68.785 83.7735 67.8469 83.7735 66.572C83.7735 65.2972 83.6011 64.3591 83.2563 63.7577C82.9115 63.1564 82.3703 62.8557 81.6327 62.8557C80.895 62.8557 80.3538 63.1564 80.009 63.7577C79.6643 64.3591 79.4919 65.2972 79.4919 66.572C79.4919 67.8469 79.6643 68.785 80.009 69.3863C80.3538 69.9877 80.895 70.2884 81.6327 70.2884ZM79.095 67.6905L84.1222 63.89V65.4535L79.095 69.254V67.6905Z" fill="black"/>
<path d="M77.4231 87.6646C73.2738 87.6646 69.9062 91.0321 69.9062 95.1814C69.9062 99.3307 73.2738 102.698 77.4231 102.698C81.5724 102.698 84.9399 99.3307 84.9399 95.1814C84.9399 91.0321 81.5724 87.6646 77.4231 87.6646ZM77.4231 101.195C74.1006 101.195 71.4096 98.5038 71.4096 95.1814C71.4096 91.8589 74.1006 89.1679 77.4231 89.1679C80.7455 89.1679 83.4366 91.8589 83.4366 95.1814C83.4366 98.5038 80.7455 101.195 77.4231 101.195Z" fill="#1D1A22"/>
<path d="M77.4231 98.9398C79.4988 98.9398 81.1815 97.2571 81.1815 95.1814C81.1815 93.1057 79.4988 91.423 77.4231 91.423C75.3474 91.423 73.6647 93.1057 73.6647 95.1814C73.6647 97.2571 75.3474 98.9398 77.4231 98.9398Z" fill="#1D1A22"/>
<path d="M185.893 61.7613H191.75V63.0481H186.723L187.264 62.543V65.5257H187.625C187.777 65.3573 187.99 65.225 188.262 65.1288C188.535 65.0326 188.823 64.9845 189.128 64.9845C189.673 64.9845 190.154 65.1208 190.571 65.3934C190.996 65.658 191.329 66.0308 191.57 66.5119C191.81 66.993 191.93 67.5542 191.93 68.1957C191.93 68.8531 191.794 69.4385 191.521 69.9516C191.257 70.4567 190.888 70.8536 190.415 71.1423C189.942 71.4309 189.397 71.5752 188.779 71.5752C187.857 71.5752 187.112 71.3307 186.542 70.8416C185.981 70.3525 185.652 69.675 185.556 68.809H186.891C187.019 69.2821 187.236 69.6469 187.541 69.9035C187.853 70.1601 188.258 70.2884 188.755 70.2884C189.124 70.2884 189.441 70.2042 189.705 70.0358C189.978 69.8594 190.186 69.6149 190.331 69.3022C190.483 68.9814 190.559 68.6126 190.559 68.1957C190.559 67.7787 190.487 67.4219 190.343 67.1253C190.199 66.8286 189.994 66.6001 189.729 66.4397C189.473 66.2794 189.16 66.1992 188.791 66.1992C188.406 66.1992 188.07 66.2874 187.781 66.4638C187.5 66.6322 187.288 66.8847 187.144 67.2215H185.893V61.7613Z" fill="black"/>
<path d="M188.672 87.6646C184.523 87.6646 181.155 91.0321 181.155 95.1814C181.155 99.3307 184.523 102.698 188.672 102.698C192.821 102.698 196.189 99.3307 196.189 95.1814C196.189 91.0321 192.821 87.6646 188.672 87.6646ZM188.672 101.195C185.35 101.195 182.659 98.5038 182.659 95.1814C182.659 91.8589 185.35 89.1679 188.672 89.1679C191.995 89.1679 194.686 91.8589 194.686 95.1814C194.686 98.5038 191.995 101.195 188.672 101.195Z" fill="#1D1A22"/>
<path d="M297.034 69.3503L300.39 66.8366C300.855 66.4919 301.195 66.1391 301.412 65.7783C301.628 65.4094 301.737 65.0125 301.737 64.5876C301.737 64.0504 301.584 63.6294 301.28 63.3248C300.975 63.0121 300.554 62.8557 300.017 62.8557C299.512 62.8557 299.099 63.0121 298.778 63.3248C298.457 63.6375 298.233 64.0945 298.105 64.6958H296.782C296.814 64.0464 296.974 63.4891 297.263 63.0241C297.559 62.551 297.944 62.1902 298.417 61.9417C298.898 61.6931 299.431 61.5688 300.017 61.5688C300.642 61.5688 301.183 61.6971 301.64 61.9537C302.105 62.2022 302.466 62.551 302.723 63C302.979 63.449 303.108 63.9782 303.108 64.5876C303.108 65.213 302.947 65.7943 302.627 66.3315C302.306 66.8687 301.821 67.3738 301.171 67.8469L298.201 69.9757V70.0959H302.915V71.3828H297.034V69.3503Z" fill="black"/>
<path d="M299.922 87.6646C295.772 87.6646 292.405 91.0321 292.405 95.1814C292.405 99.3307 295.772 102.698 299.922 102.698C304.071 102.698 307.438 99.3307 307.438 95.1814C307.438 91.0321 304.071 87.6646 299.922 87.6646ZM299.922 101.195C296.599 101.195 293.908 98.5038 293.908 95.1814C293.908 91.8589 296.599 89.1679 299.922 89.1679C303.244 89.1679 305.935 91.8589 305.935 95.1814C305.935 98.5038 303.244 101.195 299.922 101.195Z" fill="#1D1A22"/>
<path d="M412.216 61.7613V70.0959H414.574V71.3828H408.248V70.0959H410.845V62.3385L411.23 62.5671L408.248 64.5034V63.0361L410.268 61.7613H412.216Z" fill="black"/>
<path d="M411.171 87.6646C407.022 87.6646 403.654 91.0321 403.654 95.1814C403.654 99.3307 407.022 102.698 411.171 102.698C415.32 102.698 418.688 99.3307 418.688 95.1814C418.688 91.0321 415.32 87.6646 411.171 87.6646ZM411.171 101.195C407.849 101.195 405.158 98.5038 405.158 95.1814C405.158 91.8589 407.849 89.1679 411.171 89.1679C414.494 89.1679 417.185 91.8589 417.185 95.1814C417.185 98.5038 414.494 101.195 411.171 101.195Z" fill="#1D1A22"/>
<path d="M21.8156 25.105C21.9359 25.5139 22.1524 25.8266 22.4651 26.0431C22.7778 26.2596 23.1707 26.3678 23.6437 26.3678C24.1649 26.3678 24.5738 26.2396 24.8705 25.983C25.1751 25.7264 25.3275 25.3736 25.3275 24.9246C25.3275 24.5879 25.2192 24.3153 25.0028 24.1068C24.7863 23.8903 24.4776 23.75 24.0767 23.6858L22.9822 23.5295C22.1403 23.3852 21.4989 23.0805 21.0579 22.6154C20.625 22.1424 20.4085 21.513 20.4085 20.7272C20.4085 20.1339 20.5448 19.6167 20.8174 19.1757C21.09 18.7347 21.4708 18.394 21.9599 18.1534C22.4571 17.9129 23.0384 17.7926 23.7039 17.7926C24.3693 17.7926 24.9466 17.9129 25.4357 18.1534C25.9248 18.386 26.3097 18.7227 26.5903 19.1637C26.879 19.5967 27.0393 20.1259 27.0714 20.7513H25.5921C25.4718 20.2622 25.2513 19.8893 24.9306 19.6328C24.6099 19.3762 24.201 19.2479 23.7039 19.2479C23.1586 19.2479 22.7297 19.3802 22.417 19.6448C22.1043 19.9014 21.9479 20.2582 21.9479 20.7152C21.9479 21.0439 22.0562 21.3165 22.2726 21.533C22.4891 21.7495 22.7978 21.8898 23.1987 21.954L24.3052 22.1103C25.1471 22.2466 25.7845 22.5513 26.2175 23.0244C26.6505 23.4974 26.8669 24.1228 26.8669 24.9006C26.8669 25.4939 26.7346 26.0111 26.4701 26.452C26.2055 26.885 25.8286 27.2218 25.3395 27.4623C24.8584 27.7028 24.2932 27.8231 23.6437 27.8231C22.9862 27.8231 22.413 27.7149 21.9239 27.4984C21.4348 27.2819 21.0499 26.9732 20.7693 26.5723C20.4886 26.1634 20.3323 25.6743 20.3002 25.105H21.8156ZM29.4791 17.9971L30.0925 23.5896L30.2489 26.4039H30.4172L31.0547 20.3423H33.0271L33.6164 26.4039H33.7848L33.9532 23.5896L34.5786 17.9971H35.9496L34.8552 27.6187H32.7024L32.077 21.4127H31.9206L31.2471 27.6187H29.1063L28.0118 17.9971H29.4791ZM36.7337 27.6187L39.1151 17.9971H41.6888L44.0702 27.6187H42.4465L40.438 19.1637H40.2817L38.2491 27.6187H36.7337ZM38.2612 24.4916V23.0123H42.5428V24.4916H38.2612ZM48.0414 27.6187V19.4884H45.2271V17.9971H52.4192V19.4884H49.6049V27.6187H48.0414ZM57.4368 27.8231C56.2742 27.8231 55.3962 27.4062 54.8029 26.5723C54.2176 25.7304 53.9249 24.4756 53.9249 22.8079C53.9249 21.1401 54.2256 19.8893 54.827 19.0555C55.4363 18.2136 56.3424 17.7926 57.5451 17.7926C58.2025 17.7926 58.7718 17.9329 59.2529 18.2136C59.734 18.4862 60.1108 18.8911 60.3834 19.4283C60.656 19.9575 60.8164 20.6029 60.8645 21.3646H59.4213C59.301 20.6751 59.0845 20.1539 58.7718 19.8011C58.4671 19.4403 58.0582 19.2599 57.5451 19.2599C56.8475 19.2599 56.3303 19.5486 55.9936 20.1259C55.6648 20.7032 55.5005 21.5972 55.5005 22.8079C55.5005 24.0186 55.6568 24.9126 55.9695 25.4899C56.2822 26.0672 56.7713 26.3558 57.4368 26.3558C57.9179 26.3558 58.3068 26.1915 58.6034 25.8627C58.9001 25.526 59.1045 25.0409 59.2168 24.4075H60.66C60.6119 25.1291 60.4516 25.7465 60.179 26.2596C59.9144 26.7647 59.5495 27.1536 59.0845 27.4262C58.6195 27.6908 58.0702 27.8231 57.4368 27.8231ZM62.4905 27.6187V17.9971H64.066V22.0502H67.2652V17.9971H68.8407V27.6187H67.2652V23.5295H64.066V27.6187H62.4905ZM80.7641 25.105C80.8844 25.5139 81.1009 25.8266 81.4136 26.0431C81.7263 26.2596 82.1191 26.3678 82.5922 26.3678C83.1134 26.3678 83.5223 26.2396 83.819 25.983C84.1236 25.7264 84.276 25.3736 84.276 24.9246C84.276 24.5879 84.1677 24.3153 83.9512 24.1068C83.7348 23.8903 83.4261 23.75 83.0252 23.6858L81.9307 23.5295C81.0888 23.3852 80.4474 23.0805 80.0064 22.6154C79.5734 22.1424 79.357 21.513 79.357 20.7272C79.357 20.1339 79.4933 19.6167 79.7659 19.1757C80.0385 18.7347 80.4193 18.394 80.9084 18.1534C81.4055 17.9129 81.9868 17.7926 82.6523 17.7926C83.3178 17.7926 83.8951 17.9129 84.3842 18.1534C84.8733 18.386 85.2582 18.7227 85.5388 19.1637C85.8275 19.5967 85.9878 20.1259 86.0199 20.7513H84.5406C84.4203 20.2622 84.1998 19.8893 83.8791 19.6328C83.5584 19.3762 83.1495 19.2479 82.6523 19.2479C82.1071 19.2479 81.6782 19.3802 81.3655 19.6448C81.0528 19.9014 80.8964 20.2582 80.8964 20.7152C80.8964 21.0439 81.0046 21.3165 81.2211 21.533C81.4376 21.7495 81.7463 21.8898 82.1472 21.954L83.2537 22.1103C84.0956 22.2466 84.733 22.5513 85.166 23.0244C85.5989 23.4974 85.8154 24.1228 85.8154 24.9006C85.8154 25.4939 85.6831 26.0111 85.4185 26.452C85.1539 26.885 84.7771 27.2218 84.288 27.4623C83.8069 27.7028 83.2417 27.8231 82.5922 27.8231C81.9347 27.8231 81.3614 27.7149 80.8724 27.4984C80.3833 27.2819 79.9984 26.9732 79.7178 26.5723C79.4371 26.1634 79.2808 25.6743 79.2487 25.105H80.7641ZM90.1475 27.6187V19.4884H87.3332V17.9971H94.5253V19.4884H91.711V27.6187H90.1475ZM96.7045 27.6187V17.9971H102.586V19.4283H98.28V22.1103H101.984V23.4694H98.28V26.1874H102.465V27.6187H96.7045ZM104.981 27.6187V17.9971H108.385C109.01 17.9971 109.556 18.1174 110.021 18.3579C110.486 18.5904 110.843 18.9232 111.091 19.3561C111.348 19.7891 111.476 20.2982 111.476 20.8836C111.476 21.4609 111.348 21.966 111.091 22.399C110.843 22.8239 110.486 23.1526 110.021 23.3852C109.556 23.6177 109.01 23.7339 108.385 23.7339H106.557V27.6187H104.981ZM106.557 22.3148H108.421C108.886 22.3148 109.247 22.1905 109.504 21.9419C109.768 21.6854 109.9 21.3366 109.9 20.8956C109.9 20.4546 109.768 20.1098 109.504 19.8613C109.247 19.6047 108.886 19.4764 108.421 19.4764H106.557V22.3148Z" fill="black"/>
<line x1="18.7617" y1="41.8092" x2="469.833" y2="41.8092" stroke="#A7A7A7" stroke-width="0.751684" stroke-dasharray="1.5 1.5"/>
</svg>
