<svg width="460" height="187" viewBox="0 0 460 187" fill="none" xmlns="http://www.w3.org/2000/svg">
<rect y="0.0107422" width="459.834" height="186.764" rx="8.48925" fill="white"/>
<path d="M19.5466 26.71V17.6548H22.7499C23.3384 17.6548 23.8516 17.7679 24.2892 17.9943C24.7269 18.2132 25.0627 18.5263 25.2966 18.9338C25.5381 19.3413 25.6588 19.8205 25.6588 20.3713C25.6588 20.9146 25.5381 21.39 25.2966 21.7975C25.0627 22.1975 24.7269 22.5068 24.2892 22.7257C23.8516 22.9445 23.3384 23.0539 22.7499 23.0539H21.0294V26.71H19.5466ZM21.0294 21.7183H22.7838C23.2215 21.7183 23.5611 21.6013 23.8025 21.3674C24.0515 21.1259 24.1761 20.7977 24.1761 20.3826C24.1761 19.9676 24.0515 19.6431 23.8025 19.4092C23.5611 19.1677 23.2215 19.047 22.7838 19.047H21.0294V21.7183ZM27.1099 26.71V25.3064H29.3624V19.0583H27.1099V17.6548H33.0863V19.0583H30.8338V25.3064H33.0863V26.71H27.1099ZM38.2047 26.9024C37.1105 26.9024 36.2843 26.51 35.7259 25.7252C35.175 24.9329 34.8996 23.7519 34.8996 22.1824C34.8996 20.6128 35.1825 19.4356 35.7485 18.6508C36.322 17.8585 37.1747 17.4623 38.3066 17.4623C38.9254 17.4623 39.4611 17.5944 39.9139 17.8585C40.3666 18.1151 40.7213 18.4961 40.9779 19.0017C41.2344 19.4998 41.3854 20.1072 41.4306 20.8241H40.0724C39.9592 20.1751 39.7554 19.6846 39.4611 19.3526C39.1744 19.013 38.7895 18.8433 38.3066 18.8433C37.6501 18.8433 37.1634 19.1149 36.8464 19.6582C36.5371 20.2015 36.3824 21.0429 36.3824 22.1824C36.3824 23.3218 36.5295 24.1632 36.8238 24.7065C37.1181 25.2498 37.5784 25.5215 38.2047 25.5215C38.6575 25.5215 39.0235 25.3668 39.3027 25.0574C39.5819 24.7405 39.7743 24.2839 39.8799 23.6878H41.2382C41.1929 24.3669 41.042 24.948 40.7854 25.4309C40.5364 25.9063 40.1931 26.2723 39.7554 26.5289C39.3178 26.7779 38.8009 26.9024 38.2047 26.9024ZM43.4476 17.6548H44.9191V26.71H43.4476V17.6548ZM47.5225 26.71L44.5343 22.3295L47.7375 17.6548H49.4014L46.2434 22.2729L49.2769 26.71H47.5225ZM61.9813 26.9024C60.8871 26.9024 60.0608 26.51 59.5024 25.7252C58.9515 24.9329 58.6761 23.7519 58.6761 22.1824C58.6761 20.6128 58.9591 19.4356 59.525 18.6508C60.0985 17.8585 60.9512 17.4623 62.0831 17.4623C62.7019 17.4623 63.2377 17.5944 63.6904 17.8585C64.1432 18.1151 64.4978 18.4961 64.7544 19.0017C65.011 19.4998 65.1619 20.1072 65.2072 20.8241H63.8489C63.7357 20.1751 63.532 19.6846 63.2377 19.3526C62.9509 19.013 62.5661 18.8433 62.0831 18.8433C61.4266 18.8433 60.9399 19.1149 60.623 19.6582C60.3136 20.2015 60.1589 21.0429 60.1589 22.1824C60.1589 23.3218 60.306 24.1632 60.6003 24.7065C60.8946 25.2498 61.3549 25.5215 61.9813 25.5215C62.434 25.5215 62.8 25.3668 63.0792 25.0574C63.3584 24.7405 63.5508 24.2839 63.6565 23.6878H65.0147C64.9695 24.3669 64.8186 24.948 64.562 25.4309C64.313 25.9063 63.9696 26.2723 63.532 26.5289C63.0943 26.7779 62.5774 26.9024 61.9813 26.9024ZM69.7257 26.9024C68.6089 26.9024 67.7637 26.51 67.1902 25.7252C66.6243 24.9329 66.3413 23.7519 66.3413 22.1824C66.3413 20.6128 66.6243 19.4356 67.1902 18.6508C67.7637 17.8585 68.6089 17.4623 69.7257 17.4623C70.85 17.4623 71.6952 17.8585 72.2611 18.6508C72.8271 19.4356 73.11 20.6128 73.11 22.1824C73.11 23.7519 72.8271 24.9329 72.2611 25.7252C71.6952 26.51 70.85 26.9024 69.7257 26.9024ZM69.7257 25.5215C70.3746 25.5215 70.8538 25.2498 71.1632 24.7065C71.4726 24.1632 71.6273 23.3218 71.6273 22.1824C71.6273 21.0429 71.4726 20.2015 71.1632 19.6582C70.8538 19.1149 70.3746 18.8433 69.7257 18.8433C69.0767 18.8433 68.5975 19.1149 68.2881 19.6582C67.9788 20.2015 67.8241 21.0429 67.8241 22.1824C67.8241 23.3218 67.9788 24.1632 68.2881 24.7065C68.5975 25.2498 69.0767 25.5215 69.7257 25.5215ZM75.6024 26.71V17.6548H77.0739V25.3064H80.8884V26.71H75.6024ZM85.5767 26.9024C84.4599 26.9024 83.6147 26.51 83.0412 25.7252C82.4753 24.9329 82.1923 23.7519 82.1923 22.1824C82.1923 20.6128 82.4753 19.4356 83.0412 18.6508C83.6147 17.8585 84.4599 17.4623 85.5767 17.4623C86.701 17.4623 87.5462 17.8585 88.1121 18.6508C88.6781 19.4356 88.9611 20.6128 88.9611 22.1824C88.9611 23.7519 88.6781 24.9329 88.1121 25.7252C87.5462 26.51 86.701 26.9024 85.5767 26.9024ZM85.5767 25.5215C86.2256 25.5215 86.7048 25.2498 87.0142 24.7065C87.3236 24.1632 87.4783 23.3218 87.4783 22.1824C87.4783 21.0429 87.3236 20.2015 87.0142 19.6582C86.7048 19.1149 86.2256 18.8433 85.5767 18.8433C84.9277 18.8433 84.4486 19.1149 84.1392 19.6582C83.8298 20.2015 83.6751 21.0429 83.6751 22.1824C83.6751 23.3218 83.8298 24.1632 84.1392 24.7065C84.4486 25.2498 84.9277 25.5215 85.5767 25.5215ZM90.7177 26.71V17.6548H93.921C94.5096 17.6548 95.0227 17.7642 95.4604 17.983C95.8981 18.2018 96.2376 18.5112 96.4791 18.9112C96.7206 19.3111 96.8413 19.7865 96.8413 20.3374C96.8413 20.8429 96.7168 21.2882 96.4678 21.673C96.2263 22.0579 95.8867 22.3597 95.4491 22.5785C95.0114 22.7898 94.502 22.8955 93.921 22.8955H92.2005V26.71H90.7177ZM95.3925 26.71L93.0042 22.6464H94.5888L97.0677 26.71H95.3925ZM92.2005 21.6277H93.921C94.3587 21.6277 94.7058 21.5108 94.9624 21.2768C95.2265 21.0429 95.3585 20.7298 95.3585 20.3374C95.3585 19.945 95.2265 19.6318 94.9624 19.3979C94.7058 19.164 94.3587 19.047 93.921 19.047H92.2005V21.6277Z" fill="black"/>
<rect x="28.269" y="66.979" width="403.297" height="26.2557" rx="7.29973" fill="url(#paint0_linear_232_933)" fill-opacity="0.4"/>
<g filter="url(#filter0_d_232_933)">
<rect x="179.694" y="82.252" width="16.9841" height="16.9841" transform="rotate(45 179.694 82.252)" fill="white"/>
<rect x="179.694" y="85.4043" width="12.5258" height="12.5258" transform="rotate(45 179.694 85.4043)" fill="#DEF793"/>
</g>
<path d="M31.9067 103.464C31.237 103.464 30.7323 103.221 30.3928 102.735C30.0579 102.244 29.8905 101.509 29.8905 100.528C29.8905 99.5467 30.0579 98.8133 30.3928 98.3275C30.7276 97.837 31.2323 97.5918 31.9067 97.5918C32.5764 97.5918 33.0787 97.837 33.4135 98.3275C33.7531 98.8133 33.9229 99.5467 33.9229 100.528C33.9229 101.509 33.7555 102.244 33.4206 102.735C33.0858 103.221 32.5811 103.464 31.9067 103.464ZM31.9067 102.806C32.3547 102.806 32.6849 102.622 32.8971 102.254C33.1141 101.881 33.2225 101.306 33.2225 100.528C33.2225 99.7495 33.1141 99.1765 32.8971 98.8086C32.6849 98.436 32.3547 98.2497 31.9067 98.2497C31.4587 98.2497 31.1262 98.436 30.9092 98.8086C30.697 99.1765 30.5909 99.7495 30.5909 100.528C30.5909 101.306 30.697 101.881 30.9092 102.254C31.1262 102.622 31.4587 102.806 31.9067 102.806ZM30.3928 101.263L33.3994 98.9925V99.7919L30.3928 102.063V101.263ZM36.8601 100.11C36.6243 100.11 36.4097 100.054 36.2164 99.9405C36.023 99.8273 35.8697 99.6764 35.7565 99.4877C35.6433 99.2944 35.5868 99.0821 35.5868 98.851C35.5868 98.6105 35.6433 98.3959 35.7565 98.2073C35.8697 98.0186 36.023 97.8701 36.2164 97.7616C36.4097 97.6484 36.6243 97.5918 36.8601 97.5918C37.096 97.5918 37.3105 97.6484 37.5039 97.7616C37.6973 97.8701 37.8506 98.0186 37.9637 98.2073C38.0769 98.3959 38.1335 98.6105 38.1335 98.851C38.1335 99.0821 38.0769 99.2944 37.9637 99.4877C37.8506 99.6764 37.6973 99.8273 37.5039 99.9405C37.3153 100.054 37.1007 100.11 36.8601 100.11ZM36.8601 99.516C36.9828 99.516 37.0936 99.4877 37.1926 99.4311C37.2917 99.3698 37.3695 99.2897 37.4261 99.1906C37.4874 99.0869 37.5181 98.9737 37.5181 98.851C37.5181 98.7237 37.4874 98.6105 37.4261 98.5115C37.3695 98.4077 37.2917 98.3275 37.1926 98.2709C37.0936 98.2096 36.9828 98.179 36.8601 98.179C36.7375 98.179 36.6267 98.2096 36.5276 98.2709C36.4286 98.3275 36.3484 98.4077 36.2871 98.5115C36.2305 98.6105 36.2022 98.7237 36.2022 98.851C36.2022 98.9737 36.2305 99.0869 36.2871 99.1906C36.3484 99.2897 36.4286 99.3698 36.5276 99.4311C36.6267 99.4877 36.7375 99.516 36.8601 99.516Z" fill="#464646"/>
<path d="M423.847 101.865C423.847 102.181 423.77 102.461 423.614 102.707C423.463 102.947 423.253 103.133 422.984 103.265C422.72 103.398 422.414 103.464 422.065 103.464C421.687 103.464 421.362 103.395 421.088 103.258C420.815 103.117 420.6 102.914 420.445 102.65C420.294 102.386 420.211 102.07 420.197 101.702H420.876C420.919 102.056 421.044 102.329 421.251 102.523C421.459 102.711 421.727 102.806 422.058 102.806C422.274 102.806 422.463 102.766 422.623 102.685C422.784 102.6 422.909 102.485 422.998 102.339C423.088 102.188 423.133 102.013 423.133 101.815C423.133 101.509 423.039 101.263 422.85 101.079C422.666 100.896 422.418 100.804 422.107 100.804H421.428V100.153H422.107C422.428 100.153 422.685 100.068 422.878 99.8981C423.072 99.7236 423.168 99.4948 423.168 99.2118C423.168 98.9241 423.069 98.693 422.871 98.5185C422.678 98.3393 422.416 98.2497 422.086 98.2497C421.742 98.2497 421.463 98.3511 421.251 98.5539C421.039 98.752 420.902 99.0421 420.841 99.4241H420.162C420.185 99.0326 420.277 98.7025 420.438 98.4337C420.598 98.1601 420.817 97.9526 421.095 97.8111C421.378 97.6649 421.711 97.5918 422.093 97.5918C422.447 97.5918 422.756 97.6578 423.02 97.7899C423.288 97.9172 423.496 98.0988 423.642 98.3346C423.793 98.5657 423.869 98.8416 423.869 99.1623C423.869 99.4736 423.788 99.7401 423.628 99.9617C423.468 100.183 423.251 100.332 422.977 100.407V100.514C423.241 100.589 423.451 100.747 423.607 100.988C423.767 101.228 423.847 101.52 423.847 101.865ZM426.678 103.464C426.315 103.464 425.99 103.383 425.702 103.223C425.419 103.063 425.198 102.839 425.037 102.551C424.877 102.263 424.797 101.933 424.797 101.561C424.797 101.278 424.849 100.995 424.952 100.712C425.061 100.424 425.228 100.115 425.455 99.7849L426.884 97.6979H427.669L426.296 99.6787L426.41 99.7849C426.466 99.7613 426.532 99.7424 426.608 99.7283C426.688 99.7141 426.77 99.707 426.855 99.707C427.19 99.707 427.485 99.7872 427.74 99.9476C427.999 100.108 428.202 100.327 428.348 100.605C428.499 100.879 428.574 101.197 428.574 101.561C428.574 101.933 428.492 102.263 428.327 102.551C428.166 102.839 427.945 103.063 427.662 103.223C427.379 103.383 427.051 103.464 426.678 103.464ZM425.504 101.561C425.504 101.806 425.554 102.023 425.653 102.211C425.752 102.395 425.889 102.542 426.063 102.65C426.242 102.754 426.45 102.806 426.686 102.806C426.921 102.806 427.127 102.754 427.301 102.65C427.48 102.542 427.619 102.395 427.718 102.211C427.817 102.023 427.867 101.806 427.867 101.561C427.867 101.311 427.817 101.094 427.718 100.91C427.619 100.721 427.48 100.575 427.301 100.471C427.127 100.367 426.921 100.315 426.686 100.315C426.45 100.315 426.242 100.367 426.063 100.471C425.889 100.575 425.752 100.721 425.653 100.91C425.554 101.094 425.504 101.311 425.504 101.561ZM431.356 103.464C430.686 103.464 430.182 103.221 429.842 102.735C429.507 102.244 429.34 101.509 429.34 100.528C429.34 99.5467 429.507 98.8133 429.842 98.3275C430.177 97.837 430.682 97.5918 431.356 97.5918C432.026 97.5918 432.528 97.837 432.863 98.3275C433.202 98.8133 433.372 99.5467 433.372 100.528C433.372 101.509 433.205 102.244 432.87 102.735C432.535 103.221 432.03 103.464 431.356 103.464ZM431.356 102.806C431.804 102.806 432.134 102.622 432.346 102.254C432.563 101.881 432.672 101.306 432.672 100.528C432.672 99.7495 432.563 99.1765 432.346 98.8086C432.134 98.436 431.804 98.2497 431.356 98.2497C430.908 98.2497 430.575 98.436 430.359 98.8086C430.146 99.1765 430.04 99.7495 430.04 100.528C430.04 101.306 430.146 101.881 430.359 102.254C430.575 102.622 430.908 102.806 431.356 102.806ZM429.842 101.263L432.849 98.9925V99.7919L429.842 102.063V101.263ZM436.027 100.11C435.791 100.11 435.576 100.054 435.383 99.9405C435.189 99.8273 435.036 99.6764 434.923 99.4877C434.81 99.2944 434.753 99.0821 434.753 98.851C434.753 98.6105 434.81 98.3959 434.923 98.2073C435.036 98.0186 435.189 97.8701 435.383 97.7616C435.576 97.6484 435.791 97.5918 436.027 97.5918C436.262 97.5918 436.477 97.6484 436.67 97.7616C436.864 97.8701 437.017 98.0186 437.13 98.2073C437.243 98.3959 437.3 98.6105 437.3 98.851C437.3 99.0821 437.243 99.2944 437.13 99.4877C437.017 99.6764 436.864 99.8273 436.67 99.9405C436.482 100.054 436.267 100.11 436.027 100.11ZM436.027 99.516C436.149 99.516 436.26 99.4877 436.359 99.4311C436.458 99.3698 436.536 99.2897 436.592 99.1906C436.654 99.0869 436.684 98.9737 436.684 98.851C436.684 98.7237 436.654 98.6105 436.592 98.5115C436.536 98.4077 436.458 98.3275 436.359 98.2709C436.26 98.2096 436.149 98.179 436.027 98.179C435.904 98.179 435.793 98.2096 435.694 98.2709C435.595 98.3275 435.515 98.4077 435.453 98.5115C435.397 98.6105 435.369 98.7237 435.369 98.851C435.369 98.9737 435.397 99.0869 435.453 99.1906C435.515 99.2897 435.595 99.3698 435.694 99.4311C435.793 99.4877 435.904 99.516 436.027 99.516Z" fill="#464646"/>
<line x1="17.6572" y1="39.3592" x2="442.177" y2="39.3592" stroke="#A7A7A7" stroke-width="0.707438" stroke-dasharray="1.41 1.41"/>
<path d="M21.3713 133.332H20.2818V128.409H18.9547V127.389H20.2818V126.745C20.2818 126.131 20.4568 125.649 20.8067 125.299C21.1633 124.949 21.6552 124.774 22.2825 124.774C22.8767 124.774 23.3488 124.926 23.6987 125.23C24.0553 125.534 24.2501 125.956 24.2831 126.498H23.2927C23.2002 126.267 23.0682 126.092 22.8965 125.973C22.7314 125.847 22.5268 125.785 22.2825 125.785C21.9919 125.785 21.7674 125.874 21.609 126.052C21.4505 126.23 21.3713 126.484 21.3713 126.815V127.389H23.6294V128.409H21.3713V133.332ZM26.0281 127.389H28.9202V132.311H30.7128V133.332H26.0281V132.311H27.8307V128.409H26.0281V127.389ZM28.2962 126.508C28.0387 126.508 27.8373 126.438 27.692 126.3C27.5468 126.154 27.4741 125.956 27.4741 125.705C27.4741 125.454 27.5468 125.26 27.692 125.121C27.8373 124.976 28.0387 124.903 28.2962 124.903C28.5537 124.903 28.7551 124.976 28.9003 125.121C29.0456 125.26 29.1182 125.454 29.1182 125.705C29.1182 125.956 29.0456 126.154 28.9003 126.3C28.7551 126.438 28.5537 126.508 28.2962 126.508ZM32.4678 127.389H34.7853V127.825H35.0825C35.2013 127.633 35.3631 127.488 35.5678 127.389C35.7724 127.283 36.0068 127.231 36.2709 127.231C36.7463 127.231 37.1227 127.399 37.4 127.736C37.6773 128.066 37.816 128.521 37.816 129.102V129.964H36.6869V129.261C36.6869 128.594 36.4162 128.261 35.8748 128.261C35.5314 128.261 35.2739 128.416 35.1023 128.726C34.9372 129.03 34.8547 129.485 34.8547 130.093V132.311H36.6968V133.332H32.646V132.311H33.7652V128.409H32.4678V127.389ZM40.5515 131.509C40.6439 131.82 40.8123 132.057 41.0566 132.222C41.3009 132.387 41.6145 132.47 41.9975 132.47C42.3936 132.47 42.6974 132.401 42.9086 132.262C43.1199 132.117 43.2256 131.912 43.2256 131.648C43.2256 131.47 43.1397 131.321 42.9681 131.202C42.7964 131.083 42.5422 131.001 42.2055 130.955L41.4825 130.846C40.8354 130.747 40.3567 130.555 40.0464 130.271C39.736 129.987 39.5809 129.591 39.5809 129.083C39.5809 128.508 39.7921 128.056 40.2147 127.726C40.6439 127.396 41.2315 127.231 41.9777 127.231C42.737 127.231 43.3378 127.415 43.7802 127.785C44.2226 128.155 44.457 128.67 44.4834 129.33H43.493C43.4006 128.98 43.2256 128.713 42.9681 128.528C42.7106 128.343 42.3738 128.251 41.9579 128.251C41.5419 128.251 41.2216 128.323 40.9972 128.469C40.7727 128.607 40.6604 128.809 40.6604 129.073C40.6604 129.251 40.7462 129.4 40.9179 129.518C41.0896 129.637 41.3438 129.72 41.6805 129.766L42.4035 129.875C43.0572 129.974 43.5359 130.166 43.8396 130.449C44.15 130.733 44.3051 131.13 44.3051 131.638C44.3051 132.021 44.2094 132.351 44.0179 132.628C43.833 132.906 43.5689 133.12 43.2256 133.272C42.8822 133.417 42.4696 133.49 41.9876 133.49C41.2481 133.49 40.6637 133.315 40.2345 132.965C39.812 132.615 39.5809 132.13 39.5412 131.509H40.5515ZM48.5955 125.844V127.389H51.2697V128.409H48.5955V131.38C48.5955 131.73 48.6682 132.001 48.8134 132.193C48.9587 132.377 49.17 132.47 49.4473 132.47C49.7378 132.47 49.9623 132.371 50.1208 132.173C50.2859 131.968 50.408 131.661 50.4872 131.252H51.4479C51.4149 131.978 51.2234 132.533 50.8735 132.916C50.5236 133.299 50.0349 133.49 49.4077 133.49C48.8002 133.49 48.3314 133.308 48.0013 132.945C47.6712 132.582 47.5061 132.074 47.5061 131.42V128.409H46.1988V127.389H47.5061V125.844H48.5955ZM62.8713 133.49C62.3298 133.49 61.861 133.365 61.4649 133.114C61.0687 132.863 60.7617 132.506 60.5438 132.044C60.3259 131.575 60.217 131.024 60.217 130.39C60.217 129.743 60.3292 129.185 60.5537 128.716C60.7782 128.241 61.0951 127.874 61.5045 127.617C61.9205 127.359 62.4091 127.231 62.9703 127.231C63.4589 127.231 63.8881 127.333 64.2578 127.538C64.6276 127.736 64.9181 128.02 65.1294 128.389C65.3407 128.753 65.4562 129.185 65.4761 129.687H64.4757C64.3899 129.231 64.2116 128.878 63.9409 128.627C63.6768 128.376 63.3401 128.251 62.9307 128.251C62.4091 128.251 62.0063 128.439 61.7224 128.815C61.4385 129.192 61.2965 129.717 61.2965 130.39C61.2965 131.044 61.4352 131.555 61.7125 131.925C61.9898 132.288 62.3761 132.47 62.8713 132.47C63.241 132.47 63.5513 132.361 63.8023 132.143C64.0598 131.919 64.238 131.608 64.3371 131.212H65.3374C65.3044 131.674 65.1789 132.077 64.961 132.42C64.7431 132.757 64.4526 133.021 64.0895 133.213C63.7329 133.398 63.3269 133.49 62.8713 133.49ZM69.6674 133.49C69.1194 133.49 68.644 133.365 68.2412 133.114C67.8385 132.856 67.5248 132.493 67.3003 132.024C67.0825 131.555 66.9735 131.001 66.9735 130.36C66.9735 129.72 67.0825 129.165 67.3003 128.696C67.5248 128.228 67.8385 127.868 68.2412 127.617C68.644 127.359 69.1194 127.231 69.6674 127.231C70.2221 127.231 70.6975 127.359 71.0936 127.617C71.4964 127.868 71.8067 128.228 72.0246 128.696C72.2491 129.165 72.3614 129.72 72.3614 130.36C72.3614 131.001 72.2491 131.555 72.0246 132.024C71.8067 132.493 71.4964 132.856 71.0936 133.114C70.6975 133.365 70.2221 133.49 69.6674 133.49ZM69.6674 132.47C70.1758 132.47 70.572 132.285 70.8559 131.915C71.1398 131.545 71.2818 131.027 71.2818 130.36C71.2818 129.693 71.1398 129.175 70.8559 128.805C70.572 128.436 70.1758 128.251 69.6674 128.251C69.159 128.251 68.7629 128.436 68.4789 128.805C68.195 129.175 68.0531 129.693 68.0531 130.36C68.0531 131.027 68.195 131.545 68.4789 131.915C68.7629 132.285 69.159 132.47 69.6674 132.47ZM74.4233 124.933H77.3153V132.311H79.108V133.332H74.4233V132.311H76.2259V125.953H74.4233V124.933ZM83.5371 133.49C82.989 133.49 82.5136 133.365 82.1109 133.114C81.7081 132.856 81.3945 132.493 81.17 132.024C80.9521 131.555 80.8432 131.001 80.8432 130.36C80.8432 129.72 80.9521 129.165 81.17 128.696C81.3945 128.228 81.7081 127.868 82.1109 127.617C82.5136 127.359 82.989 127.231 83.5371 127.231C84.0917 127.231 84.5671 127.359 84.9633 127.617C85.366 127.868 85.6764 128.228 85.8943 128.696C86.1187 129.165 86.231 129.72 86.231 130.36C86.231 131.001 86.1187 131.555 85.8943 132.024C85.6764 132.493 85.366 132.856 84.9633 133.114C84.5671 133.365 84.0917 133.49 83.5371 133.49ZM83.5371 132.47C84.0455 132.47 84.4417 132.285 84.7256 131.915C85.0095 131.545 85.1514 131.027 85.1514 130.36C85.1514 129.693 85.0095 129.175 84.7256 128.805C84.4417 128.436 84.0455 128.251 83.5371 128.251C83.0287 128.251 82.6325 128.436 82.3486 128.805C82.0647 129.175 81.9227 129.693 81.9227 130.36C81.9227 131.027 82.0647 131.545 82.3486 131.915C82.6325 132.285 83.0287 132.47 83.5371 132.47ZM87.9463 127.389H90.2639V127.825H90.561C90.6799 127.633 90.8417 127.488 91.0463 127.389C91.251 127.283 91.4854 127.231 91.7495 127.231C92.2249 127.231 92.6013 127.399 92.8786 127.736C93.1559 128.066 93.2946 128.521 93.2946 129.102V129.964H92.1655V129.261C92.1655 128.594 91.8948 128.261 91.3534 128.261C91.01 128.261 90.7525 128.416 90.5808 128.726C90.4158 129.03 90.3332 129.485 90.3332 130.093V132.311H92.1754V133.332H88.1246V132.311H89.2438V128.409H87.9463V127.389Z" fill="black"/>
<rect x="20.4868" y="145.943" width="28.2975" height="28.2975" rx="2.82975" fill="#D9D9D9"/>
<path d="M37.2996 159.501V160.811H32.0436V159.501H37.2996Z" fill="black"/>
<rect x="51.6143" y="145.943" width="74.9884" height="28.2975" rx="2.82975" fill="#E6E6E6"/>
<path d="M97.0395 156.037V163.688H99.2241V165.092H93.1344V163.688H95.5567V156.772L95.9189 156.976L93.1344 158.787V157.202L94.9907 156.037H97.0395ZM101.083 162.941L104.297 160.677C104.705 160.383 105.003 160.081 105.191 159.772C105.388 159.455 105.486 159.108 105.486 158.731C105.486 158.263 105.35 157.897 105.078 157.633C104.814 157.361 104.444 157.225 103.969 157.225C103.524 157.225 103.158 157.365 102.871 157.644C102.584 157.916 102.384 158.319 102.271 158.855H100.856C100.886 158.221 101.037 157.682 101.309 157.236C101.588 156.784 101.954 156.44 102.407 156.206C102.867 155.965 103.388 155.844 103.969 155.844C104.58 155.844 105.108 155.965 105.554 156.206C105.999 156.44 106.346 156.776 106.595 157.214C106.844 157.644 106.968 158.149 106.968 158.731C106.968 159.334 106.81 159.889 106.493 160.394C106.184 160.892 105.708 161.357 105.067 161.787L102.486 163.552V163.688H106.776V165.092H101.083V162.941ZM111.793 165.284C111.181 165.284 110.638 165.152 110.163 164.888C109.687 164.616 109.314 164.247 109.042 163.779C108.778 163.303 108.646 162.756 108.646 162.138C108.646 161.677 108.733 161.209 108.906 160.734C109.087 160.259 109.37 159.742 109.755 159.183L111.906 156.037H113.558L111.453 159.036L111.645 159.217C111.721 159.195 111.8 159.176 111.883 159.161C111.974 159.146 112.064 159.138 112.155 159.138C112.698 159.138 113.181 159.27 113.604 159.534C114.026 159.791 114.358 160.145 114.6 160.598C114.841 161.051 114.962 161.564 114.962 162.138C114.962 162.756 114.826 163.303 114.554 163.779C114.29 164.247 113.917 164.616 113.434 164.888C112.958 165.152 112.411 165.284 111.793 165.284ZM110.129 162.138C110.129 162.492 110.197 162.802 110.332 163.066C110.476 163.33 110.672 163.537 110.921 163.688C111.17 163.832 111.464 163.903 111.804 163.903C112.143 163.903 112.438 163.832 112.687 163.688C112.943 163.537 113.14 163.33 113.275 163.066C113.411 162.802 113.479 162.492 113.479 162.138C113.479 161.79 113.411 161.485 113.275 161.221C113.14 160.957 112.943 160.753 112.687 160.609C112.438 160.466 112.143 160.394 111.804 160.394C111.472 160.394 111.178 160.466 110.921 160.609C110.672 160.753 110.476 160.957 110.332 161.221C110.197 161.485 110.129 161.79 110.129 162.138Z" fill="black"/>
<rect x="129.433" y="145.943" width="28.2975" height="28.2975" rx="2.82975" fill="#D9D9D9"/>
<path d="M142.846 164.476V161.259H139.646V159.916H142.846V156.716H144.189V159.916H147.406V161.259H144.189V164.476H142.846Z" fill="black"/>
<rect x="253.294" y="148.056" width="35.3836" height="21.2301" rx="10.6151" fill="#E3E3E3"/>
<rect x="253.294" y="148.056" width="35.3836" height="21.2301" rx="10.6151" stroke="#939393" stroke-width="1.41534"/>
<rect x="258.662" y="153.01" width="11.3227" height="11.3227" rx="5.66137" fill="#939393"/>
<path d="M300.579 124.933H303.471V132.311H305.264V133.332H300.579V132.311H302.382V125.953H300.579V124.933ZM311.04 129.617V130.578L309.257 130.856C308.98 130.902 308.772 130.997 308.633 131.143C308.501 131.288 308.435 131.479 308.435 131.717C308.435 131.942 308.517 132.123 308.683 132.262C308.854 132.401 309.072 132.47 309.336 132.47C309.627 132.47 309.891 132.401 310.129 132.262C310.373 132.123 310.568 131.938 310.713 131.707C310.858 131.47 310.931 131.209 310.931 130.925V129.469C310.931 129.086 310.815 128.786 310.584 128.568C310.353 128.35 310.036 128.241 309.633 128.241C309.349 128.241 309.095 128.287 308.871 128.379C308.646 128.472 308.461 128.607 308.316 128.786C308.177 128.964 308.082 129.182 308.029 129.439H306.989C307.022 128.984 307.151 128.591 307.375 128.261C307.606 127.93 307.917 127.676 308.306 127.498C308.696 127.32 309.148 127.231 309.663 127.231C310.403 127.231 310.974 127.419 311.376 127.795C311.786 128.171 311.991 128.706 311.991 129.4V133.332H310.931V132.787H310.634C310.475 133.011 310.267 133.183 310.01 133.302C309.759 133.421 309.448 133.48 309.079 133.48C308.716 133.48 308.399 133.411 308.128 133.272C307.864 133.127 307.656 132.925 307.504 132.668C307.359 132.41 307.286 132.11 307.286 131.767C307.286 131.271 307.445 130.865 307.761 130.548C308.078 130.225 308.531 130.017 309.118 129.925L311.04 129.617ZM315.251 131.509C315.343 131.82 315.512 132.057 315.756 132.222C316 132.387 316.314 132.47 316.697 132.47C317.093 132.47 317.397 132.401 317.608 132.262C317.819 132.117 317.925 131.912 317.925 131.648C317.925 131.47 317.839 131.321 317.668 131.202C317.496 131.083 317.242 131.001 316.905 130.955L316.182 130.846C315.535 130.747 315.056 130.555 314.746 130.271C314.435 129.987 314.28 129.591 314.28 129.083C314.28 128.508 314.492 128.056 314.914 127.726C315.343 127.396 315.931 127.231 316.677 127.231C317.436 127.231 318.037 127.415 318.48 127.785C318.922 128.155 319.156 128.67 319.183 129.33H318.192C318.1 128.98 317.925 128.713 317.668 128.528C317.41 128.343 317.073 128.251 316.657 128.251C316.241 128.251 315.921 128.323 315.697 128.469C315.472 128.607 315.36 128.809 315.36 129.073C315.36 129.251 315.446 129.4 315.617 129.518C315.789 129.637 316.043 129.72 316.38 129.766L317.103 129.875C317.757 129.974 318.235 130.166 318.539 130.449C318.849 130.733 319.005 131.13 319.005 131.638C319.005 132.021 318.909 132.351 318.717 132.628C318.532 132.906 318.268 133.12 317.925 133.272C317.582 133.417 317.169 133.49 316.687 133.49C315.948 133.49 315.363 133.315 314.934 132.965C314.511 132.615 314.28 132.13 314.241 131.509H315.251ZM323.295 125.844V127.389H325.969V128.409H323.295V131.38C323.295 131.73 323.368 132.001 323.513 132.193C323.658 132.377 323.869 132.47 324.147 132.47C324.437 132.47 324.662 132.371 324.82 132.173C324.985 131.968 325.107 131.661 325.187 131.252H326.147C326.114 131.978 325.923 132.533 325.573 132.916C325.223 133.299 324.734 133.49 324.107 133.49C323.5 133.49 323.031 133.308 322.701 132.945C322.371 132.582 322.206 132.074 322.206 131.42V128.409H320.898V127.389H322.206V125.844H323.295ZM337.571 133.49C337.029 133.49 336.56 133.365 336.164 133.114C335.768 132.863 335.461 132.506 335.243 132.044C335.025 131.575 334.916 131.024 334.916 130.39C334.916 129.743 335.029 129.185 335.253 128.716C335.478 128.241 335.795 127.874 336.204 127.617C336.62 127.359 337.109 127.231 337.67 127.231C338.158 127.231 338.588 127.333 338.957 127.538C339.327 127.736 339.618 128.02 339.829 128.389C340.04 128.753 340.156 129.185 340.176 129.687H339.175C339.089 129.231 338.911 128.878 338.64 128.627C338.376 128.376 338.04 128.251 337.63 128.251C337.109 128.251 336.706 128.439 336.422 128.815C336.138 129.192 335.996 129.717 335.996 130.39C335.996 131.044 336.135 131.555 336.412 131.925C336.689 132.288 337.076 132.47 337.571 132.47C337.94 132.47 338.251 132.361 338.502 132.143C338.759 131.919 338.937 131.608 339.037 131.212H340.037C340.004 131.674 339.878 132.077 339.66 132.42C339.443 132.757 339.152 133.021 338.789 133.213C338.432 133.398 338.026 133.49 337.571 133.49ZM344.367 133.49C343.819 133.49 343.343 133.365 342.941 133.114C342.538 132.856 342.224 132.493 342 132.024C341.782 131.555 341.673 131.001 341.673 130.36C341.673 129.72 341.782 129.165 342 128.696C342.224 128.228 342.538 127.868 342.941 127.617C343.343 127.359 343.819 127.231 344.367 127.231C344.922 127.231 345.397 127.359 345.793 127.617C346.196 127.868 346.506 128.228 346.724 128.696C346.949 129.165 347.061 129.72 347.061 130.36C347.061 131.001 346.949 131.555 346.724 132.024C346.506 132.493 346.196 132.856 345.793 133.114C345.397 133.365 344.922 133.49 344.367 133.49ZM344.367 132.47C344.875 132.47 345.271 132.285 345.555 131.915C345.839 131.545 345.981 131.027 345.981 130.36C345.981 129.693 345.839 129.175 345.555 128.805C345.271 128.436 344.875 128.251 344.367 128.251C343.858 128.251 343.462 128.436 343.178 128.805C342.894 129.175 342.753 129.693 342.753 130.36C342.753 131.027 342.894 131.545 343.178 131.915C343.462 132.285 343.858 132.47 344.367 132.47ZM349.123 124.933H352.015V132.311H353.807V133.332H349.123V132.311H350.925V125.953H349.123V124.933ZM358.237 133.49C357.689 133.49 357.213 133.365 356.81 133.114C356.408 132.856 356.094 132.493 355.869 132.024C355.652 131.555 355.543 131.001 355.543 130.36C355.543 129.72 355.652 129.165 355.869 128.696C356.094 128.228 356.408 127.868 356.81 127.617C357.213 127.359 357.689 127.231 358.237 127.231C358.791 127.231 359.267 127.359 359.663 127.617C360.065 127.868 360.376 128.228 360.594 128.696C360.818 129.165 360.93 129.72 360.93 130.36C360.93 131.001 360.818 131.555 360.594 132.024C360.376 132.493 360.065 132.856 359.663 133.114C359.267 133.365 358.791 133.49 358.237 133.49ZM358.237 132.47C358.745 132.47 359.141 132.285 359.425 131.915C359.709 131.545 359.851 131.027 359.851 130.36C359.851 129.693 359.709 129.175 359.425 128.805C359.141 128.436 358.745 128.251 358.237 128.251C357.728 128.251 357.332 128.436 357.048 128.805C356.764 129.175 356.622 129.693 356.622 130.36C356.622 131.027 356.764 131.545 357.048 131.915C357.332 132.285 357.728 132.47 358.237 132.47ZM362.646 127.389H364.963V127.825H365.26C365.379 127.633 365.541 127.488 365.746 127.389C365.95 127.283 366.185 127.231 366.449 127.231C366.924 127.231 367.301 127.399 367.578 127.736C367.855 128.066 367.994 128.521 367.994 129.102V129.964H366.865V129.261C366.865 128.594 366.594 128.261 366.053 128.261C365.709 128.261 365.452 128.416 365.28 128.726C365.115 129.03 365.033 129.485 365.033 130.093V132.311H366.875V133.332H362.824V132.311H363.943V128.409H362.646V127.389Z" fill="#BBBBBB"/>
<rect x="302.121" y="145.943" width="28.2975" height="28.2975" rx="2.82975" fill="#D9D9D9"/>
<path d="M318.934 159.501V160.811H313.678V159.501H318.934Z" fill="#BBBBBB"/>
<rect x="333.249" y="145.943" width="74.9884" height="28.2975" rx="2.82975" fill="#E6E6E6"/>
<path d="M378.674 156.037V163.688H380.858V165.092H374.769V163.688H377.191V156.772L377.553 156.976L374.769 158.787V157.202L376.625 156.037H378.674ZM382.717 162.941L385.931 160.677C386.339 160.383 386.637 160.081 386.826 159.772C387.022 159.455 387.12 159.108 387.12 158.731C387.12 158.263 386.984 157.897 386.712 157.633C386.448 157.361 386.079 157.225 385.603 157.225C385.158 157.225 384.792 157.365 384.505 157.644C384.219 157.916 384.019 158.319 383.905 158.855H382.49C382.521 158.221 382.672 157.682 382.943 157.236C383.222 156.784 383.588 156.44 384.041 156.206C384.501 155.965 385.022 155.844 385.603 155.844C386.214 155.844 386.743 155.965 387.188 156.206C387.633 156.44 387.98 156.776 388.229 157.214C388.478 157.644 388.603 158.149 388.603 158.731C388.603 159.334 388.444 159.889 388.127 160.394C387.818 160.892 387.343 161.357 386.701 161.787L384.12 163.552V163.688H388.41V165.092H382.717V162.941ZM393.427 165.284C392.816 165.284 392.272 165.152 391.797 164.888C391.322 164.616 390.948 164.247 390.676 163.779C390.412 163.303 390.28 162.756 390.28 162.138C390.28 161.677 390.367 161.209 390.54 160.734C390.722 160.259 391.005 159.742 391.389 159.183L393.54 156.037H395.193L393.087 159.036L393.28 159.217C393.355 159.195 393.434 159.176 393.517 159.161C393.608 159.146 393.699 159.138 393.789 159.138C394.332 159.138 394.815 159.27 395.238 159.534C395.66 159.791 395.992 160.145 396.234 160.598C396.475 161.051 396.596 161.564 396.596 162.138C396.596 162.756 396.46 163.303 396.189 163.779C395.925 164.247 395.551 164.616 395.068 164.888C394.593 165.152 394.046 165.284 393.427 165.284ZM391.763 162.138C391.763 162.492 391.831 162.802 391.967 163.066C392.11 163.33 392.306 163.537 392.555 163.688C392.804 163.832 393.099 163.903 393.438 163.903C393.778 163.903 394.072 163.832 394.321 163.688C394.578 163.537 394.774 163.33 394.91 163.066C395.045 162.802 395.113 162.492 395.113 162.138C395.113 161.79 395.045 161.485 394.91 161.221C394.774 160.957 394.578 160.753 394.321 160.609C394.072 160.466 393.778 160.394 393.438 160.394C393.106 160.394 392.812 160.466 392.555 160.609C392.306 160.753 392.11 160.957 391.967 161.221C391.831 161.485 391.763 161.79 391.763 162.138Z" fill="#BBBBBB"/>
<rect x="411.067" y="145.943" width="28.2975" height="28.2975" rx="2.82975" fill="#D9D9D9"/>
<path d="M424.481 164.476V161.259H421.281V159.916H424.481V156.716H425.824V159.916H429.041V161.259H425.824V164.476H424.481Z" fill="#BBBBBB"/>
<defs>
<filter id="filter0_d_232_933" x="162.731" y="78.7136" width="32.5116" height="32.5111" filterUnits="userSpaceOnUse" color-interpolation-filters="sRGB">
<feFlood flood-opacity="0" result="BackgroundImageFix"/>
<feColorMatrix in="SourceAlpha" type="matrix" values="0 0 0 0 0 0 0 0 0 0 0 0 0 0 0 0 0 0 127 0" result="hardAlpha"/>
<feOffset dx="-0.707671" dy="0.707671"/>
<feGaussianBlur stdDeviation="2.12301"/>
<feComposite in2="hardAlpha" operator="out"/>
<feColorMatrix type="matrix" values="0 0 0 0 0 0 0 0 0 0 0 0 0 0 0 0 0 0 0.25 0"/>
<feBlend mode="normal" in2="BackgroundImageFix" result="effect1_dropShadow_232_933"/>
<feBlend mode="normal" in="SourceGraphic" in2="effect1_dropShadow_232_933" result="shape"/>
</filter>
<linearGradient id="paint0_linear_232_933" x1="28.269" y1="80.1068" x2="431.566" y2="80.1068" gradientUnits="userSpaceOnUse">
<stop stop-color="#FF0801"/>
<stop offset="0.198006" stop-color="#FF8502"/>
<stop offset="0.310365" stop-color="#FFF500"/>
<stop offset="0.443361" stop-color="#8FFF00"/>
<stop offset="0.567185" stop-color="#03FFF2"/>
<stop offset="0.720818" stop-color="#0700FF"/>
<stop offset="0.833177" stop-color="#A600FE"/>
<stop offset="1" stop-color="#FF006A"/>
</linearGradient>
</defs>
</svg>
