<svg width="460" height="187" viewBox="0 0 460 187" fill="none" xmlns="http://www.w3.org/2000/svg">
<rect y="0.240234" width="459.834" height="186.764" rx="8.48925" fill="white"/>
<path d="M19.5466 26.9395V17.8843H22.7499C23.3384 17.8843 23.8516 17.9974 24.2892 18.2238C24.7269 18.4427 25.0627 18.7558 25.2966 19.1633C25.5381 19.5708 25.6588 20.05 25.6588 20.6008C25.6588 21.1441 25.5381 21.6195 25.2966 22.027C25.0627 22.4269 24.7269 22.7363 24.2892 22.9552C23.8516 23.174 23.3384 23.2834 22.7499 23.2834H21.0294V26.9395H19.5466ZM21.0294 21.9478H22.7838C23.2215 21.9478 23.5611 21.8308 23.8025 21.5969C24.0515 21.3554 24.1761 21.0272 24.1761 20.6121C24.1761 20.1971 24.0515 19.8726 23.8025 19.6387C23.5611 19.3972 23.2215 19.2765 22.7838 19.2765H21.0294V21.9478ZM27.1099 26.9395V25.5359H29.3624V19.2878H27.1099V17.8843H33.0863V19.2878H30.8338V25.5359H33.0863V26.9395H27.1099ZM38.2047 27.1319C37.1105 27.1319 36.2843 26.7395 35.7259 25.9547C35.175 25.1624 34.8996 23.9814 34.8996 22.4119C34.8996 20.8423 35.1825 19.6651 35.7485 18.8803C36.322 18.088 37.1747 17.6918 38.3066 17.6918C38.9254 17.6918 39.4611 17.8239 39.9139 18.088C40.3666 18.3446 40.7213 18.7256 40.9779 19.2312C41.2344 19.7292 41.3854 20.3367 41.4306 21.0536H40.0724C39.9592 20.4046 39.7554 19.9141 39.4611 19.5821C39.1744 19.2425 38.7895 19.0727 38.3066 19.0727C37.6501 19.0727 37.1634 19.3444 36.8464 19.8877C36.5371 20.431 36.3824 21.2724 36.3824 22.4119C36.3824 23.5513 36.5295 24.3927 36.8238 24.936C37.1181 25.4793 37.5784 25.751 38.2047 25.751C38.6575 25.751 39.0235 25.5963 39.3027 25.2869C39.5819 24.9699 39.7743 24.5134 39.8799 23.9173H41.2382C41.1929 24.5964 41.042 25.1775 40.7854 25.6604C40.5364 26.1358 40.1931 26.5018 39.7554 26.7583C39.3178 27.0074 38.8009 27.1319 38.2047 27.1319ZM43.4476 17.8843H44.9191V26.9395H43.4476V17.8843ZM47.5225 26.9395L44.5343 22.559L47.7375 17.8843H49.4014L46.2434 22.5024L49.2769 26.9395H47.5225ZM61.9813 27.1319C60.8871 27.1319 60.0608 26.7395 59.5024 25.9547C58.9515 25.1624 58.6761 23.9814 58.6761 22.4119C58.6761 20.8423 58.9591 19.6651 59.525 18.8803C60.0985 18.088 60.9512 17.6918 62.0831 17.6918C62.7019 17.6918 63.2377 17.8239 63.6904 18.088C64.1432 18.3446 64.4978 18.7256 64.7544 19.2312C65.011 19.7292 65.1619 20.3367 65.2072 21.0536H63.8489C63.7357 20.4046 63.532 19.9141 63.2377 19.5821C62.9509 19.2425 62.5661 19.0727 62.0831 19.0727C61.4266 19.0727 60.9399 19.3444 60.623 19.8877C60.3136 20.431 60.1589 21.2724 60.1589 22.4119C60.1589 23.5513 60.306 24.3927 60.6003 24.936C60.8946 25.4793 61.3549 25.751 61.9813 25.751C62.434 25.751 62.8 25.5963 63.0792 25.2869C63.3584 24.9699 63.5508 24.5134 63.6565 23.9173H65.0147C64.9695 24.5964 64.8186 25.1775 64.562 25.6604C64.313 26.1358 63.9696 26.5018 63.532 26.7583C63.0943 27.0074 62.5774 27.1319 61.9813 27.1319ZM69.7257 27.1319C68.6089 27.1319 67.7637 26.7395 67.1902 25.9547C66.6243 25.1624 66.3413 23.9814 66.3413 22.4119C66.3413 20.8423 66.6243 19.6651 67.1902 18.8803C67.7637 18.088 68.6089 17.6918 69.7257 17.6918C70.85 17.6918 71.6952 18.088 72.2611 18.8803C72.8271 19.6651 73.11 20.8423 73.11 22.4119C73.11 23.9814 72.8271 25.1624 72.2611 25.9547C71.6952 26.7395 70.85 27.1319 69.7257 27.1319ZM69.7257 25.751C70.3746 25.751 70.8538 25.4793 71.1632 24.936C71.4726 24.3927 71.6273 23.5513 71.6273 22.4119C71.6273 21.2724 71.4726 20.431 71.1632 19.8877C70.8538 19.3444 70.3746 19.0727 69.7257 19.0727C69.0767 19.0727 68.5975 19.3444 68.2881 19.8877C67.9788 20.431 67.8241 21.2724 67.8241 22.4119C67.8241 23.5513 67.9788 24.3927 68.2881 24.936C68.5975 25.4793 69.0767 25.751 69.7257 25.751ZM75.6024 26.9395V17.8843H77.0739V25.5359H80.8884V26.9395H75.6024ZM85.5767 27.1319C84.4599 27.1319 83.6147 26.7395 83.0412 25.9547C82.4753 25.1624 82.1923 23.9814 82.1923 22.4119C82.1923 20.8423 82.4753 19.6651 83.0412 18.8803C83.6147 18.088 84.4599 17.6918 85.5767 17.6918C86.701 17.6918 87.5462 18.088 88.1121 18.8803C88.6781 19.6651 88.9611 20.8423 88.9611 22.4119C88.9611 23.9814 88.6781 25.1624 88.1121 25.9547C87.5462 26.7395 86.701 27.1319 85.5767 27.1319ZM85.5767 25.751C86.2256 25.751 86.7048 25.4793 87.0142 24.936C87.3236 24.3927 87.4783 23.5513 87.4783 22.4119C87.4783 21.2724 87.3236 20.431 87.0142 19.8877C86.7048 19.3444 86.2256 19.0727 85.5767 19.0727C84.9277 19.0727 84.4486 19.3444 84.1392 19.8877C83.8298 20.431 83.6751 21.2724 83.6751 22.4119C83.6751 23.5513 83.8298 24.3927 84.1392 24.936C84.4486 25.4793 84.9277 25.751 85.5767 25.751ZM90.7177 26.9395V17.8843H93.921C94.5096 17.8843 95.0227 17.9937 95.4604 18.2125C95.8981 18.4313 96.2376 18.7407 96.4791 19.1407C96.7206 19.5406 96.8413 20.016 96.8413 20.5669C96.8413 21.0724 96.7168 21.5177 96.4678 21.9025C96.2263 22.2873 95.8867 22.5892 95.4491 22.808C95.0114 23.0193 94.502 23.1249 93.921 23.1249H92.2005V26.9395H90.7177ZM95.3925 26.9395L93.0042 22.8759H94.5888L97.0677 26.9395H95.3925ZM92.2005 21.8572H93.921C94.3587 21.8572 94.7058 21.7403 94.9624 21.5063C95.2265 21.2724 95.3585 20.9592 95.3585 20.5669C95.3585 20.1745 95.2265 19.8613 94.9624 19.6274C94.7058 19.3935 94.3587 19.2765 93.921 19.2765H92.2005V21.8572Z" fill="black"/>
<rect x="28.269" y="67.209" width="403.297" height="26.2557" rx="7.29973" fill="url(#paint0_linear_232_969)" fill-opacity="0.4"/>
<g filter="url(#filter0_d_232_969)">
<rect x="179.694" y="82.4819" width="16.9841" height="16.9841" transform="rotate(45 179.694 82.4819)" fill="white"/>
<rect x="179.694" y="85.6343" width="12.5258" height="12.5258" transform="rotate(45 179.694 85.6343)" fill="#DEF793"/>
</g>
<g filter="url(#filter1_d_232_969)">
<rect x="336.891" y="55.1992" width="16.9841" height="16.9841" transform="rotate(45 336.891 55.1992)" fill="white"/>
<rect x="336.891" y="58.3516" width="12.5258" height="12.5258" transform="rotate(45 336.891 58.3516)" fill="#BF9AFF"/>
</g>
<path d="M31.9067 103.693C31.237 103.693 30.7323 103.45 30.3928 102.964C30.0579 102.474 29.8905 101.738 29.8905 100.757C29.8905 99.7762 30.0579 99.0428 30.3928 98.557C30.7276 98.0665 31.2323 97.8213 31.9067 97.8213C32.5764 97.8213 33.0787 98.0665 33.4135 98.557C33.7531 99.0428 33.9229 99.7762 33.9229 100.757C33.9229 101.738 33.7555 102.474 33.4206 102.964C33.0858 103.45 32.5811 103.693 31.9067 103.693ZM31.9067 103.035C32.3547 103.035 32.6849 102.851 32.8971 102.483C33.1141 102.111 33.2225 101.535 33.2225 100.757C33.2225 99.979 33.1141 99.406 32.8971 99.0381C32.6849 98.6655 32.3547 98.4792 31.9067 98.4792C31.4587 98.4792 31.1262 98.6655 30.9092 99.0381C30.697 99.406 30.5909 99.979 30.5909 100.757C30.5909 101.535 30.697 102.111 30.9092 102.483C31.1262 102.851 31.4587 103.035 31.9067 103.035ZM30.3928 101.493L33.3994 99.222V100.021L30.3928 102.292V101.493ZM36.8601 100.34C36.6243 100.34 36.4097 100.283 36.2164 100.17C36.023 100.057 35.8697 99.9059 35.7565 99.7172C35.6433 99.5239 35.5868 99.3116 35.5868 99.0805C35.5868 98.84 35.6433 98.6254 35.7565 98.4368C35.8697 98.2481 36.023 98.0996 36.2164 97.9911C36.4097 97.8779 36.6243 97.8213 36.8601 97.8213C37.096 97.8213 37.3105 97.8779 37.5039 97.9911C37.6973 98.0996 37.8506 98.2481 37.9637 98.4368C38.0769 98.6254 38.1335 98.84 38.1335 99.0805C38.1335 99.3116 38.0769 99.5239 37.9637 99.7172C37.8506 99.9059 37.6973 100.057 37.5039 100.17C37.3153 100.283 37.1007 100.34 36.8601 100.34ZM36.8601 99.7455C36.9828 99.7455 37.0936 99.7172 37.1926 99.6606C37.2917 99.5993 37.3695 99.5191 37.4261 99.4201C37.4874 99.3163 37.5181 99.2032 37.5181 99.0805C37.5181 98.9532 37.4874 98.84 37.4261 98.741C37.3695 98.6372 37.2917 98.557 37.1926 98.5004C37.0936 98.4391 36.9828 98.4085 36.8601 98.4085C36.7375 98.4085 36.6267 98.4391 36.5276 98.5004C36.4286 98.557 36.3484 98.6372 36.2871 98.741C36.2305 98.84 36.2022 98.9532 36.2022 99.0805C36.2022 99.2032 36.2305 99.3163 36.2871 99.4201C36.3484 99.5191 36.4286 99.5993 36.5276 99.6606C36.6267 99.7172 36.7375 99.7455 36.8601 99.7455Z" fill="#464646"/>
<path d="M423.847 102.094C423.847 102.41 423.77 102.691 423.614 102.936C423.463 103.177 423.253 103.363 422.984 103.495C422.72 103.627 422.414 103.693 422.065 103.693C421.687 103.693 421.362 103.625 421.088 103.488C420.815 103.346 420.6 103.144 420.445 102.879C420.294 102.615 420.211 102.299 420.197 101.932H420.876C420.919 102.285 421.044 102.559 421.251 102.752C421.459 102.941 421.727 103.035 422.058 103.035C422.274 103.035 422.463 102.995 422.623 102.915C422.784 102.83 422.909 102.714 422.998 102.568C423.088 102.417 423.133 102.243 423.133 102.045C423.133 101.738 423.039 101.493 422.85 101.309C422.666 101.125 422.418 101.033 422.107 101.033H421.428V100.382H422.107C422.428 100.382 422.685 100.297 422.878 100.128C423.072 99.953 423.168 99.7243 423.168 99.4413C423.168 99.1536 423.069 98.9225 422.871 98.748C422.678 98.5688 422.416 98.4792 422.086 98.4792C421.742 98.4792 421.463 98.5806 421.251 98.7834C421.039 98.9815 420.902 99.2715 420.841 99.6536H420.162C420.185 99.2621 420.277 98.932 420.438 98.6631C420.598 98.3896 420.817 98.1821 421.095 98.0406C421.378 97.8944 421.711 97.8213 422.093 97.8213C422.447 97.8213 422.756 97.8873 423.02 98.0194C423.288 98.1467 423.496 98.3283 423.642 98.5641C423.793 98.7952 423.869 99.0711 423.869 99.3918C423.869 99.7031 423.788 99.9695 423.628 100.191C423.468 100.413 423.251 100.561 422.977 100.637V100.743C423.241 100.818 423.451 100.976 423.607 101.217C423.767 101.458 423.847 101.75 423.847 102.094ZM426.678 103.693C426.315 103.693 425.99 103.613 425.702 103.453C425.419 103.292 425.198 103.068 425.037 102.78C424.877 102.493 424.797 102.163 424.797 101.79C424.797 101.507 424.849 101.224 424.952 100.941C425.061 100.653 425.228 100.344 425.455 100.014L426.884 97.9274H427.669L426.296 99.9082L426.41 100.014C426.466 99.9908 426.532 99.9719 426.608 99.9578C426.688 99.9436 426.77 99.9365 426.855 99.9365C427.19 99.9365 427.485 100.017 427.74 100.177C427.999 100.337 428.202 100.557 428.348 100.835C428.499 101.109 428.574 101.427 428.574 101.79C428.574 102.163 428.492 102.493 428.327 102.78C428.166 103.068 427.945 103.292 427.662 103.453C427.379 103.613 427.051 103.693 426.678 103.693ZM425.504 101.79C425.504 102.035 425.554 102.252 425.653 102.441C425.752 102.625 425.889 102.771 426.063 102.879C426.242 102.983 426.45 103.035 426.686 103.035C426.921 103.035 427.127 102.983 427.301 102.879C427.48 102.771 427.619 102.625 427.718 102.441C427.817 102.252 427.867 102.035 427.867 101.79C427.867 101.54 427.817 101.323 427.718 101.139C427.619 100.951 427.48 100.804 427.301 100.701C427.127 100.597 426.921 100.545 426.686 100.545C426.45 100.545 426.242 100.597 426.063 100.701C425.889 100.804 425.752 100.951 425.653 101.139C425.554 101.323 425.504 101.54 425.504 101.79ZM431.356 103.693C430.686 103.693 430.182 103.45 429.842 102.964C429.507 102.474 429.34 101.738 429.34 100.757C429.34 99.7762 429.507 99.0428 429.842 98.557C430.177 98.0665 430.682 97.8213 431.356 97.8213C432.026 97.8213 432.528 98.0665 432.863 98.557C433.202 99.0428 433.372 99.7762 433.372 100.757C433.372 101.738 433.205 102.474 432.87 102.964C432.535 103.45 432.03 103.693 431.356 103.693ZM431.356 103.035C431.804 103.035 432.134 102.851 432.346 102.483C432.563 102.111 432.672 101.535 432.672 100.757C432.672 99.979 432.563 99.406 432.346 99.0381C432.134 98.6655 431.804 98.4792 431.356 98.4792C430.908 98.4792 430.575 98.6655 430.359 99.0381C430.146 99.406 430.04 99.979 430.04 100.757C430.04 101.535 430.146 102.111 430.359 102.483C430.575 102.851 430.908 103.035 431.356 103.035ZM429.842 101.493L432.849 99.222V100.021L429.842 102.292V101.493ZM436.027 100.34C435.791 100.34 435.576 100.283 435.383 100.17C435.189 100.057 435.036 99.9059 434.923 99.7172C434.81 99.5239 434.753 99.3116 434.753 99.0805C434.753 98.84 434.81 98.6254 434.923 98.4368C435.036 98.2481 435.189 98.0996 435.383 97.9911C435.576 97.8779 435.791 97.8213 436.027 97.8213C436.262 97.8213 436.477 97.8779 436.67 97.9911C436.864 98.0996 437.017 98.2481 437.13 98.4368C437.243 98.6254 437.3 98.84 437.3 99.0805C437.3 99.3116 437.243 99.5239 437.13 99.7172C437.017 99.9059 436.864 100.057 436.67 100.17C436.482 100.283 436.267 100.34 436.027 100.34ZM436.027 99.7455C436.149 99.7455 436.26 99.7172 436.359 99.6606C436.458 99.5993 436.536 99.5191 436.592 99.4201C436.654 99.3163 436.684 99.2032 436.684 99.0805C436.684 98.9532 436.654 98.84 436.592 98.741C436.536 98.6372 436.458 98.557 436.359 98.5004C436.26 98.4391 436.149 98.4085 436.027 98.4085C435.904 98.4085 435.793 98.4391 435.694 98.5004C435.595 98.557 435.515 98.6372 435.453 98.741C435.397 98.84 435.369 98.9532 435.369 99.0805C435.369 99.2032 435.397 99.3163 435.453 99.4201C435.515 99.5191 435.595 99.5993 435.694 99.6606C435.793 99.7172 435.904 99.7455 436.027 99.7455Z" fill="#464646"/>
<line x1="17.6572" y1="39.5887" x2="442.177" y2="39.5887" stroke="#A7A7A7" stroke-width="0.707438" stroke-dasharray="1.41 1.41"/>
<path d="M21.3713 133.561H20.2818V128.639H18.9547V127.619H20.2818V126.975C20.2818 126.361 20.4568 125.879 20.8067 125.529C21.1633 125.179 21.6552 125.004 22.2825 125.004C22.8767 125.004 23.3488 125.156 23.6987 125.459C24.0553 125.763 24.2501 126.186 24.2831 126.727H23.2927C23.2002 126.496 23.0682 126.321 22.8965 126.202C22.7314 126.077 22.5268 126.014 22.2825 126.014C21.9919 126.014 21.7674 126.103 21.609 126.282C21.4505 126.46 21.3713 126.714 21.3713 127.044V127.619H23.6294V128.639H21.3713V133.561ZM26.0281 127.619H28.9202V132.541H30.7128V133.561H26.0281V132.541H27.8307V128.639H26.0281V127.619ZM28.2962 126.737C28.0387 126.737 27.8373 126.668 27.692 126.529C27.5468 126.384 27.4741 126.186 27.4741 125.935C27.4741 125.684 27.5468 125.489 27.692 125.351C27.8373 125.205 28.0387 125.133 28.2962 125.133C28.5537 125.133 28.7551 125.205 28.9003 125.351C29.0456 125.489 29.1182 125.684 29.1182 125.935C29.1182 126.186 29.0456 126.384 28.9003 126.529C28.7551 126.668 28.5537 126.737 28.2962 126.737ZM32.4678 127.619H34.7853V128.054H35.0825C35.2013 127.863 35.3631 127.718 35.5678 127.619C35.7724 127.513 36.0068 127.46 36.2709 127.46C36.7463 127.46 37.1227 127.628 37.4 127.965C37.6773 128.295 37.816 128.751 37.816 129.332V130.194H36.6869V129.49C36.6869 128.824 36.4162 128.49 35.8748 128.49C35.5314 128.49 35.2739 128.645 35.1023 128.956C34.9372 129.259 34.8547 129.715 34.8547 130.322V132.541H36.6968V133.561H32.646V132.541H33.7652V128.639H32.4678V127.619ZM40.5515 131.739C40.6439 132.049 40.8123 132.287 41.0566 132.452C41.3009 132.617 41.6145 132.699 41.9975 132.699C42.3936 132.699 42.6974 132.63 42.9086 132.491C43.1199 132.346 43.2256 132.141 43.2256 131.877C43.2256 131.699 43.1397 131.55 42.9681 131.432C42.7964 131.313 42.5422 131.23 42.2055 131.184L41.4825 131.075C40.8354 130.976 40.3567 130.785 40.0464 130.501C39.736 130.217 39.5809 129.821 39.5809 129.312C39.5809 128.738 39.7921 128.285 40.2147 127.955C40.6439 127.625 41.2315 127.46 41.9777 127.46C42.737 127.46 43.3378 127.645 43.7802 128.015C44.2226 128.384 44.457 128.899 44.4834 129.56H43.493C43.4006 129.21 43.2256 128.942 42.9681 128.758C42.7106 128.573 42.3738 128.48 41.9579 128.48C41.5419 128.48 41.2216 128.553 40.9972 128.698C40.7727 128.837 40.6604 129.038 40.6604 129.302C40.6604 129.481 40.7462 129.629 40.9179 129.748C41.0896 129.867 41.3438 129.949 41.6805 129.996L42.4035 130.104C43.0572 130.204 43.5359 130.395 43.8396 130.679C44.15 130.963 44.3051 131.359 44.3051 131.867C44.3051 132.25 44.2094 132.581 44.0179 132.858C43.833 133.135 43.5689 133.35 43.2256 133.502C42.8822 133.647 42.4696 133.72 41.9876 133.72C41.2481 133.72 40.6637 133.545 40.2345 133.195C39.812 132.845 39.5809 132.359 39.5412 131.739H40.5515ZM48.5955 126.074V127.619H51.2697V128.639H48.5955V131.61C48.5955 131.96 48.6682 132.231 48.8134 132.422C48.9587 132.607 49.17 132.699 49.4473 132.699C49.7378 132.699 49.9623 132.6 50.1208 132.402C50.2859 132.198 50.408 131.891 50.4872 131.481H51.4479C51.4149 132.207 51.2234 132.762 50.8735 133.145C50.5236 133.528 50.0349 133.72 49.4077 133.72C48.8002 133.72 48.3314 133.538 48.0013 133.175C47.6712 132.812 47.5061 132.303 47.5061 131.65V128.639H46.1988V127.619H47.5061V126.074H48.5955ZM62.8713 133.72C62.3298 133.72 61.861 133.594 61.4649 133.343C61.0687 133.092 60.7617 132.736 60.5438 132.273C60.3259 131.805 60.217 131.253 60.217 130.62C60.217 129.972 60.3292 129.415 60.5537 128.946C60.7782 128.47 61.0951 128.104 61.5045 127.846C61.9205 127.589 62.4091 127.46 62.9703 127.46C63.4589 127.46 63.8881 127.562 64.2578 127.767C64.6276 127.965 64.9181 128.249 65.1294 128.619C65.3407 128.982 65.4562 129.415 65.4761 129.916H64.4757C64.3899 129.461 64.2116 129.107 63.9409 128.857C63.6768 128.606 63.3401 128.48 62.9307 128.48C62.4091 128.48 62.0063 128.668 61.7224 129.045C61.4385 129.421 61.2965 129.946 61.2965 130.62C61.2965 131.273 61.4352 131.785 61.7125 132.155C61.9898 132.518 62.3761 132.699 62.8713 132.699C63.241 132.699 63.5513 132.59 63.8023 132.373C64.0598 132.148 64.238 131.838 64.3371 131.442H65.3374C65.3044 131.904 65.1789 132.307 64.961 132.65C64.7431 132.987 64.4526 133.251 64.0895 133.442C63.7329 133.627 63.3269 133.72 62.8713 133.72ZM69.6674 133.72C69.1194 133.72 68.644 133.594 68.2412 133.343C67.8385 133.086 67.5248 132.722 67.3003 132.254C67.0825 131.785 66.9735 131.23 66.9735 130.59C66.9735 129.949 67.0825 129.395 67.3003 128.926C67.5248 128.457 67.8385 128.097 68.2412 127.846C68.644 127.589 69.1194 127.46 69.6674 127.46C70.2221 127.46 70.6975 127.589 71.0936 127.846C71.4964 128.097 71.8067 128.457 72.0246 128.926C72.2491 129.395 72.3614 129.949 72.3614 130.59C72.3614 131.23 72.2491 131.785 72.0246 132.254C71.8067 132.722 71.4964 133.086 71.0936 133.343C70.6975 133.594 70.2221 133.72 69.6674 133.72ZM69.6674 132.699C70.1758 132.699 70.572 132.514 70.8559 132.145C71.1398 131.775 71.2818 131.257 71.2818 130.59C71.2818 129.923 71.1398 129.405 70.8559 129.035C70.572 128.665 70.1758 128.48 69.6674 128.48C69.159 128.48 68.7629 128.665 68.4789 129.035C68.195 129.405 68.0531 129.923 68.0531 130.59C68.0531 131.257 68.195 131.775 68.4789 132.145C68.7629 132.514 69.159 132.699 69.6674 132.699ZM74.4233 125.162H77.3153V132.541H79.108V133.561H74.4233V132.541H76.2259V126.182H74.4233V125.162ZM83.5371 133.72C82.989 133.72 82.5136 133.594 82.1109 133.343C81.7081 133.086 81.3945 132.722 81.17 132.254C80.9521 131.785 80.8432 131.23 80.8432 130.59C80.8432 129.949 80.9521 129.395 81.17 128.926C81.3945 128.457 81.7081 128.097 82.1109 127.846C82.5136 127.589 82.989 127.46 83.5371 127.46C84.0917 127.46 84.5671 127.589 84.9633 127.846C85.366 128.097 85.6764 128.457 85.8943 128.926C86.1187 129.395 86.231 129.949 86.231 130.59C86.231 131.23 86.1187 131.785 85.8943 132.254C85.6764 132.722 85.366 133.086 84.9633 133.343C84.5671 133.594 84.0917 133.72 83.5371 133.72ZM83.5371 132.699C84.0455 132.699 84.4417 132.514 84.7256 132.145C85.0095 131.775 85.1514 131.257 85.1514 130.59C85.1514 129.923 85.0095 129.405 84.7256 129.035C84.4417 128.665 84.0455 128.48 83.5371 128.48C83.0287 128.48 82.6325 128.665 82.3486 129.035C82.0647 129.405 81.9227 129.923 81.9227 130.59C81.9227 131.257 82.0647 131.775 82.3486 132.145C82.6325 132.514 83.0287 132.699 83.5371 132.699ZM87.9463 127.619H90.2639V128.054H90.561C90.6799 127.863 90.8417 127.718 91.0463 127.619C91.251 127.513 91.4854 127.46 91.7495 127.46C92.2249 127.46 92.6013 127.628 92.8786 127.965C93.1559 128.295 93.2946 128.751 93.2946 129.332V130.194H92.1655V129.49C92.1655 128.824 91.8948 128.49 91.3534 128.49C91.01 128.49 90.7525 128.645 90.5808 128.956C90.4158 129.259 90.3332 129.715 90.3332 130.322V132.541H92.1754V133.561H88.1246V132.541H89.2438V128.639H87.9463V127.619Z" fill="black"/>
<rect x="20.4868" y="146.172" width="28.2975" height="28.2975" rx="2.82975" fill="#D9D9D9"/>
<path d="M37.2996 159.731V161.041H32.0436V159.731H37.2996Z" fill="black"/>
<rect x="51.6143" y="146.172" width="74.9884" height="28.2975" rx="2.82975" fill="#E6E6E6"/>
<path d="M97.0395 156.266V163.918H99.2241V165.321H93.1344V163.918H95.5567V157.002L95.9189 157.206L93.1344 159.017V157.432L94.9907 156.266H97.0395ZM101.083 163.171L104.297 160.907C104.705 160.613 105.003 160.311 105.191 160.001C105.388 159.684 105.486 159.337 105.486 158.96C105.486 158.492 105.35 158.126 105.078 157.862C104.814 157.59 104.444 157.455 103.969 157.455C103.524 157.455 103.158 157.594 102.871 157.873C102.584 158.145 102.384 158.549 102.271 159.085H100.856C100.886 158.451 101.037 157.911 101.309 157.466C101.588 157.013 101.954 156.67 102.407 156.436C102.867 156.194 103.388 156.074 103.969 156.074C104.58 156.074 105.108 156.194 105.554 156.436C105.999 156.67 106.346 157.006 106.595 157.443C106.844 157.873 106.968 158.379 106.968 158.96C106.968 159.564 106.81 160.118 106.493 160.624C106.184 161.122 105.708 161.586 105.067 162.016L102.486 163.782V163.918H106.776V165.321H101.083V163.171ZM111.793 165.514C111.181 165.514 110.638 165.382 110.163 165.118C109.687 164.846 109.314 164.476 109.042 164.008C108.778 163.533 108.646 162.986 108.646 162.367C108.646 161.907 108.733 161.439 108.906 160.963C109.087 160.488 109.37 159.971 109.755 159.413L111.906 156.266H113.558L111.453 159.266L111.645 159.447C111.721 159.424 111.8 159.405 111.883 159.39C111.974 159.375 112.064 159.367 112.155 159.367C112.698 159.367 113.181 159.5 113.604 159.764C114.026 160.02 114.358 160.375 114.6 160.828C114.841 161.28 114.962 161.794 114.962 162.367C114.962 162.986 114.826 163.533 114.554 164.008C114.29 164.476 113.917 164.846 113.434 165.118C112.958 165.382 112.411 165.514 111.793 165.514ZM110.129 162.367C110.129 162.722 110.197 163.031 110.332 163.295C110.476 163.559 110.672 163.767 110.921 163.918C111.17 164.061 111.464 164.133 111.804 164.133C112.143 164.133 112.438 164.061 112.687 163.918C112.943 163.767 113.14 163.559 113.275 163.295C113.411 163.031 113.479 162.722 113.479 162.367C113.479 162.02 113.411 161.714 113.275 161.45C113.14 161.186 112.943 160.982 112.687 160.839C112.438 160.696 112.143 160.624 111.804 160.624C111.472 160.624 111.178 160.696 110.921 160.839C110.672 160.982 110.476 161.186 110.332 161.45C110.197 161.714 110.129 162.02 110.129 162.367Z" fill="black"/>
<rect x="129.433" y="146.172" width="28.2975" height="28.2975" rx="2.82975" fill="#D9D9D9"/>
<path d="M142.846 164.705V161.488H139.646V160.145H142.846V156.945H144.189V160.145H147.406V161.488H144.189V164.705H142.846Z" fill="black"/>
<rect x="252.586" y="147.578" width="36.7989" height="22.6455" rx="11.3227" fill="#272727"/>
<rect x="269.57" y="150.408" width="16.9841" height="16.9841" rx="8.49206" fill="white"/>
<path d="M300.579 125.162H303.471V132.541H305.264V133.561H300.579V132.541H302.382V126.182H300.579V125.162ZM311.04 129.847V130.808L309.257 131.085C308.98 131.131 308.772 131.227 308.633 131.372C308.501 131.517 308.435 131.709 308.435 131.947C308.435 132.171 308.517 132.353 308.683 132.491C308.854 132.63 309.072 132.699 309.336 132.699C309.627 132.699 309.891 132.63 310.129 132.491C310.373 132.353 310.568 132.168 310.713 131.937C310.858 131.699 310.931 131.438 310.931 131.154V129.698C310.931 129.315 310.815 129.015 310.584 128.797C310.353 128.579 310.036 128.47 309.633 128.47C309.349 128.47 309.095 128.517 308.871 128.609C308.646 128.701 308.461 128.837 308.316 129.015C308.177 129.193 308.082 129.411 308.029 129.669H306.989C307.022 129.213 307.151 128.82 307.375 128.49C307.606 128.16 307.917 127.906 308.306 127.728C308.696 127.549 309.148 127.46 309.663 127.46C310.403 127.46 310.974 127.648 311.376 128.025C311.786 128.401 311.991 128.936 311.991 129.629V133.561H310.931V133.016H310.634C310.475 133.241 310.267 133.412 310.01 133.531C309.759 133.65 309.448 133.71 309.079 133.71C308.716 133.71 308.399 133.64 308.128 133.502C307.864 133.356 307.656 133.155 307.504 132.897C307.359 132.64 307.286 132.34 307.286 131.996C307.286 131.501 307.445 131.095 307.761 130.778C308.078 130.454 308.531 130.246 309.118 130.154L311.04 129.847ZM315.251 131.739C315.343 132.049 315.512 132.287 315.756 132.452C316 132.617 316.314 132.699 316.697 132.699C317.093 132.699 317.397 132.63 317.608 132.491C317.819 132.346 317.925 132.141 317.925 131.877C317.925 131.699 317.839 131.55 317.668 131.432C317.496 131.313 317.242 131.23 316.905 131.184L316.182 131.075C315.535 130.976 315.056 130.785 314.746 130.501C314.435 130.217 314.28 129.821 314.28 129.312C314.28 128.738 314.492 128.285 314.914 127.955C315.343 127.625 315.931 127.46 316.677 127.46C317.436 127.46 318.037 127.645 318.48 128.015C318.922 128.384 319.156 128.899 319.183 129.56H318.192C318.1 129.21 317.925 128.942 317.668 128.758C317.41 128.573 317.073 128.48 316.657 128.48C316.241 128.48 315.921 128.553 315.697 128.698C315.472 128.837 315.36 129.038 315.36 129.302C315.36 129.481 315.446 129.629 315.617 129.748C315.789 129.867 316.043 129.949 316.38 129.996L317.103 130.104C317.757 130.204 318.235 130.395 318.539 130.679C318.849 130.963 319.005 131.359 319.005 131.867C319.005 132.25 318.909 132.581 318.717 132.858C318.532 133.135 318.268 133.35 317.925 133.502C317.582 133.647 317.169 133.72 316.687 133.72C315.948 133.72 315.363 133.545 314.934 133.195C314.511 132.845 314.28 132.359 314.241 131.739H315.251ZM323.295 126.074V127.619H325.969V128.639H323.295V131.61C323.295 131.96 323.368 132.231 323.513 132.422C323.658 132.607 323.869 132.699 324.147 132.699C324.437 132.699 324.662 132.6 324.82 132.402C324.985 132.198 325.107 131.891 325.187 131.481H326.147C326.114 132.207 325.923 132.762 325.573 133.145C325.223 133.528 324.734 133.72 324.107 133.72C323.5 133.72 323.031 133.538 322.701 133.175C322.371 132.812 322.206 132.303 322.206 131.65V128.639H320.898V127.619H322.206V126.074H323.295ZM337.571 133.72C337.029 133.72 336.56 133.594 336.164 133.343C335.768 133.092 335.461 132.736 335.243 132.273C335.025 131.805 334.916 131.253 334.916 130.62C334.916 129.972 335.029 129.415 335.253 128.946C335.478 128.47 335.795 128.104 336.204 127.846C336.62 127.589 337.109 127.46 337.67 127.46C338.158 127.46 338.588 127.562 338.957 127.767C339.327 127.965 339.618 128.249 339.829 128.619C340.04 128.982 340.156 129.415 340.176 129.916H339.175C339.089 129.461 338.911 129.107 338.64 128.857C338.376 128.606 338.04 128.48 337.63 128.48C337.109 128.48 336.706 128.668 336.422 129.045C336.138 129.421 335.996 129.946 335.996 130.62C335.996 131.273 336.135 131.785 336.412 132.155C336.689 132.518 337.076 132.699 337.571 132.699C337.94 132.699 338.251 132.59 338.502 132.373C338.759 132.148 338.937 131.838 339.037 131.442H340.037C340.004 131.904 339.878 132.307 339.66 132.65C339.443 132.987 339.152 133.251 338.789 133.442C338.432 133.627 338.026 133.72 337.571 133.72ZM344.367 133.72C343.819 133.72 343.343 133.594 342.941 133.343C342.538 133.086 342.224 132.722 342 132.254C341.782 131.785 341.673 131.23 341.673 130.59C341.673 129.949 341.782 129.395 342 128.926C342.224 128.457 342.538 128.097 342.941 127.846C343.343 127.589 343.819 127.46 344.367 127.46C344.922 127.46 345.397 127.589 345.793 127.846C346.196 128.097 346.506 128.457 346.724 128.926C346.949 129.395 347.061 129.949 347.061 130.59C347.061 131.23 346.949 131.785 346.724 132.254C346.506 132.722 346.196 133.086 345.793 133.343C345.397 133.594 344.922 133.72 344.367 133.72ZM344.367 132.699C344.875 132.699 345.271 132.514 345.555 132.145C345.839 131.775 345.981 131.257 345.981 130.59C345.981 129.923 345.839 129.405 345.555 129.035C345.271 128.665 344.875 128.48 344.367 128.48C343.858 128.48 343.462 128.665 343.178 129.035C342.894 129.405 342.753 129.923 342.753 130.59C342.753 131.257 342.894 131.775 343.178 132.145C343.462 132.514 343.858 132.699 344.367 132.699ZM349.123 125.162H352.015V132.541H353.807V133.561H349.123V132.541H350.925V126.182H349.123V125.162ZM358.237 133.72C357.689 133.72 357.213 133.594 356.81 133.343C356.408 133.086 356.094 132.722 355.869 132.254C355.652 131.785 355.543 131.23 355.543 130.59C355.543 129.949 355.652 129.395 355.869 128.926C356.094 128.457 356.408 128.097 356.81 127.846C357.213 127.589 357.689 127.46 358.237 127.46C358.791 127.46 359.267 127.589 359.663 127.846C360.065 128.097 360.376 128.457 360.594 128.926C360.818 129.395 360.93 129.949 360.93 130.59C360.93 131.23 360.818 131.785 360.594 132.254C360.376 132.722 360.065 133.086 359.663 133.343C359.267 133.594 358.791 133.72 358.237 133.72ZM358.237 132.699C358.745 132.699 359.141 132.514 359.425 132.145C359.709 131.775 359.851 131.257 359.851 130.59C359.851 129.923 359.709 129.405 359.425 129.035C359.141 128.665 358.745 128.48 358.237 128.48C357.728 128.48 357.332 128.665 357.048 129.035C356.764 129.405 356.622 129.923 356.622 130.59C356.622 131.257 356.764 131.775 357.048 132.145C357.332 132.514 357.728 132.699 358.237 132.699ZM362.646 127.619H364.963V128.054H365.26C365.379 127.863 365.541 127.718 365.746 127.619C365.95 127.513 366.185 127.46 366.449 127.46C366.924 127.46 367.301 127.628 367.578 127.965C367.855 128.295 367.994 128.751 367.994 129.332V130.194H366.865V129.49C366.865 128.824 366.594 128.49 366.053 128.49C365.709 128.49 365.452 128.645 365.28 128.956C365.115 129.259 365.033 129.715 365.033 130.322V132.541H366.875V133.561H362.824V132.541H363.943V128.639H362.646V127.619Z" fill="black"/>
<rect x="302.121" y="146.172" width="28.2975" height="28.2975" rx="2.82975" fill="#D9D9D9"/>
<path d="M318.934 159.731V161.041H313.678V159.731H318.934Z" fill="black"/>
<rect x="333.249" y="146.172" width="74.9884" height="28.2975" rx="2.82975" fill="#E6E6E6"/>
<path d="M374.791 163.171L378.006 160.907C378.413 160.613 378.711 160.311 378.9 160.001C379.096 159.684 379.194 159.337 379.194 158.96C379.194 158.492 379.059 158.126 378.787 157.862C378.523 157.59 378.153 157.455 377.678 157.455C377.232 157.455 376.866 157.594 376.58 157.873C376.293 158.145 376.093 158.549 375.98 159.085H374.565C374.595 158.451 374.746 157.911 375.018 157.466C375.297 157.013 375.663 156.67 376.116 156.436C376.576 156.194 377.097 156.074 377.678 156.074C378.289 156.074 378.817 156.194 379.262 156.436C379.708 156.67 380.055 157.006 380.304 157.443C380.553 157.873 380.677 158.379 380.677 158.96C380.677 159.564 380.519 160.118 380.202 160.624C379.892 161.122 379.417 161.586 378.776 162.016L376.195 163.782V163.918H380.485V165.321H374.791V163.171ZM382.717 163.171L385.931 160.907C386.339 160.613 386.637 160.311 386.826 160.001C387.022 159.684 387.12 159.337 387.12 158.96C387.12 158.492 386.984 158.126 386.712 157.862C386.448 157.59 386.079 157.455 385.603 157.455C385.158 157.455 384.792 157.594 384.505 157.873C384.219 158.145 384.019 158.549 383.905 159.085H382.49C382.521 158.451 382.672 157.911 382.943 157.466C383.222 157.013 383.588 156.67 384.041 156.436C384.501 156.194 385.022 156.074 385.603 156.074C386.214 156.074 386.743 156.194 387.188 156.436C387.633 156.67 387.98 157.006 388.229 157.443C388.478 157.873 388.603 158.379 388.603 158.96C388.603 159.564 388.444 160.118 388.127 160.624C387.818 161.122 387.343 161.586 386.701 162.016L384.12 163.782V163.918H388.41V165.321H382.717V163.171ZM393.438 160.069C393.966 160.069 394.378 159.956 394.672 159.73C394.974 159.496 395.125 159.171 395.125 158.756C395.125 158.341 394.974 158.021 394.672 157.794C394.378 157.56 393.966 157.443 393.438 157.443C392.91 157.443 392.495 157.56 392.193 157.794C391.899 158.021 391.752 158.341 391.752 158.756C391.752 159.171 391.899 159.496 392.193 159.73C392.495 159.956 392.91 160.069 393.438 160.069ZM390.325 158.62C390.325 158.1 390.454 157.651 390.71 157.273C390.967 156.889 391.325 156.594 391.786 156.391C392.253 156.179 392.804 156.074 393.438 156.074C394.072 156.074 394.623 156.179 395.091 156.391C395.559 156.594 395.917 156.889 396.166 157.273C396.423 157.651 396.551 158.1 396.551 158.62C396.551 159.081 396.426 159.488 396.177 159.843C395.928 160.19 395.596 160.428 395.181 160.556V160.76C395.596 160.896 395.928 161.156 396.177 161.541C396.434 161.926 396.562 162.375 396.562 162.888C396.562 163.423 396.434 163.888 396.177 164.28C395.921 164.672 395.559 164.978 395.091 165.197C394.623 165.408 394.072 165.514 393.438 165.514C392.804 165.514 392.253 165.408 391.786 165.197C391.318 164.978 390.956 164.672 390.699 164.28C390.442 163.888 390.314 163.423 390.314 162.888C390.314 162.375 390.439 161.926 390.688 161.541C390.944 161.156 391.28 160.896 391.695 160.76V160.556C391.28 160.428 390.948 160.19 390.699 159.843C390.45 159.488 390.325 159.081 390.325 158.62ZM391.774 162.741C391.774 163.178 391.921 163.522 392.216 163.771C392.51 164.02 392.917 164.144 393.438 164.144C393.959 164.144 394.366 164.02 394.661 163.771C394.955 163.522 395.102 163.178 395.102 162.741C395.102 162.295 394.955 161.952 394.661 161.711C394.366 161.469 393.959 161.348 393.438 161.348C392.917 161.348 392.51 161.469 392.216 161.711C391.921 161.952 391.774 162.295 391.774 162.741Z" fill="black"/>
<rect x="411.067" y="146.172" width="28.2975" height="28.2975" rx="2.82975" fill="#D9D9D9"/>
<path d="M424.481 164.705V161.488H421.281V160.145H424.481V156.945H425.824V160.145H429.041V161.488H425.824V164.705H424.481Z" fill="black"/>
<defs>
<filter id="filter0_d_232_969" x="162.731" y="78.9436" width="32.5116" height="32.5111" filterUnits="userSpaceOnUse" color-interpolation-filters="sRGB">
<feFlood flood-opacity="0" result="BackgroundImageFix"/>
<feColorMatrix in="SourceAlpha" type="matrix" values="0 0 0 0 0 0 0 0 0 0 0 0 0 0 0 0 0 0 127 0" result="hardAlpha"/>
<feOffset dx="-0.707671" dy="0.707671"/>
<feGaussianBlur stdDeviation="2.12301"/>
<feComposite in2="hardAlpha" operator="out"/>
<feColorMatrix type="matrix" values="0 0 0 0 0 0 0 0 0 0 0 0 0 0 0 0 0 0 0.25 0"/>
<feBlend mode="normal" in2="BackgroundImageFix" result="effect1_dropShadow_232_969"/>
<feBlend mode="normal" in="SourceGraphic" in2="effect1_dropShadow_232_969" result="shape"/>
</filter>
<filter id="filter1_d_232_969" x="319.927" y="51.6609" width="32.5116" height="32.5111" filterUnits="userSpaceOnUse" color-interpolation-filters="sRGB">
<feFlood flood-opacity="0" result="BackgroundImageFix"/>
<feColorMatrix in="SourceAlpha" type="matrix" values="0 0 0 0 0 0 0 0 0 0 0 0 0 0 0 0 0 0 127 0" result="hardAlpha"/>
<feOffset dx="-0.707671" dy="0.707671"/>
<feGaussianBlur stdDeviation="2.12301"/>
<feComposite in2="hardAlpha" operator="out"/>
<feColorMatrix type="matrix" values="0 0 0 0 0 0 0 0 0 0 0 0 0 0 0 0 0 0 0.25 0"/>
<feBlend mode="normal" in2="BackgroundImageFix" result="effect1_dropShadow_232_969"/>
<feBlend mode="normal" in="SourceGraphic" in2="effect1_dropShadow_232_969" result="shape"/>
</filter>
<linearGradient id="paint0_linear_232_969" x1="28.269" y1="80.3368" x2="431.566" y2="80.3368" gradientUnits="userSpaceOnUse">
<stop stop-color="#FF0801"/>
<stop offset="0.198006" stop-color="#FF8502"/>
<stop offset="0.310365" stop-color="#FFF500"/>
<stop offset="0.443361" stop-color="#8FFF00"/>
<stop offset="0.567185" stop-color="#03FFF2"/>
<stop offset="0.720818" stop-color="#0700FF"/>
<stop offset="0.833177" stop-color="#A600FE"/>
<stop offset="1" stop-color="#FF006A"/>
</linearGradient>
</defs>
</svg>
