<svg width="459" height="326" viewBox="0 0 459 326" fill="none" xmlns="http://www.w3.org/2000/svg">
<rect x="0.208008" y="0.789062" width="458.792" height="324.684" rx="8.47001" fill="white"/>
<path d="M22.5113 27.6476C21.4196 27.6476 20.5952 27.2561 20.0381 26.473C19.4884 25.6825 19.2136 24.5042 19.2136 22.9382C19.2136 21.3722 19.496 20.1977 20.0606 19.4147C20.6328 18.6242 21.4836 18.2289 22.6129 18.2289C23.2303 18.2289 23.7649 18.3607 24.2166 18.6242C24.6683 18.8802 25.0222 19.2604 25.2782 19.7648C25.5341 20.2617 25.6847 20.8678 25.7299 21.583H24.3747C24.2618 20.9355 24.0585 20.4462 23.7649 20.1149C23.4788 19.7761 23.0948 19.6067 22.6129 19.6067C21.9579 19.6067 21.4723 19.8777 21.1561 20.4198C20.8474 20.9619 20.6931 21.8014 20.6931 22.9382C20.6931 24.0751 20.8399 24.9146 21.1335 25.4566C21.4271 25.9987 21.8864 26.2698 22.5113 26.2698C22.963 26.2698 23.3282 26.1154 23.6067 25.8067C23.8853 25.4905 24.0773 25.035 24.1827 24.4402H25.5379C25.4927 25.1178 25.3422 25.6976 25.0862 26.1794C24.8377 26.6537 24.4952 27.0189 24.0585 27.2749C23.6218 27.5233 23.1061 27.6476 22.5113 27.6476ZM30.2381 27.6476C29.1239 27.6476 28.2806 27.2561 27.7084 26.473C27.1438 25.6825 26.8614 24.5042 26.8614 22.9382C26.8614 21.3722 27.1438 20.1977 27.7084 19.4147C28.2806 18.6242 29.1239 18.2289 30.2381 18.2289C31.3599 18.2289 32.2032 18.6242 32.7679 19.4147C33.3325 20.1977 33.6149 21.3722 33.6149 22.9382C33.6149 24.5042 33.3325 25.6825 32.7679 26.473C32.2032 27.2561 31.3599 27.6476 30.2381 27.6476ZM30.2381 26.2698C30.8856 26.2698 31.3637 25.9987 31.6724 25.4566C31.9811 24.9146 32.1354 24.0751 32.1354 22.9382C32.1354 21.8014 31.9811 20.9619 31.6724 20.4198C31.3637 19.8777 30.8856 19.6067 30.2381 19.6067C29.5907 19.6067 29.1126 19.8777 28.8039 20.4198C28.4952 20.9619 28.3409 21.8014 28.3409 22.9382C28.3409 24.0751 28.4952 24.9146 28.8039 25.4566C29.1126 25.9987 29.5907 26.2698 30.2381 26.2698ZM36.1016 27.4556V18.4209H37.5697V26.0552H41.3756V27.4556H36.1016ZM46.0532 27.6476C44.939 27.6476 44.0957 27.2561 43.5235 26.473C42.9589 25.6825 42.6765 24.5042 42.6765 22.9382C42.6765 21.3722 42.9589 20.1977 43.5235 19.4147C44.0957 18.6242 44.939 18.2289 46.0532 18.2289C47.175 18.2289 48.0183 18.6242 48.5829 19.4147C49.1476 20.1977 49.4299 21.3722 49.4299 22.9382C49.4299 24.5042 49.1476 25.6825 48.5829 26.473C48.0183 27.2561 47.175 27.6476 46.0532 27.6476ZM46.0532 26.2698C46.7007 26.2698 47.1788 25.9987 47.4875 25.4566C47.7962 24.9146 47.9505 24.0751 47.9505 22.9382C47.9505 21.8014 47.7962 20.9619 47.4875 20.4198C47.1788 19.8777 46.7007 19.6067 46.0532 19.6067C45.4057 19.6067 44.9277 19.8777 44.619 20.4198C44.3103 20.9619 44.156 21.8014 44.156 22.9382C44.156 24.0751 44.3103 24.9146 44.619 25.4566C44.9277 25.9987 45.4057 26.2698 46.0532 26.2698ZM51.1826 27.4556V18.4209H54.3786C54.9659 18.4209 55.4779 18.5301 55.9145 18.7484C56.3512 18.9667 56.69 19.2754 56.9309 19.6745C57.1719 20.0735 57.2923 20.5478 57.2923 21.0974C57.2923 21.6019 57.1681 22.0461 56.9196 22.43C56.6787 22.814 56.3399 23.1152 55.9032 23.3335C55.4666 23.5443 54.9584 23.6497 54.3786 23.6497H52.662V27.4556H51.1826ZM55.8468 27.4556L53.4639 23.4013H55.0449L57.5182 27.4556H55.8468ZM52.662 22.3849H54.3786C54.8153 22.3849 55.1616 22.2682 55.4176 22.0348C55.6811 21.8014 55.8129 21.4889 55.8129 21.0974C55.8129 20.7059 55.6811 20.3935 55.4176 20.1601C55.1616 19.9267 54.8153 19.81 54.3786 19.81H52.662V22.3849ZM69.5161 27.625C68.5825 27.625 67.8522 27.2297 67.3252 26.4392C66.8057 25.6411 66.546 24.4741 66.546 22.9382C66.546 21.3722 66.8321 20.1977 67.4043 19.4147C67.9765 18.6242 68.8272 18.2289 69.9566 18.2289C70.5664 18.2289 71.0934 18.3531 71.5376 18.6016C71.9818 18.85 72.3319 19.2077 72.5879 19.6745C72.8514 20.1412 73.0058 20.7059 73.0509 21.3685H71.6732C71.5677 20.7963 71.372 20.3596 71.0859 20.0584C70.8073 19.7573 70.4309 19.6067 69.9566 19.6067C69.3015 19.6067 68.8159 19.8777 68.4997 20.4198C68.1835 20.9619 68.0254 21.8014 68.0254 22.9382C68.0254 24.1127 68.1797 24.9786 68.4884 25.5357C68.8046 26.0853 69.294 26.3601 69.9566 26.3601C70.2652 26.3601 70.5401 26.266 70.781 26.0778C71.0294 25.882 71.2252 25.6223 71.3682 25.2985C71.5188 24.9748 71.5941 24.6134 71.5941 24.2144H69.7533V22.8705H72.859V27.4556H71.5941V26.7328H71.2327C71.1047 27.0114 70.8901 27.2297 70.589 27.3878C70.2878 27.5459 69.9302 27.625 69.5161 27.625ZM74.6003 18.4209H76.0798V24.3273C76.0798 24.9372 76.2228 25.4152 76.5089 25.7616C76.795 26.1004 77.194 26.2698 77.706 26.2698C78.2255 26.2698 78.6283 26.0966 78.9144 25.7503C79.2005 25.4039 79.3435 24.9221 79.3435 24.3047V18.4209H80.7665V24.4177C80.7665 25.4566 80.503 26.2547 79.976 26.8118C79.4489 27.369 78.6848 27.6476 77.6834 27.6476C76.6821 27.6476 75.9179 27.369 75.3909 26.8118C74.8638 26.2547 74.6003 25.4566 74.6003 24.4177V18.4209ZM82.8128 27.4556V18.4209H86.0088C86.5961 18.4209 87.108 18.5301 87.5447 18.7484C87.9814 18.9667 88.3202 19.2754 88.5611 19.6745C88.802 20.0735 88.9225 20.5478 88.9225 21.0974C88.9225 21.6019 88.7983 22.0461 88.5498 22.43C88.3089 22.814 87.9701 23.1152 87.5334 23.3335C87.0967 23.5443 86.5885 23.6497 86.0088 23.6497H84.2922V27.4556H82.8128ZM87.4769 27.4556L85.0941 23.4013H86.6751L89.1484 27.4556H87.4769ZM84.2922 22.3849H86.0088C86.4455 22.3849 86.7918 22.2682 87.0478 22.0348C87.3113 21.8014 87.4431 21.4889 87.4431 21.0974C87.4431 20.7059 87.3113 20.3935 87.0478 20.1601C86.7918 19.9267 86.4455 19.81 86.0088 19.81H84.2922V22.3849ZM90.3138 27.4556V18.4209H92.516L93.4646 23.4577H93.6114L94.5488 18.4209H96.6832V27.4556H95.3619V22.6785L95.441 19.5615H95.2829L94.3794 24.4628H92.6289L91.7142 19.5615H91.5561L91.6351 22.6785V27.4556H90.3138ZM98.9215 27.4556V18.4209H104.444V19.7648H100.401V22.2832H103.879V23.5594H100.401V26.1117H104.331V27.4556H98.9215ZM108.58 27.4556V19.8213H105.937V18.4209H112.69V19.8213H110.048V27.4556H108.58Z" fill="black"/>
<g clip-path="url(#clip0_232_1090)">
<rect x="33.3818" y="64.314" width="392.444" height="172.223" rx="3.52917" fill="#EFEFEF"/>
<path d="M354.472 119.037L33.3818 236.537H425.825L354.472 119.037Z" fill="#777777"/>
<path fill-rule="evenodd" clip-rule="evenodd" d="M292.069 176.797C292.069 176.212 291.595 175.738 291.01 175.738C290.425 175.738 289.951 176.212 289.951 176.797V182.542L284.208 182.542C283.623 182.542 283.149 183.016 283.149 183.6C283.149 184.185 283.623 184.659 284.208 184.659H289.951V190.404C289.951 190.988 290.425 191.462 291.01 191.462C291.595 191.462 292.069 190.988 292.069 190.404V184.659H297.815C298.399 184.659 298.874 184.185 298.874 183.6C298.874 183.016 298.399 182.542 297.815 182.542L292.069 182.542V176.797Z" fill="#F0F0F0"/>
</g>
<path d="M414.178 59.7865C413.51 59.7865 413.006 59.5442 412.667 59.0595C412.333 58.5702 412.166 57.8361 412.166 56.8573C412.166 55.8786 412.333 55.1469 412.667 54.6622C413.002 54.1728 413.505 53.9281 414.178 53.9281C414.846 53.9281 415.347 54.1728 415.681 54.6622C416.02 55.1469 416.19 55.8786 416.19 56.8573C416.19 57.8361 416.023 58.5702 415.688 59.0595C415.354 59.5442 414.851 59.7865 414.178 59.7865ZM414.178 59.1301C414.625 59.1301 414.954 58.9466 415.166 58.5796C415.383 58.2078 415.491 57.6337 415.491 56.8573C415.491 56.0809 415.383 55.5092 415.166 55.1422C414.954 54.7704 414.625 54.5845 414.178 54.5845C413.731 54.5845 413.399 54.7704 413.183 55.1422C412.971 55.5092 412.865 56.0809 412.865 56.8573C412.865 57.6337 412.971 58.2078 413.183 58.5796C413.399 58.9466 413.731 59.1301 414.178 59.1301ZM412.667 57.5914L415.667 55.3257V56.1233L412.667 58.389V57.5914ZM418.838 59.7371C418.654 59.7371 418.511 59.6854 418.407 59.5818C418.304 59.4736 418.252 59.323 418.252 59.1301C418.252 58.9372 418.304 58.789 418.407 58.6854C418.511 58.5772 418.654 58.5231 418.838 58.5231C419.026 58.5231 419.17 58.5772 419.268 58.6854C419.372 58.789 419.424 58.9372 419.424 59.1301C419.424 59.323 419.372 59.4736 419.268 59.5818C419.165 59.6854 419.021 59.7371 418.838 59.7371ZM424.705 54.034V57.3302H425.552V57.9867H424.705V59.6807H423.999V57.9867H421.444V57.055L423.477 54.034H424.705ZM422.058 57.2597V57.3302H423.999V54.1116H424.196L422.058 57.2597Z" fill="#464646"/>
<path d="M35.1605 270.889V262.983H36.287V269.831H39.6369V270.889H35.1605ZM41.7338 264.96H44.6192V269.871H46.4078V270.889H41.7338V269.871H43.5322V265.977H41.7338V264.96ZM43.9967 264.08C43.7398 264.08 43.5388 264.011 43.3939 263.873C43.249 263.728 43.1765 263.53 43.1765 263.28C43.1765 263.029 43.249 262.835 43.3939 262.697C43.5388 262.552 43.7398 262.479 43.9967 262.479C44.2536 262.479 44.4545 262.552 44.5995 262.697C44.7444 262.835 44.8169 263.029 44.8169 263.28C44.8169 263.53 44.7444 263.728 44.5995 263.873C44.4545 264.011 44.2536 264.08 43.9967 264.08ZM53.1293 270.691C53.1293 271.165 53.0239 271.577 52.8131 271.926C52.6088 272.275 52.3124 272.545 51.9237 272.737C51.5416 272.928 51.0805 273.023 50.5403 273.023C50.0396 273.023 49.6015 272.944 49.226 272.786C48.8505 272.634 48.5541 272.414 48.3367 272.124C48.1193 271.841 48.0007 271.505 47.9809 271.116H49.0185C49.1239 271.412 49.3084 271.64 49.5719 271.798C49.8354 271.956 50.1582 272.035 50.5403 272.035C51.0146 272.035 51.3835 271.91 51.647 271.659C51.9105 271.416 52.0423 271.07 52.0423 270.622V269.989H51.7458C51.6141 270.18 51.423 270.332 51.1727 270.444C50.9224 270.556 50.6523 270.612 50.3624 270.612C49.8815 270.612 49.4632 270.497 49.1074 270.266C48.7517 270.029 48.4783 269.693 48.2873 269.258C48.0962 268.823 48.0007 268.313 48.0007 267.727C48.0007 267.127 48.0962 266.61 48.2873 266.175C48.4783 265.734 48.7517 265.394 49.1074 265.157C49.4632 264.92 49.8815 264.802 50.3624 264.802C50.6589 264.802 50.9323 264.861 51.1826 264.979C51.4329 265.098 51.6207 265.256 51.7458 265.454H52.0423V264.96H53.1293V270.691ZM49.0778 267.727C49.0778 268.326 49.2095 268.794 49.4731 269.13C49.7432 269.466 50.1154 269.634 50.5897 269.634C51.0706 269.634 51.4428 269.466 51.7063 269.13C51.9764 268.794 52.1115 268.326 52.1115 267.727C52.1115 267.127 51.9764 266.659 51.7063 266.323C51.4428 265.987 51.0706 265.819 50.5897 265.819C50.1154 265.819 49.7432 265.987 49.4731 266.323C49.2095 266.659 49.0778 267.127 49.0778 267.727ZM55.2558 270.889V262.509H56.3428V265.404H56.6392C56.7907 265.213 56.9851 265.065 57.2222 264.96C57.4594 264.854 57.7196 264.802 58.0029 264.802C58.4179 264.802 58.7769 264.894 59.08 265.078C59.383 265.263 59.6202 265.523 59.7915 265.859C59.9627 266.195 60.0484 266.59 60.0484 267.045V270.889H58.9614V267.341C58.9614 266.847 58.8494 266.475 58.6254 266.225C58.408 265.968 58.0852 265.839 57.657 265.839C57.2288 265.839 56.9027 265.968 56.6787 266.225C56.4547 266.475 56.3428 266.847 56.3428 267.341V270.889H55.2558ZM64.25 263.418V264.96H66.9181V265.977H64.25V268.942C64.25 269.291 64.3225 269.561 64.4674 269.752C64.6124 269.937 64.8232 270.029 65.0998 270.029C65.3897 270.029 65.6137 269.93 65.7718 269.733C65.9365 269.528 66.0584 269.222 66.1374 268.814H67.0959C67.063 269.538 66.872 270.092 66.5228 270.474C66.1737 270.856 65.6862 271.047 65.0603 271.047C64.4542 271.047 63.9865 270.866 63.6571 270.503C63.3277 270.141 63.163 269.634 63.163 268.982V265.977H61.8587V264.96H63.163V263.418H64.25ZM69.094 270.889V264.96H70.181V265.404H70.4774C70.6289 265.213 70.8233 265.065 71.0604 264.96C71.2976 264.854 71.5578 264.802 71.8411 264.802C72.2561 264.802 72.6151 264.894 72.9182 265.078C73.2212 265.263 73.4584 265.523 73.6297 265.859C73.8009 266.195 73.8866 266.59 73.8866 267.045V270.889H72.7996V267.341C72.7996 266.847 72.6876 266.475 72.4636 266.225C72.2462 265.968 71.9234 265.839 71.4952 265.839C71.067 265.839 70.7409 265.968 70.5169 266.225C70.293 266.475 70.181 266.847 70.181 267.341V270.889H69.094ZM76.6653 267.321H80.2326L79.8669 267.835C79.8669 267.17 79.7483 266.663 79.5112 266.313C79.274 265.964 78.9282 265.79 78.4736 265.79C77.9795 265.79 77.5941 265.974 77.3175 266.343C77.0408 266.705 76.9024 267.216 76.9024 267.875C76.9024 268.58 77.0408 269.12 77.3175 269.495C77.5941 269.871 77.9894 270.059 78.5033 270.059C78.8392 270.059 79.1324 269.976 79.3827 269.812C79.6331 269.64 79.8439 269.393 80.0152 269.07H81.033C80.9341 269.479 80.7662 269.831 80.529 270.128C80.2984 270.424 80.0086 270.652 79.6594 270.81C79.3168 270.968 78.9315 271.047 78.5033 271.047C77.9499 271.047 77.4723 270.922 77.0704 270.671C76.6751 270.421 76.3721 270.059 76.1613 269.584C75.9505 269.11 75.8451 268.54 75.8451 267.875C75.8451 267.242 75.9505 266.699 76.1613 266.244C76.3787 265.783 76.685 265.427 77.0803 265.177C77.4756 264.927 77.94 264.802 78.4736 264.802C78.9809 264.802 79.4124 264.92 79.7681 265.157C80.1239 265.394 80.3972 265.74 80.5883 266.195C80.7793 266.643 80.8749 267.186 80.8749 267.825C80.8749 267.898 80.8716 267.974 80.865 268.053C80.865 268.132 80.8617 268.207 80.8551 268.28H76.6653V267.321ZM83.9006 269.07C83.9928 269.38 84.1608 269.617 84.4045 269.782C84.6483 269.947 84.9612 270.029 85.3433 270.029C85.7386 270.029 86.0416 269.96 86.2524 269.821C86.4632 269.677 86.5686 269.472 86.5686 269.209C86.5686 269.031 86.483 268.883 86.3117 268.764C86.1404 268.646 85.8868 268.563 85.5508 268.517L84.8295 268.408C84.1839 268.31 83.7062 268.119 83.3966 267.835C83.087 267.552 82.9322 267.157 82.9322 266.649C82.9322 266.076 83.143 265.625 83.5646 265.296C83.9928 264.966 84.5791 264.802 85.3235 264.802C86.0811 264.802 86.6806 264.986 87.122 265.355C87.5634 265.724 87.7973 266.238 87.8236 266.896H86.8354C86.7432 266.547 86.5686 266.281 86.3117 266.096C86.0548 265.912 85.7188 265.819 85.3038 265.819C84.8887 265.819 84.5692 265.892 84.3453 266.037C84.1213 266.175 84.0093 266.376 84.0093 266.64C84.0093 266.817 84.0949 266.966 84.2662 267.084C84.4375 267.203 84.6911 267.285 85.0271 267.331L85.7485 267.44C86.4006 267.539 86.8783 267.73 87.1813 268.013C87.4909 268.296 87.6457 268.692 87.6457 269.199C87.6457 269.581 87.5502 269.91 87.3592 270.187C87.1747 270.464 86.9112 270.678 86.5686 270.829C86.2261 270.974 85.8143 271.047 85.3334 271.047C84.5956 271.047 84.0126 270.872 83.5844 270.523C83.1627 270.174 82.9322 269.69 82.8927 269.07H83.9006ZM90.8197 269.07C90.9119 269.38 91.0799 269.617 91.3236 269.782C91.5674 269.947 91.8803 270.029 92.2624 270.029C92.6577 270.029 92.9607 269.96 93.1715 269.821C93.3823 269.677 93.4877 269.472 93.4877 269.209C93.4877 269.031 93.4021 268.883 93.2308 268.764C93.0595 268.646 92.8059 268.563 92.4699 268.517L91.7486 268.408C91.103 268.31 90.6253 268.119 90.3157 267.835C90.0061 267.552 89.8513 267.157 89.8513 266.649C89.8513 266.076 90.0621 265.625 90.4837 265.296C90.9119 264.966 91.4982 264.802 92.2426 264.802C93.0002 264.802 93.5997 264.986 94.0411 265.355C94.4825 265.724 94.7164 266.238 94.7427 266.896H93.7545C93.6623 266.547 93.4877 266.281 93.2308 266.096C92.9739 265.912 92.6379 265.819 92.2229 265.819C91.8079 265.819 91.4883 265.892 91.2644 266.037C91.0404 266.175 90.9284 266.376 90.9284 266.64C90.9284 266.817 91.014 266.966 91.1853 267.084C91.3566 267.203 91.6102 267.285 91.9462 267.331L92.6676 267.44C93.3197 267.539 93.7974 267.73 94.1004 268.013C94.41 268.296 94.5648 268.692 94.5648 269.199C94.5648 269.581 94.4693 269.91 94.2783 270.187C94.0938 270.464 93.8303 270.678 93.4877 270.829C93.1452 270.974 92.7334 271.047 92.2525 271.047C91.5147 271.047 90.9317 270.872 90.5035 270.523C90.0819 270.174 89.8513 269.69 89.8118 269.07H90.8197Z" fill="black"/>
<rect x="36.2051" y="284.182" width="28.2334" height="28.2334" rx="2.82334" fill="#D9D9D9"/>
<path d="M52.9797 297.701V299.008H47.7356V297.701H52.9797Z" fill="black"/>
<rect x="67.2622" y="284.182" width="93.1701" height="28.2334" rx="2.82334" fill="#E6E6E6"/>
<path d="M129.797 303.49C128.683 303.49 127.84 303.098 127.268 302.315C126.703 301.525 126.421 300.347 126.421 298.781C126.421 297.215 126.703 296.04 127.268 295.257C127.84 294.466 128.683 294.071 129.797 294.071C130.919 294.071 131.762 294.466 132.327 295.257C132.892 296.04 133.174 297.215 133.174 298.781C133.174 300.347 132.892 301.525 132.327 302.315C131.762 303.098 130.919 303.49 129.797 303.49ZM129.797 302.112C130.445 302.112 130.923 301.841 131.232 301.299C131.54 300.757 131.695 299.917 131.695 298.781C131.695 297.644 131.54 296.804 131.232 296.262C130.923 295.72 130.445 295.449 129.797 295.449C129.15 295.449 128.672 295.72 128.363 296.262C128.054 296.804 127.9 297.644 127.9 298.781C127.9 299.917 128.054 300.757 128.363 301.299C128.672 301.841 129.15 302.112 129.797 302.112ZM127.46 299.752L132.192 296.183V297.809L127.46 301.378V299.752ZM137.705 303.399C137.336 303.399 137.05 303.298 136.847 303.095C136.643 302.884 136.542 302.59 136.542 302.214C136.542 301.83 136.643 301.536 136.847 301.333C137.05 301.13 137.336 301.028 137.705 301.028C138.074 301.028 138.36 301.13 138.563 301.333C138.767 301.536 138.868 301.83 138.868 302.214C138.868 302.59 138.767 302.884 138.563 303.095C138.36 303.298 138.074 303.399 137.705 303.399ZM142.891 294.263H148.571V295.641H143.862L144.37 295.178V297.73H144.732C144.882 297.587 145.078 297.474 145.319 297.391C145.567 297.301 145.831 297.256 146.109 297.256C146.629 297.256 147.084 297.384 147.476 297.64C147.875 297.888 148.187 298.238 148.413 298.69C148.647 299.142 148.763 299.669 148.763 300.271C148.763 300.904 148.632 301.461 148.368 301.943C148.112 302.424 147.754 302.805 147.295 303.083C146.836 303.354 146.309 303.49 145.714 303.49C144.803 303.49 144.073 303.253 143.523 302.778C142.981 302.297 142.669 301.63 142.586 300.779H144.009C144.129 301.209 144.325 301.54 144.596 301.773C144.875 302.007 145.236 302.123 145.68 302.123C146.004 302.123 146.286 302.048 146.527 301.897C146.768 301.747 146.953 301.532 147.081 301.254C147.216 300.975 147.284 300.648 147.284 300.271C147.284 299.91 147.22 299.597 147.092 299.334C146.964 299.07 146.783 298.871 146.55 298.735C146.316 298.592 146.034 298.521 145.703 298.521C145.364 298.521 145.067 298.6 144.811 298.758C144.562 298.916 144.374 299.142 144.246 299.436H142.891V294.263Z" fill="black"/>
<rect x="163.255" y="284.182" width="28.2334" height="28.2334" rx="2.82334" fill="#D9D9D9"/>
<path d="M176.639 302.664V299.455H173.446V298.115H176.639V294.922H177.979V298.115H181.188V299.455H177.979V302.664H176.639Z" fill="black"/>
<path d="M268.522 271.047C267.58 271.047 266.872 270.708 266.398 270.029C265.93 269.344 265.696 268.313 265.696 266.936C265.696 265.559 265.936 264.531 266.417 263.853C266.905 263.168 267.636 262.825 268.611 262.825C269.138 262.825 269.593 262.937 269.975 263.161C270.357 263.385 270.657 263.715 270.874 264.149C271.098 264.578 271.23 265.101 271.269 265.721H270.232C270.139 265.121 269.955 264.667 269.678 264.357C269.408 264.041 269.052 263.883 268.611 263.883C267.998 263.883 267.547 264.13 267.257 264.624C266.967 265.118 266.822 265.889 266.822 266.936C266.822 267.983 266.957 268.754 267.228 269.248C267.504 269.742 267.936 269.989 268.522 269.989C268.944 269.989 269.283 269.845 269.54 269.555C269.797 269.265 269.968 268.843 270.054 268.29H271.091C271.052 268.876 270.927 269.377 270.716 269.792C270.505 270.2 270.212 270.513 269.836 270.731C269.467 270.941 269.029 271.047 268.522 271.047ZM272.931 270.889V262.509H274.018V265.404H274.315C274.466 265.213 274.661 265.065 274.898 264.96C275.135 264.854 275.395 264.802 275.678 264.802C276.093 264.802 276.452 264.894 276.755 265.078C277.058 265.263 277.296 265.523 277.467 265.859C277.638 266.195 277.724 266.59 277.724 267.045V270.889H276.637V267.341C276.637 266.847 276.525 266.475 276.301 266.225C276.083 265.968 275.761 265.839 275.332 265.839C274.904 265.839 274.578 265.968 274.354 266.225C274.13 266.475 274.018 266.847 274.018 267.341V270.889H272.931ZM279.672 264.96H281.985V265.394H282.281C282.4 265.203 282.561 265.058 282.765 264.96C282.97 264.854 283.204 264.802 283.467 264.802C283.941 264.802 284.317 264.97 284.594 265.306C284.87 265.635 285.009 266.089 285.009 266.669V267.529H283.882V266.827C283.882 266.162 283.612 265.829 283.072 265.829C282.729 265.829 282.472 265.984 282.301 266.294C282.136 266.597 282.054 267.051 282.054 267.657V269.871H283.892V270.889H279.85V269.871H280.967V265.977H279.672V264.96ZM289.111 271.047C288.565 271.047 288.09 270.922 287.688 270.671C287.287 270.414 286.974 270.052 286.75 269.584C286.532 269.117 286.424 268.563 286.424 267.924C286.424 267.285 286.532 266.732 286.75 266.264C286.974 265.796 287.287 265.437 287.688 265.187C288.09 264.93 288.565 264.802 289.111 264.802C289.665 264.802 290.139 264.93 290.534 265.187C290.936 265.437 291.246 265.796 291.463 266.264C291.687 266.732 291.799 267.285 291.799 267.924C291.799 268.563 291.687 269.117 291.463 269.584C291.246 270.052 290.936 270.414 290.534 270.671C290.139 270.922 289.665 271.047 289.111 271.047ZM289.111 270.029C289.619 270.029 290.014 269.845 290.297 269.476C290.58 269.107 290.722 268.59 290.722 267.924C290.722 267.259 290.58 266.742 290.297 266.373C290.014 266.004 289.619 265.819 289.111 265.819C288.604 265.819 288.209 266.004 287.926 266.373C287.642 266.742 287.501 267.259 287.501 267.924C287.501 268.59 287.642 269.107 287.926 269.476C288.209 269.845 288.604 270.029 289.111 270.029ZM293.323 264.96H294.41V265.434H295.191L294.608 265.78C294.627 265.477 294.72 265.24 294.884 265.068C295.056 264.89 295.276 264.802 295.546 264.802C295.803 264.802 296.017 264.9 296.189 265.098C296.36 265.296 296.465 265.562 296.505 265.898L295.892 265.483H297.167L296.614 265.8C296.633 265.497 296.735 265.256 296.92 265.078C297.111 264.894 297.351 264.802 297.641 264.802C297.984 264.802 298.257 264.946 298.461 265.236C298.672 265.52 298.778 265.902 298.778 266.383V270.889H297.74V266.808C297.74 266.537 297.691 266.337 297.592 266.205C297.493 266.066 297.345 265.997 297.147 265.997C296.956 265.997 296.811 266.066 296.712 266.205C296.614 266.337 296.564 266.537 296.564 266.808V270.889H295.536V266.808C295.536 266.537 295.487 266.337 295.388 266.205C295.289 266.066 295.144 265.997 294.953 265.997C294.756 265.997 294.608 266.066 294.509 266.205C294.41 266.337 294.36 266.537 294.36 266.808V270.889H293.323V264.96ZM304.294 267.183V268.142L302.515 268.418C302.238 268.464 302.031 268.56 301.892 268.705C301.761 268.85 301.695 269.041 301.695 269.278C301.695 269.502 301.777 269.683 301.942 269.821C302.113 269.96 302.33 270.029 302.594 270.029C302.884 270.029 303.147 269.96 303.384 269.821C303.628 269.683 303.822 269.499 303.967 269.268C304.112 269.031 304.185 268.771 304.185 268.487V267.035C304.185 266.653 304.07 266.353 303.839 266.136C303.608 265.918 303.292 265.809 302.89 265.809C302.607 265.809 302.353 265.856 302.129 265.948C301.905 266.04 301.721 266.175 301.576 266.353C301.438 266.531 301.342 266.748 301.289 267.005H300.252C300.285 266.551 300.413 266.159 300.637 265.829C300.868 265.5 301.177 265.246 301.566 265.068C301.955 264.89 302.406 264.802 302.92 264.802C303.658 264.802 304.228 264.989 304.629 265.365C305.038 265.74 305.242 266.274 305.242 266.966V270.889H304.185V270.345H303.888C303.73 270.569 303.523 270.74 303.266 270.859C303.015 270.978 302.706 271.037 302.337 271.037C301.975 271.037 301.658 270.968 301.388 270.829C301.125 270.684 300.917 270.484 300.766 270.227C300.621 269.97 300.548 269.67 300.548 269.327C300.548 268.833 300.706 268.428 301.023 268.112C301.339 267.789 301.79 267.582 302.376 267.489L304.294 267.183Z" fill="black"/>
<rect x="267.719" y="284.182" width="28.2334" height="28.2334" rx="2.82334" fill="#D9D9D9"/>
<path d="M284.493 297.701V299.008H279.249V297.701H284.493Z" fill="black"/>
<rect x="298.775" y="284.182" width="93.1701" height="28.2334" rx="2.82334" fill="#E6E6E6"/>
<path d="M361.311 303.49C360.196 303.49 359.353 303.098 358.781 302.315C358.216 301.525 357.934 300.347 357.934 298.781C357.934 297.215 358.216 296.04 358.781 295.257C359.353 294.466 360.196 294.071 361.311 294.071C362.432 294.071 363.276 294.466 363.84 295.257C364.405 296.04 364.687 297.215 364.687 298.781C364.687 300.347 364.405 301.525 363.84 302.315C363.276 303.098 362.432 303.49 361.311 303.49ZM361.311 302.112C361.958 302.112 362.436 301.841 362.745 301.299C363.054 300.757 363.208 299.917 363.208 298.781C363.208 297.644 363.054 296.804 362.745 296.262C362.436 295.72 361.958 295.449 361.311 295.449C360.663 295.449 360.185 295.72 359.876 296.262C359.568 296.804 359.413 297.644 359.413 298.781C359.413 299.917 359.568 300.757 359.876 301.299C360.185 301.841 360.663 302.112 361.311 302.112ZM358.973 299.752L363.705 296.183V297.809L358.973 301.378V299.752ZM369.218 303.399C368.849 303.399 368.563 303.298 368.36 303.095C368.157 302.884 368.055 302.59 368.055 302.214C368.055 301.83 368.157 301.536 368.36 301.333C368.563 301.13 368.849 301.028 369.218 301.028C369.587 301.028 369.873 301.13 370.076 301.333C370.28 301.536 370.381 301.83 370.381 302.214C370.381 302.59 370.28 302.884 370.076 303.095C369.873 303.298 369.587 303.399 369.218 303.399ZM374.404 294.263H380.085V295.641H375.375L375.883 295.178V297.73H376.245C376.395 297.587 376.591 297.474 376.832 297.391C377.08 297.301 377.344 297.256 377.623 297.256C378.142 297.256 378.598 297.384 378.989 297.64C379.388 297.888 379.701 298.238 379.926 298.69C380.16 299.142 380.277 299.669 380.277 300.271C380.277 300.904 380.145 301.461 379.881 301.943C379.625 302.424 379.268 302.805 378.808 303.083C378.349 303.354 377.822 303.49 377.227 303.49C376.316 303.49 375.586 303.253 375.036 302.778C374.494 302.297 374.182 301.63 374.099 300.779H375.522C375.642 301.209 375.838 301.54 376.109 301.773C376.388 302.007 376.749 302.123 377.193 302.123C377.517 302.123 377.8 302.048 378.04 301.897C378.281 301.747 378.466 301.532 378.594 301.254C378.729 300.975 378.797 300.648 378.797 300.271C378.797 299.91 378.733 299.597 378.605 299.334C378.477 299.07 378.296 298.871 378.063 298.735C377.83 298.592 377.547 298.521 377.216 298.521C376.877 298.521 376.58 298.6 376.324 298.758C376.075 298.916 375.887 299.142 375.759 299.436H374.404V294.263Z" fill="black"/>
<rect x="394.769" y="284.182" width="28.2334" height="28.2334" rx="2.82334" fill="#D9D9D9"/>
<path d="M408.153 302.664V299.455H404.96V298.115H408.153V294.922H409.493V298.115H412.702V299.455H409.493V302.664H408.153Z" fill="black"/>
<path d="M35.8523 246.807C35.1841 246.807 34.6806 246.565 34.3418 246.08C34.0077 245.591 33.8406 244.857 33.8406 243.878C33.8406 242.899 34.0077 242.167 34.3418 241.683C34.6759 241.193 35.1794 240.949 35.8523 240.949C36.5204 240.949 37.0216 241.193 37.3557 241.683C37.6945 242.167 37.8639 242.899 37.8639 243.878C37.8639 244.857 37.6968 245.591 37.3627 246.08C37.0286 246.565 36.5251 246.807 35.8523 246.807ZM35.8523 246.151C36.2993 246.151 36.6287 245.967 36.8404 245.6C37.0569 245.228 37.1651 244.654 37.1651 243.878C37.1651 243.101 37.0569 242.53 36.8404 242.163C36.6287 241.791 36.2993 241.605 35.8523 241.605C35.4052 241.605 35.0735 241.791 34.857 242.163C34.6453 242.53 34.5394 243.101 34.5394 243.878C34.5394 244.654 34.6453 245.228 34.857 245.6C35.0735 245.967 35.4052 246.151 35.8523 246.151ZM34.3418 244.612L37.3416 242.346V243.144L34.3418 245.409V244.612Z" fill="#464646"/>
<path d="M45.7135 240.913C45.1911 241.092 44.7959 241.445 44.5276 241.972C44.2641 242.494 44.1324 243.177 44.1324 244.019C44.1324 244.861 44.2641 245.544 44.5276 246.066C44.7959 246.588 45.1911 246.941 45.7135 247.125V247.732C45.2194 247.614 44.8029 247.393 44.4641 247.068C44.13 246.748 43.8783 246.334 43.7089 245.826C43.5395 245.313 43.4548 244.711 43.4548 244.019C43.4548 243.323 43.5395 242.72 43.7089 242.212C43.8783 241.699 44.13 241.283 44.4641 240.963C44.8029 240.643 45.2194 240.424 45.7135 240.306V240.913ZM47.3312 240.716H49.2934V246.066H50.578V246.701H47.3312V246.066H48.6158V241.351H47.3312V240.716ZM51.9558 242.48H53.918V246.066H55.2026V246.701H51.9558V246.066H53.2404V243.116H51.9558V242.48ZM53.5227 241.845C53.3627 241.845 53.2357 241.798 53.1416 241.704C53.0522 241.605 53.0075 241.466 53.0075 241.287C53.0075 241.113 53.0522 240.979 53.1416 240.885C53.2357 240.786 53.3627 240.737 53.5227 240.737C53.6874 240.737 53.8145 240.786 53.9039 240.885C53.9933 240.979 54.038 241.116 54.038 241.294C54.038 241.469 53.9933 241.605 53.9039 241.704C53.8145 241.798 53.6874 241.845 53.5227 241.845ZM59.5802 246.581C59.5802 246.92 59.5072 247.212 59.3614 247.456C59.2202 247.701 59.0155 247.889 58.7473 248.021C58.4791 248.153 58.1544 248.219 57.7732 248.219C57.4297 248.219 57.1262 248.165 56.8627 248.056C56.5992 247.953 56.3921 247.8 56.2416 247.598C56.091 247.4 56.0063 247.165 55.9875 246.892H56.6368C56.7027 247.118 56.8345 247.292 57.0321 247.414C57.2344 247.541 57.4815 247.605 57.7732 247.605C58.1309 247.605 58.4085 247.511 58.6061 247.322C58.8037 247.139 58.9026 246.88 58.9026 246.546V246.031H58.7049C58.6108 246.177 58.4697 246.292 58.2814 246.376C58.0932 246.461 57.8909 246.504 57.6744 246.504C57.3309 246.504 57.0321 246.421 56.778 246.256C56.5286 246.087 56.3357 245.849 56.1992 245.544C56.0628 245.233 55.9945 244.868 55.9945 244.45C55.9945 244.021 56.0628 243.654 56.1992 243.348C56.3357 243.038 56.5286 242.798 56.778 242.629C57.0321 242.459 57.3309 242.374 57.6744 242.374C57.8956 242.374 58.0979 242.419 58.2814 242.509C58.4697 242.598 58.6108 242.718 58.7049 242.868H58.9026V242.48H59.5802V246.581ZM56.6721 244.45C56.6721 244.906 56.7709 245.261 56.9686 245.515C57.1709 245.765 57.4509 245.889 57.8085 245.889C58.1661 245.889 58.4438 245.765 58.6414 245.515C58.8437 245.261 58.9449 244.906 58.9449 244.45C58.9449 243.993 58.8437 243.64 58.6414 243.391C58.4438 243.137 58.1661 243.01 57.8085 243.01C57.4509 243.01 57.1709 243.137 56.9686 243.391C56.7709 243.64 56.6721 243.993 56.6721 244.45ZM60.7744 246.701V240.716H61.452V242.819H61.6496C61.7579 242.678 61.899 242.57 62.0731 242.494C62.2472 242.414 62.4378 242.374 62.6449 242.374C62.946 242.374 63.2048 242.44 63.4213 242.572C63.6377 242.704 63.8048 242.89 63.9224 243.13C64.0448 243.365 64.1059 243.645 64.1059 243.97V246.701H63.4283V244.153C63.4283 243.786 63.3436 243.506 63.1742 243.313C63.0048 243.12 62.7601 243.024 62.4402 243.024C62.1202 243.024 61.8755 243.12 61.7061 243.313C61.5367 243.506 61.452 243.786 61.452 244.153V246.701H60.7744ZM66.6695 241.407V242.48H68.5964V243.116H66.6695V245.339C66.6695 245.612 66.726 245.819 66.8389 245.96C66.9518 246.101 67.1165 246.172 67.333 246.172C67.5588 246.172 67.7353 246.097 67.8624 245.946C67.9894 245.791 68.0765 245.558 68.1235 245.247H68.7305C68.707 245.755 68.5729 246.144 68.3282 246.412C68.0835 246.675 67.7424 246.807 67.3047 246.807C66.8859 246.807 66.5613 246.682 66.3307 246.433C66.1048 246.179 65.9919 245.821 65.9919 245.36V243.116H65.032V242.48H65.9919V241.407H66.6695ZM69.8118 246.701V242.48H70.4894V242.819H70.6871C70.7953 242.678 70.9365 242.57 71.1106 242.494C71.2847 242.414 71.4752 242.374 71.6823 242.374C71.9834 242.374 72.2423 242.44 72.4587 242.572C72.6752 242.704 72.8422 242.89 72.9599 243.13C73.0822 243.365 73.1434 243.645 73.1434 243.97V246.701H72.4658V244.153C72.4658 243.786 72.3811 243.506 72.2117 243.313C72.0423 243.12 71.7976 243.024 71.4776 243.024C71.1576 243.024 70.9129 243.12 70.7435 243.313C70.5741 243.506 70.4894 243.786 70.4894 244.153V246.701H69.8118ZM74.7046 244.21H77.3162L77.0833 244.506C77.0833 244.012 76.9939 243.636 76.8151 243.377C76.6363 243.118 76.3751 242.988 76.0316 242.988C75.6599 242.988 75.3705 243.127 75.1634 243.405C74.9611 243.678 74.8599 244.061 74.8599 244.555C74.8599 245.087 74.9634 245.494 75.1705 245.777C75.3775 246.054 75.674 246.193 76.0598 246.193C76.3186 246.193 76.5422 246.127 76.7304 245.995C76.9186 245.859 77.0715 245.661 77.1892 245.402H77.8244C77.7538 245.694 77.6362 245.946 77.4715 246.158C77.3068 246.369 77.1045 246.532 76.8645 246.645C76.6292 246.753 76.361 246.807 76.0598 246.807C75.6693 246.807 75.3352 246.72 75.0576 246.546C74.7799 246.367 74.5658 246.111 74.4152 245.777C74.2694 245.438 74.1964 245.031 74.1964 244.555C74.1964 244.104 74.2717 243.715 74.4223 243.391C74.5729 243.066 74.7846 242.817 75.0576 242.643C75.3352 242.464 75.6599 242.374 76.0316 242.374C76.3892 242.374 76.6927 242.457 76.9421 242.621C77.1915 242.786 77.3821 243.028 77.5139 243.348C77.6456 243.664 77.7115 244.047 77.7115 244.499C77.7115 244.551 77.7091 244.605 77.7044 244.661C77.7044 244.713 77.7021 244.762 77.6974 244.81H74.7046V244.21ZM79.4422 245.417C79.5033 245.661 79.6233 245.849 79.8021 245.981C79.9857 246.108 80.2233 246.172 80.515 246.172C80.8162 246.172 81.0468 246.115 81.2067 246.002C81.3667 245.889 81.4467 245.729 81.4467 245.522C81.4467 245.377 81.3832 245.257 81.2562 245.162C81.1291 245.068 80.9385 245.002 80.6844 244.965L80.1551 244.887C79.7033 244.821 79.3716 244.69 79.1598 244.492C78.9481 244.294 78.8422 244.021 78.8422 243.673C78.8422 243.268 78.9881 242.951 79.2798 242.72C79.5763 242.49 79.9833 242.374 80.5009 242.374C81.0279 242.374 81.442 242.506 81.7432 242.77C82.049 243.028 82.2137 243.393 82.2373 243.864H81.6161C81.555 243.586 81.4303 243.374 81.242 243.228C81.0538 243.083 80.8044 243.01 80.4939 243.01C80.1786 243.01 79.9362 243.068 79.7668 243.186C79.5974 243.299 79.5127 243.459 79.5127 243.666C79.5127 243.812 79.5763 243.932 79.7033 244.026C79.8304 244.115 80.0233 244.179 80.2821 244.217L80.8115 244.294C81.2632 244.365 81.5926 244.499 81.7996 244.697C82.0114 244.894 82.1173 245.167 82.1173 245.515C82.1173 245.784 82.0514 246.014 81.9196 246.207C81.7926 246.4 81.6091 246.548 81.3691 246.652C81.1291 246.755 80.8421 246.807 80.508 246.807C79.9951 246.807 79.5904 246.687 79.2939 246.447C79.0022 246.202 78.8422 245.859 78.814 245.417H79.4422ZM83.9609 245.417C84.022 245.661 84.142 245.849 84.3208 245.981C84.5044 246.108 84.742 246.172 85.0337 246.172C85.3349 246.172 85.5655 246.115 85.7255 246.002C85.8854 245.889 85.9654 245.729 85.9654 245.522C85.9654 245.377 85.9019 245.257 85.7749 245.162C85.6478 245.068 85.4572 245.002 85.2031 244.965L84.6738 244.887C84.222 244.821 83.8903 244.69 83.6785 244.492C83.4668 244.294 83.3609 244.021 83.3609 243.673C83.3609 243.268 83.5068 242.951 83.7985 242.72C84.095 242.49 84.502 242.374 85.0196 242.374C85.5466 242.374 85.9607 242.506 86.2619 242.77C86.5678 243.028 86.7324 243.393 86.756 243.864H86.1348C86.0737 243.586 85.949 243.374 85.7608 243.228C85.5725 243.083 85.3231 243.01 85.0126 243.01C84.6973 243.01 84.455 243.068 84.2856 243.186C84.1162 243.299 84.0315 243.459 84.0315 243.666C84.0315 243.812 84.095 243.932 84.222 244.026C84.3491 244.115 84.542 244.179 84.8008 244.217L85.3302 244.294C85.7819 244.365 86.1113 244.499 86.3184 244.697C86.5301 244.894 86.636 245.167 86.636 245.515C86.636 245.784 86.5701 246.014 86.4384 246.207C86.3113 246.4 86.1278 246.548 85.8878 246.652C85.6478 246.755 85.3608 246.807 85.0267 246.807C84.5138 246.807 84.1091 246.687 83.8126 246.447C83.5209 246.202 83.3609 245.859 83.3327 245.417H83.9609ZM88.1196 240.913V240.306C88.6184 240.424 89.0348 240.643 89.3689 240.963C89.703 241.283 89.9548 241.699 90.1242 242.212C90.2936 242.72 90.3783 243.323 90.3783 244.019C90.3783 244.711 90.2936 245.313 90.1242 245.826C89.9548 246.334 89.703 246.748 89.3689 247.068C89.0348 247.393 88.6184 247.614 88.1196 247.732V247.125C88.6419 246.941 89.0348 246.588 89.2984 246.066C89.5666 245.544 89.7007 244.861 89.7007 244.019C89.7007 243.177 89.5666 242.494 89.2984 241.972C89.0348 241.445 88.6419 241.092 88.1196 240.913Z" fill="#464646"/>
<path d="M376.521 53.8928C375.999 54.0716 375.603 54.4246 375.335 54.9516C375.072 55.4739 374.94 56.1562 374.94 56.9985C374.94 57.8408 375.072 58.5231 375.335 59.0454C375.603 59.5677 375.999 59.9206 376.521 60.1042V60.7112C376.027 60.5935 375.611 60.3724 375.272 60.0477C374.938 59.7277 374.686 59.3136 374.516 58.8054C374.347 58.2925 374.262 57.6902 374.262 56.9985C374.262 56.3021 374.347 55.6998 374.516 55.1916C374.686 54.6787 374.938 54.2622 375.272 53.9422C375.611 53.6223 376.027 53.4034 376.521 53.2858V53.8928ZM379.741 59.7865C379.36 59.7865 379.031 59.6995 378.753 59.5254C378.475 59.3466 378.261 59.0925 378.111 58.7631C377.96 58.4337 377.885 58.0431 377.885 57.5914C377.885 57.1303 377.962 56.7326 378.118 56.3985C378.273 56.0644 378.494 55.808 378.781 55.6292C379.068 55.4457 379.409 55.3539 379.805 55.3539C380.148 55.3539 380.447 55.4245 380.701 55.5657C380.955 55.7068 381.155 55.9068 381.301 56.1656C381.452 56.4244 381.534 56.7303 381.548 57.0832H380.927C380.87 56.735 380.743 56.4668 380.546 56.2785C380.348 56.0856 380.094 55.9892 379.783 55.9892C379.393 55.9892 379.092 56.1303 378.88 56.4127C378.668 56.6903 378.562 57.0832 378.562 57.5914C378.562 58.0902 378.663 58.476 378.866 58.749C379.073 59.0172 379.365 59.1513 379.741 59.1513C380.023 59.1513 380.259 59.0666 380.447 58.8972C380.635 58.7278 380.765 58.4902 380.835 58.1843H381.456C381.428 58.5137 381.339 58.7984 381.188 59.0384C381.037 59.2783 380.837 59.4642 380.588 59.596C380.343 59.723 380.061 59.7865 379.741 59.7865ZM382.545 59.6807V53.6952H383.222V55.7986H383.42C383.528 55.6574 383.669 55.5492 383.843 55.4739C384.017 55.3939 384.208 55.3539 384.415 55.3539C384.716 55.3539 384.975 55.4198 385.191 55.5515C385.408 55.6833 385.575 55.8692 385.693 56.1091C385.815 56.3444 385.876 56.6244 385.876 56.9491V59.6807H385.199V57.1326C385.199 56.7656 385.114 56.4856 384.944 56.2927C384.775 56.0997 384.53 56.0033 384.21 56.0033C383.89 56.0033 383.646 56.0997 383.476 56.2927C383.307 56.4856 383.222 56.7656 383.222 57.1326V59.6807H382.545ZM386.901 55.4598H388.496V55.7845H388.694C388.783 55.648 388.901 55.5421 389.047 55.4668C389.197 55.3915 389.369 55.3539 389.562 55.3539C389.905 55.3539 390.174 55.4692 390.367 55.6998C390.564 55.9303 390.663 56.2503 390.663 56.6597V57.2808H389.957V56.7656C389.957 56.2527 389.748 55.9962 389.329 55.9962C389.061 55.9962 388.861 56.1115 388.729 56.3421C388.597 56.5679 388.531 56.9067 388.531 57.3585V59.0454H389.894V59.6807H387.042V59.0454H387.854V56.095H386.901V55.4598ZM393.205 59.7865C392.824 59.7865 392.493 59.6971 392.21 59.5183C391.928 59.3395 391.709 59.0854 391.554 58.756C391.403 58.4219 391.328 58.0267 391.328 57.5702C391.328 57.1138 391.403 56.7209 391.554 56.3915C391.709 56.0621 391.928 55.808 392.21 55.6292C392.493 55.4457 392.824 55.3539 393.205 55.3539C393.591 55.3539 393.923 55.4457 394.201 55.6292C394.483 55.808 394.699 56.0621 394.85 56.3915C395.005 56.7209 395.083 57.1138 395.083 57.5702C395.083 58.0267 395.005 58.4219 394.85 58.756C394.699 59.0854 394.483 59.3395 394.201 59.5183C393.923 59.6971 393.591 59.7865 393.205 59.7865ZM393.205 59.1513C393.587 59.1513 393.881 59.0125 394.088 58.7348C394.299 58.4572 394.405 58.069 394.405 57.5702C394.405 57.0714 394.299 56.6832 394.088 56.4056C393.881 56.128 393.587 55.9892 393.205 55.9892C392.829 55.9892 392.535 56.128 392.323 56.4056C392.111 56.6832 392.006 57.0714 392.006 57.5702C392.006 58.069 392.111 58.4572 392.323 58.7348C392.535 59.0125 392.829 59.1513 393.205 59.1513ZM395.818 55.4598H396.496V55.7915H396.99L396.616 56.0103C396.635 55.8033 396.705 55.6433 396.828 55.5304C396.95 55.4127 397.108 55.3539 397.301 55.3539C397.484 55.3539 397.639 55.4221 397.767 55.5586C397.894 55.6903 397.974 55.8715 398.006 56.1021L397.618 55.8268H398.43L398.077 56.0386C398.096 55.8268 398.174 55.6598 398.31 55.5374C398.446 55.4151 398.616 55.3539 398.818 55.3539C399.072 55.3539 399.275 55.4574 399.425 55.6645C399.58 55.8668 399.658 56.1421 399.658 56.4903V59.6807H399.009V56.7373C399.009 56.5256 398.969 56.3656 398.889 56.2574C398.809 56.1491 398.689 56.095 398.529 56.095C398.374 56.095 398.256 56.1491 398.176 56.2574C398.101 56.3656 398.063 56.5256 398.063 56.7373V59.6807H397.414V56.7373C397.414 56.5256 397.374 56.3656 397.294 56.2574C397.218 56.1491 397.103 56.095 396.948 56.095C396.788 56.095 396.668 56.1491 396.588 56.2574C396.508 56.3656 396.468 56.5256 396.468 56.7373V59.6807H395.818V55.4598ZM403.245 57.0761V57.6832L401.925 57.8808C401.709 57.9184 401.546 57.9961 401.438 58.1137C401.33 58.2266 401.276 58.3749 401.276 58.5584C401.276 58.7372 401.339 58.8831 401.466 58.996C401.598 59.1042 401.772 59.1583 401.989 59.1583C402.205 59.1583 402.403 59.1066 402.582 59.0031C402.76 58.8995 402.902 58.7607 403.005 58.5866C403.113 58.4125 403.168 58.2172 403.168 58.0008V56.9138C403.168 56.6221 403.08 56.3938 402.906 56.2291C402.737 56.0644 402.499 55.9821 402.193 55.9821C401.977 55.9821 401.786 56.0197 401.622 56.095C401.457 56.1656 401.321 56.2691 401.212 56.4056C401.109 56.5421 401.041 56.7091 401.008 56.9067H400.358C400.382 56.5868 400.474 56.3115 400.634 56.0809C400.794 55.8456 401.008 55.6668 401.276 55.5445C401.544 55.4174 401.857 55.3539 402.215 55.3539C402.728 55.3539 403.123 55.4857 403.4 55.7492C403.683 56.008 403.824 56.3797 403.824 56.8644V59.6807H403.168V59.2713H402.97C402.857 59.436 402.704 59.563 402.511 59.6524C402.323 59.7418 402.097 59.7865 401.833 59.7865C401.575 59.7865 401.349 59.7371 401.156 59.6383C400.968 59.5348 400.822 59.3936 400.718 59.2148C400.615 59.036 400.563 58.8266 400.563 58.5866C400.563 58.2384 400.671 57.9537 400.888 57.7326C401.109 57.5114 401.424 57.3679 401.833 57.302L403.245 57.0761ZM405.371 53.8928V53.2858C405.87 53.4034 406.286 53.6223 406.62 53.9422C406.955 54.2622 407.206 54.6787 407.376 55.1916C407.545 55.6998 407.63 56.3021 407.63 56.9985C407.63 57.6902 407.545 58.2925 407.376 58.8054C407.206 59.3136 406.955 59.7277 406.62 60.0477C406.286 60.3724 405.87 60.5935 405.371 60.7112V60.1042C405.893 59.9206 406.286 59.5677 406.55 59.0454C406.818 58.5231 406.952 57.8408 406.952 56.9985C406.952 56.1562 406.818 55.4739 406.55 54.9516C406.286 54.4246 405.893 54.0716 405.371 53.8928Z" fill="#464646"/>
<path d="M423.918 241.055V246.045H425.316V246.701H421.674V246.045H423.22V241.344L423.431 241.45L421.674 242.586V241.831L422.902 241.055H423.918Z" fill="#464646"/>
<line x1="17.8252" y1="40.048" x2="441.383" y2="40.048" stroke="#A7A7A7" stroke-width="0.705834" stroke-dasharray="1.41 1.41"/>
<defs>
<clipPath id="clip0_232_1090">
<rect x="33.3818" y="64.314" width="392.444" height="172.223" rx="3.52917" fill="white"/>
</clipPath>
</defs>
</svg>
