<svg width="459" height="326" viewBox="0 0 459 326" fill="none" xmlns="http://www.w3.org/2000/svg">
<rect y="0.789062" width="458.792" height="324.684" rx="8.47001" fill="white"/>
<path d="M22.3033 27.6476C21.2116 27.6476 20.3872 27.2561 19.83 26.473C19.2804 25.6825 19.0056 24.5042 19.0056 22.9382C19.0056 21.3722 19.288 20.1977 19.8526 19.4147C20.4248 18.6242 21.2756 18.2289 22.4049 18.2289C23.0223 18.2289 23.5568 18.3607 24.0086 18.6242C24.4603 18.8802 24.8142 19.2604 25.0702 19.7648C25.3261 20.2617 25.4767 20.8678 25.5219 21.583H24.1667C24.0538 20.9355 23.8505 20.4462 23.5568 20.1149C23.2707 19.7761 22.8868 19.6067 22.4049 19.6067C21.7499 19.6067 21.2643 19.8777 20.9481 20.4198C20.6394 20.9619 20.4851 21.8014 20.4851 22.9382C20.4851 24.0751 20.6319 24.9146 20.9255 25.4566C21.2191 25.9987 21.6784 26.2698 22.3033 26.2698C22.755 26.2698 23.1202 26.1154 23.3987 25.8067C23.6773 25.4905 23.8693 25.035 23.9747 24.4402H25.3299C25.2847 25.1178 25.1341 25.6976 24.8782 26.1794C24.6297 26.6537 24.2871 27.0189 23.8505 27.2749C23.4138 27.5233 22.8981 27.6476 22.3033 27.6476ZM30.0301 27.6476C28.9159 27.6476 28.0726 27.2561 27.5004 26.473C26.9358 25.6825 26.6534 24.5042 26.6534 22.9382C26.6534 21.3722 26.9358 20.1977 27.5004 19.4147C28.0726 18.6242 28.9159 18.2289 30.0301 18.2289C31.1519 18.2289 31.9952 18.6242 32.5598 19.4147C33.1245 20.1977 33.4068 21.3722 33.4068 22.9382C33.4068 24.5042 33.1245 25.6825 32.5598 26.473C31.9952 27.2561 31.1519 27.6476 30.0301 27.6476ZM30.0301 26.2698C30.6776 26.2698 31.1557 25.9987 31.4644 25.4566C31.7731 24.9146 31.9274 24.0751 31.9274 22.9382C31.9274 21.8014 31.7731 20.9619 31.4644 20.4198C31.1557 19.8777 30.6776 19.6067 30.0301 19.6067C29.3827 19.6067 28.9046 19.8777 28.5959 20.4198C28.2872 20.9619 28.1329 21.8014 28.1329 22.9382C28.1329 24.0751 28.2872 24.9146 28.5959 25.4566C28.9046 25.9987 29.3827 26.2698 30.0301 26.2698ZM35.8936 27.4556V18.4209H37.3617V26.0552H41.1676V27.4556H35.8936ZM45.8452 27.6476C44.731 27.6476 43.8877 27.2561 43.3155 26.473C42.7509 25.6825 42.4685 24.5042 42.4685 22.9382C42.4685 21.3722 42.7509 20.1977 43.3155 19.4147C43.8877 18.6242 44.731 18.2289 45.8452 18.2289C46.967 18.2289 47.8103 18.6242 48.3749 19.4147C48.9396 20.1977 49.2219 21.3722 49.2219 22.9382C49.2219 24.5042 48.9396 25.6825 48.3749 26.473C47.8103 27.2561 46.967 27.6476 45.8452 27.6476ZM45.8452 26.2698C46.4927 26.2698 46.9708 25.9987 47.2795 25.4566C47.5882 24.9146 47.7425 24.0751 47.7425 22.9382C47.7425 21.8014 47.5882 20.9619 47.2795 20.4198C46.9708 19.8777 46.4927 19.6067 45.8452 19.6067C45.1977 19.6067 44.7197 19.8777 44.411 20.4198C44.1023 20.9619 43.9479 21.8014 43.9479 22.9382C43.9479 24.0751 44.1023 24.9146 44.411 25.4566C44.7197 25.9987 45.1977 26.2698 45.8452 26.2698ZM50.9746 27.4556V18.4209H54.1706C54.7579 18.4209 55.2698 18.5301 55.7065 18.7484C56.1432 18.9667 56.482 19.2754 56.7229 19.6745C56.9638 20.0735 57.0843 20.5478 57.0843 21.0974C57.0843 21.6019 56.9601 22.0461 56.7116 22.43C56.4707 22.814 56.1319 23.1152 55.6952 23.3335C55.2586 23.5443 54.7504 23.6497 54.1706 23.6497H52.454V27.4556H50.9746ZM55.6388 27.4556L53.2559 23.4013H54.8369L57.3102 27.4556H55.6388ZM52.454 22.3849H54.1706C54.6073 22.3849 54.9536 22.2682 55.2096 22.0348C55.4731 21.8014 55.6049 21.4889 55.6049 21.0974C55.6049 20.7059 55.4731 20.3935 55.2096 20.1601C54.9536 19.9267 54.6073 19.81 54.1706 19.81H52.454V22.3849ZM69.3081 27.625C68.3745 27.625 67.6442 27.2297 67.1172 26.4392C66.5977 25.6411 66.338 24.4741 66.338 22.9382C66.338 21.3722 66.6241 20.1977 67.1963 19.4147C67.7685 18.6242 68.6192 18.2289 69.7486 18.2289C70.3584 18.2289 70.8854 18.3531 71.3296 18.6016C71.7738 18.85 72.1239 19.2077 72.3799 19.6745C72.6434 20.1412 72.7978 20.7059 72.8429 21.3685H71.4651C71.3597 20.7963 71.164 20.3596 70.8779 20.0584C70.5993 19.7573 70.2229 19.6067 69.7486 19.6067C69.0935 19.6067 68.6079 19.8777 68.2917 20.4198C67.9755 20.9619 67.8174 21.8014 67.8174 22.9382C67.8174 24.1127 67.9717 24.9786 68.2804 25.5357C68.5966 26.0853 69.086 26.3601 69.7486 26.3601C70.0572 26.3601 70.332 26.266 70.573 26.0778C70.8214 25.882 71.0172 25.6223 71.1602 25.2985C71.3108 24.9748 71.3861 24.6134 71.3861 24.2144H69.5453V22.8705H72.6509V27.4556H71.3861V26.7328H71.0247C70.8967 27.0114 70.6821 27.2297 70.381 27.3878C70.0798 27.5459 69.7222 27.625 69.3081 27.625ZM74.3923 18.4209H75.8718V24.3273C75.8718 24.9372 76.0148 25.4152 76.3009 25.7616C76.587 26.1004 76.986 26.2698 77.498 26.2698C78.0175 26.2698 78.4203 26.0966 78.7064 25.7503C78.9925 25.4039 79.1355 24.9221 79.1355 24.3047V18.4209H80.5585V24.4177C80.5585 25.4566 80.295 26.2547 79.768 26.8118C79.2409 27.369 78.4767 27.6476 77.4754 27.6476C76.4741 27.6476 75.7099 27.369 75.1829 26.8118C74.6558 26.2547 74.3923 25.4566 74.3923 24.4177V18.4209ZM82.6048 27.4556V18.4209H85.8008C86.3881 18.4209 86.9 18.5301 87.3367 18.7484C87.7734 18.9667 88.1122 19.2754 88.3531 19.6745C88.594 20.0735 88.7145 20.5478 88.7145 21.0974C88.7145 21.6019 88.5903 22.0461 88.3418 22.43C88.1009 22.814 87.7621 23.1152 87.3254 23.3335C86.8887 23.5443 86.3805 23.6497 85.8008 23.6497H84.0842V27.4556H82.6048ZM87.2689 27.4556L84.886 23.4013H86.4671L88.9404 27.4556H87.2689ZM84.0842 22.3849H85.8008C86.2375 22.3849 86.5838 22.2682 86.8398 22.0348C87.1033 21.8014 87.2351 21.4889 87.2351 21.0974C87.2351 20.7059 87.1033 20.3935 86.8398 20.1601C86.5838 19.9267 86.2375 19.81 85.8008 19.81H84.0842V22.3849ZM90.1058 27.4556V18.4209H92.308L93.2566 23.4577H93.4034L94.3408 18.4209H96.4752V27.4556H95.1539V22.6785L95.233 19.5615H95.0748L94.1714 24.4628H92.4209L91.5062 19.5615H91.348L91.4271 22.6785V27.4556H90.1058ZM98.7135 27.4556V18.4209H104.236V19.7648H100.193V22.2832H103.671V23.5594H100.193V26.1117H104.123V27.4556H98.7135ZM108.372 27.4556V19.8213H105.729V18.4209H112.482V19.8213H109.84V27.4556H108.372Z" fill="black"/>
<g clip-path="url(#clip0_232_1125)">
<rect x="33.1738" y="64.314" width="392.444" height="172.223" rx="3.52917" fill="#EFEFEF"/>
<path d="M354.264 119.037L33.1738 236.537H425.617L354.264 119.037Z" fill="#777777"/>
<line x1="290.77" y1="62.4531" x2="290.77" y2="233.677" stroke="white" stroke-linecap="round" stroke-dasharray="1 8"/>
<line x1="429.346" y1="183.466" x2="168.672" y2="183.466" stroke="white" stroke-linecap="round" stroke-dasharray="1 8"/>
<g filter="url(#filter0_d_232_1125)">
<g filter="url(#filter1_d_232_1125)">
<path fill-rule="evenodd" clip-rule="evenodd" d="M291.859 176.446C291.859 175.862 291.385 175.388 290.801 175.388C290.216 175.388 289.742 175.862 289.742 176.446V179.87C289.742 180.454 290.216 180.928 290.801 180.928C291.385 180.928 291.859 180.454 291.859 179.87V176.446ZM291.859 187.331C291.859 186.746 291.385 186.272 290.801 186.272C290.216 186.272 289.742 186.746 289.742 187.331V190.754C289.742 191.339 290.216 191.813 290.801 191.813C291.385 191.813 291.859 191.339 291.859 190.754V187.331ZM288.119 183.604C288.119 184.188 287.645 184.662 287.06 184.662H283.657C283.072 184.662 282.598 184.188 282.598 183.604C282.598 183.019 283.072 182.545 283.657 182.545H287.06C287.645 182.545 288.119 183.019 288.119 183.604ZM297.95 184.662C298.535 184.662 299.009 184.188 299.009 183.604C299.009 183.019 298.535 182.545 297.95 182.545H294.547C293.963 182.545 293.489 183.019 293.489 183.604C293.489 184.188 293.963 184.662 294.547 184.662H297.95Z" fill="#F0F0F0"/>
</g>
</g>
</g>
<path d="M413.97 59.7865C413.302 59.7865 412.798 59.5442 412.459 59.0595C412.125 58.5702 411.958 57.8361 411.958 56.8573C411.958 55.8786 412.125 55.1469 412.459 54.6622C412.794 54.1728 413.297 53.9281 413.97 53.9281C414.638 53.9281 415.139 54.1728 415.473 54.6622C415.812 55.1469 415.982 55.8786 415.982 56.8573C415.982 57.8361 415.815 58.5702 415.48 59.0595C415.146 59.5442 414.643 59.7865 413.97 59.7865ZM413.97 59.1301C414.417 59.1301 414.746 58.9466 414.958 58.5796C415.175 58.2078 415.283 57.6337 415.283 56.8573C415.283 56.0809 415.175 55.5092 414.958 55.1422C414.746 54.7704 414.417 54.5845 413.97 54.5845C413.523 54.5845 413.191 54.7704 412.975 55.1422C412.763 55.5092 412.657 56.0809 412.657 56.8573C412.657 57.6337 412.763 58.2078 412.975 58.5796C413.191 58.9466 413.523 59.1301 413.97 59.1301ZM412.459 57.5914L415.459 55.3257V56.1233L412.459 58.389V57.5914ZM418.63 59.7371C418.446 59.7371 418.303 59.6854 418.199 59.5818C418.096 59.4736 418.044 59.323 418.044 59.1301C418.044 58.9372 418.096 58.789 418.199 58.6854C418.303 58.5772 418.446 58.5231 418.63 58.5231C418.818 58.5231 418.962 58.5772 419.06 58.6854C419.164 58.789 419.216 58.9372 419.216 59.1301C419.216 59.323 419.164 59.4736 419.06 59.5818C418.957 59.6854 418.813 59.7371 418.63 59.7371ZM424.497 54.034V57.3302H425.344V57.9867H424.497V59.6807H423.791V57.9867H421.236V57.055L423.269 54.034H424.497ZM421.85 57.2597V57.3302H423.791V54.1116H423.988L421.85 57.2597Z" fill="#464646"/>
<path d="M34.9525 270.889V262.983H36.079V269.831H39.4289V270.889H34.9525ZM41.5258 264.96H44.4112V269.871H46.1998V270.889H41.5258V269.871H43.3242V265.977H41.5258V264.96ZM43.7887 264.08C43.5318 264.08 43.3308 264.011 43.1859 263.873C43.041 263.728 42.9685 263.53 42.9685 263.28C42.9685 263.029 43.041 262.835 43.1859 262.697C43.3308 262.552 43.5318 262.479 43.7887 262.479C44.0456 262.479 44.2465 262.552 44.3915 262.697C44.5364 262.835 44.6089 263.029 44.6089 263.28C44.6089 263.53 44.5364 263.728 44.3915 263.873C44.2465 264.011 44.0456 264.08 43.7887 264.08ZM52.9213 270.691C52.9213 271.165 52.8159 271.577 52.6051 271.926C52.4008 272.275 52.1044 272.545 51.7157 272.737C51.3336 272.928 50.8725 273.023 50.3323 273.023C49.8316 273.023 49.3935 272.944 49.018 272.786C48.6425 272.634 48.3461 272.414 48.1287 272.124C47.9113 271.841 47.7927 271.505 47.7729 271.116H48.8105C48.9159 271.412 49.1004 271.64 49.3639 271.798C49.6274 271.956 49.9502 272.035 50.3323 272.035C50.8066 272.035 51.1755 271.91 51.439 271.659C51.7025 271.416 51.8343 271.07 51.8343 270.622V269.989H51.5378C51.4061 270.18 51.215 270.332 50.9647 270.444C50.7144 270.556 50.4443 270.612 50.1544 270.612C49.6735 270.612 49.2552 270.497 48.8994 270.266C48.5437 270.029 48.2703 269.693 48.0793 269.258C47.8882 268.823 47.7927 268.313 47.7927 267.727C47.7927 267.127 47.8882 266.61 48.0793 266.175C48.2703 265.734 48.5437 265.394 48.8994 265.157C49.2552 264.92 49.6735 264.802 50.1544 264.802C50.4509 264.802 50.7242 264.861 50.9746 264.979C51.2249 265.098 51.4127 265.256 51.5378 265.454H51.8343V264.96H52.9213V270.691ZM48.8698 267.727C48.8698 268.326 49.0015 268.794 49.2651 269.13C49.5352 269.466 49.9074 269.634 50.3817 269.634C50.8626 269.634 51.2348 269.466 51.4983 269.13C51.7684 268.794 51.9035 268.326 51.9035 267.727C51.9035 267.127 51.7684 266.659 51.4983 266.323C51.2348 265.987 50.8626 265.819 50.3817 265.819C49.9074 265.819 49.5352 265.987 49.2651 266.323C49.0015 266.659 48.8698 267.127 48.8698 267.727ZM55.0478 270.889V262.509H56.1347V265.404H56.4312C56.5827 265.213 56.7771 265.065 57.0142 264.96C57.2514 264.854 57.5116 264.802 57.7949 264.802C58.2099 264.802 58.5689 264.894 58.872 265.078C59.175 265.263 59.4122 265.523 59.5835 265.859C59.7547 266.195 59.8404 266.59 59.8404 267.045V270.889H58.7534V267.341C58.7534 266.847 58.6414 266.475 58.4174 266.225C58.2 265.968 57.8772 265.839 57.449 265.839C57.0208 265.839 56.6947 265.968 56.4707 266.225C56.2467 266.475 56.1347 266.847 56.1347 267.341V270.889H55.0478ZM64.042 263.418V264.96H66.7101V265.977H64.042V268.942C64.042 269.291 64.1145 269.561 64.2594 269.752C64.4043 269.937 64.6152 270.029 64.8918 270.029C65.1817 270.029 65.4057 269.93 65.5638 269.733C65.7285 269.528 65.8504 269.222 65.9294 268.814H66.8879C66.855 269.538 66.664 270.092 66.3148 270.474C65.9656 270.856 65.4782 271.047 64.8523 271.047C64.2462 271.047 63.7785 270.866 63.4491 270.503C63.1197 270.141 62.955 269.634 62.955 268.982V265.977H61.6507V264.96H62.955V263.418H64.042ZM68.886 270.889V264.96H69.973V265.404H70.2694C70.4209 265.213 70.6153 265.065 70.8524 264.96C71.0896 264.854 71.3498 264.802 71.6331 264.802C72.0481 264.802 72.4071 264.894 72.7102 265.078C73.0132 265.263 73.2504 265.523 73.4217 265.859C73.5929 266.195 73.6786 266.59 73.6786 267.045V270.889H72.5916V267.341C72.5916 266.847 72.4796 266.475 72.2556 266.225C72.0382 265.968 71.7154 265.839 71.2872 265.839C70.859 265.839 70.5329 265.968 70.3089 266.225C70.0849 266.475 69.973 266.847 69.973 267.341V270.889H68.886ZM76.4573 267.321H80.0245L79.6589 267.835C79.6589 267.17 79.5403 266.663 79.3032 266.313C79.066 265.964 78.7202 265.79 78.2656 265.79C77.7715 265.79 77.3861 265.974 77.1094 266.343C76.8328 266.705 76.6944 267.216 76.6944 267.875C76.6944 268.58 76.8328 269.12 77.1094 269.495C77.3861 269.871 77.7814 270.059 78.2952 270.059C78.6312 270.059 78.9244 269.976 79.1747 269.812C79.4251 269.64 79.6359 269.393 79.8071 269.07H80.825C80.7261 269.479 80.5582 269.831 80.321 270.128C80.0904 270.424 79.8006 270.652 79.4514 270.81C79.1088 270.968 78.7235 271.047 78.2952 271.047C77.7419 271.047 77.2643 270.922 76.8624 270.671C76.4671 270.421 76.1641 270.059 75.9533 269.584C75.7425 269.11 75.6371 268.54 75.6371 267.875C75.6371 267.242 75.7425 266.699 75.9533 266.244C76.1707 265.783 76.477 265.427 76.8723 265.177C77.2676 264.927 77.732 264.802 78.2656 264.802C78.7729 264.802 79.2044 264.92 79.5601 265.157C79.9158 265.394 80.1892 265.74 80.3803 266.195C80.5713 266.643 80.6669 267.186 80.6669 267.825C80.6669 267.898 80.6636 267.974 80.657 268.053C80.657 268.132 80.6537 268.207 80.6471 268.28H76.4573V267.321ZM83.6926 269.07C83.7848 269.38 83.9528 269.617 84.1965 269.782C84.4403 269.947 84.7532 270.029 85.1353 270.029C85.5306 270.029 85.8336 269.96 86.0444 269.821C86.2552 269.677 86.3606 269.472 86.3606 269.209C86.3606 269.031 86.275 268.883 86.1037 268.764C85.9324 268.646 85.6788 268.563 85.3428 268.517L84.6215 268.408C83.9758 268.31 83.4982 268.119 83.1886 267.835C82.879 267.552 82.7242 267.157 82.7242 266.649C82.7242 266.076 82.935 265.625 83.3566 265.296C83.7848 264.966 84.3711 264.802 85.1155 264.802C85.8731 264.802 86.4726 264.986 86.914 265.355C87.3554 265.724 87.5892 266.238 87.6156 266.896H86.6274C86.5352 266.547 86.3606 266.281 86.1037 266.096C85.8468 265.912 85.5108 265.819 85.0958 265.819C84.6807 265.819 84.3612 265.892 84.1372 266.037C83.9133 266.175 83.8013 266.376 83.8013 266.64C83.8013 266.817 83.8869 266.966 84.0582 267.084C84.2295 267.203 84.4831 267.285 84.8191 267.331L85.5404 267.44C86.1926 267.539 86.6703 267.73 86.9733 268.013C87.2829 268.296 87.4377 268.692 87.4377 269.199C87.4377 269.581 87.3422 269.91 87.1512 270.187C86.9667 270.464 86.7032 270.678 86.3606 270.829C86.0181 270.974 85.6063 271.047 85.1254 271.047C84.3876 271.047 83.8046 270.872 83.3764 270.523C82.9547 270.174 82.7242 269.69 82.6846 269.07H83.6926ZM90.6117 269.07C90.7039 269.38 90.8719 269.617 91.1156 269.782C91.3594 269.947 91.6723 270.029 92.0544 270.029C92.4497 270.029 92.7527 269.96 92.9635 269.821C93.1743 269.677 93.2797 269.472 93.2797 269.209C93.2797 269.031 93.1941 268.883 93.0228 268.764C92.8515 268.646 92.5979 268.563 92.2619 268.517L91.5406 268.408C90.8949 268.31 90.4173 268.119 90.1077 267.835C89.7981 267.552 89.6433 267.157 89.6433 266.649C89.6433 266.076 89.8541 265.625 90.2757 265.296C90.7039 264.966 91.2902 264.802 92.0346 264.802C92.7922 264.802 93.3917 264.986 93.8331 265.355C94.2745 265.724 94.5083 266.238 94.5347 266.896H93.5465C93.4543 266.547 93.2797 266.281 93.0228 266.096C92.7659 265.912 92.4299 265.819 92.0149 265.819C91.5998 265.819 91.2803 265.892 91.0564 266.037C90.8324 266.175 90.7204 266.376 90.7204 266.64C90.7204 266.817 90.806 266.966 90.9773 267.084C91.1486 267.203 91.4022 267.285 91.7382 267.331L92.4595 267.44C93.1117 267.539 93.5894 267.73 93.8924 268.013C94.202 268.296 94.3568 268.692 94.3568 269.199C94.3568 269.581 94.2613 269.91 94.0703 270.187C93.8858 270.464 93.6223 270.678 93.2797 270.829C92.9372 270.974 92.5254 271.047 92.0445 271.047C91.3067 271.047 90.7237 270.872 90.2955 270.523C89.8738 270.174 89.6433 269.69 89.6037 269.07H90.6117Z" fill="black"/>
<rect x="35.9971" y="284.182" width="28.2334" height="28.2334" rx="2.82334" fill="#D9D9D9"/>
<path d="M52.7717 297.701V299.008H47.5276V297.701H52.7717Z" fill="black"/>
<rect x="67.0542" y="284.182" width="93.1701" height="28.2334" rx="2.82334" fill="#E6E6E6"/>
<path d="M129.589 303.49C128.475 303.49 127.632 303.098 127.06 302.315C126.495 301.525 126.213 300.347 126.213 298.781C126.213 297.215 126.495 296.04 127.06 295.257C127.632 294.466 128.475 294.071 129.589 294.071C130.711 294.071 131.554 294.466 132.119 295.257C132.684 296.04 132.966 297.215 132.966 298.781C132.966 300.347 132.684 301.525 132.119 302.315C131.554 303.098 130.711 303.49 129.589 303.49ZM129.589 302.112C130.237 302.112 130.715 301.841 131.024 301.299C131.332 300.757 131.487 299.917 131.487 298.781C131.487 297.644 131.332 296.804 131.024 296.262C130.715 295.72 130.237 295.449 129.589 295.449C128.942 295.449 128.464 295.72 128.155 296.262C127.846 296.804 127.692 297.644 127.692 298.781C127.692 299.917 127.846 300.757 128.155 301.299C128.464 301.841 128.942 302.112 129.589 302.112ZM127.252 299.752L131.984 296.183V297.809L127.252 301.378V299.752ZM137.497 303.399C137.128 303.399 136.842 303.298 136.639 303.095C136.435 302.884 136.334 302.59 136.334 302.214C136.334 301.83 136.435 301.536 136.639 301.333C136.842 301.13 137.128 301.028 137.497 301.028C137.866 301.028 138.152 301.13 138.355 301.333C138.559 301.536 138.66 301.83 138.66 302.214C138.66 302.59 138.559 302.884 138.355 303.095C138.152 303.298 137.866 303.399 137.497 303.399ZM142.683 294.263H148.363V295.641H143.654L144.162 295.178V297.73H144.524C144.674 297.587 144.87 297.474 145.111 297.391C145.359 297.301 145.623 297.256 145.901 297.256C146.421 297.256 146.876 297.384 147.268 297.64C147.667 297.888 147.979 298.238 148.205 298.69C148.439 299.142 148.555 299.669 148.555 300.271C148.555 300.904 148.424 301.461 148.16 301.943C147.904 302.424 147.546 302.805 147.087 303.083C146.628 303.354 146.101 303.49 145.506 303.49C144.595 303.49 143.865 303.253 143.315 302.778C142.773 302.297 142.461 301.63 142.378 300.779H143.801C143.921 301.209 144.117 301.54 144.388 301.773C144.667 302.007 145.028 302.123 145.472 302.123C145.796 302.123 146.078 302.048 146.319 301.897C146.56 301.747 146.745 301.532 146.873 301.254C147.008 300.975 147.076 300.648 147.076 300.271C147.076 299.91 147.012 299.597 146.884 299.334C146.756 299.07 146.575 298.871 146.342 298.735C146.108 298.592 145.826 298.521 145.495 298.521C145.156 298.521 144.859 298.6 144.603 298.758C144.354 298.916 144.166 299.142 144.038 299.436H142.683V294.263Z" fill="black"/>
<rect x="163.047" y="284.182" width="28.2334" height="28.2334" rx="2.82334" fill="#D9D9D9"/>
<path d="M176.431 302.664V299.455H173.238V298.115H176.431V294.922H177.771V298.115H180.98V299.455H177.771V302.664H176.431Z" fill="black"/>
<path d="M268.314 271.047C267.372 271.047 266.664 270.708 266.19 270.029C265.722 269.344 265.488 268.313 265.488 266.936C265.488 265.559 265.728 264.531 266.209 263.853C266.697 263.168 267.428 262.825 268.403 262.825C268.93 262.825 269.385 262.937 269.767 263.161C270.149 263.385 270.449 263.715 270.666 264.149C270.89 264.578 271.022 265.101 271.061 265.721H270.024C269.931 265.121 269.747 264.667 269.47 264.357C269.2 264.041 268.844 263.883 268.403 263.883C267.79 263.883 267.339 264.13 267.049 264.624C266.759 265.118 266.614 265.889 266.614 266.936C266.614 267.983 266.749 268.754 267.02 269.248C267.296 269.742 267.728 269.989 268.314 269.989C268.736 269.989 269.075 269.845 269.332 269.555C269.589 269.265 269.76 268.843 269.846 268.29H270.883C270.844 268.876 270.719 269.377 270.508 269.792C270.297 270.2 270.004 270.513 269.628 270.731C269.259 270.941 268.821 271.047 268.314 271.047ZM272.723 270.889V262.509H273.81V265.404H274.107C274.258 265.213 274.453 265.065 274.69 264.96C274.927 264.854 275.187 264.802 275.47 264.802C275.885 264.802 276.244 264.894 276.547 265.078C276.85 265.263 277.088 265.523 277.259 265.859C277.43 266.195 277.516 266.59 277.516 267.045V270.889H276.429V267.341C276.429 266.847 276.317 266.475 276.093 266.225C275.875 265.968 275.553 265.839 275.124 265.839C274.696 265.839 274.37 265.968 274.146 266.225C273.922 266.475 273.81 266.847 273.81 267.341V270.889H272.723ZM279.464 264.96H281.777V265.394H282.073C282.192 265.203 282.353 265.058 282.557 264.96C282.762 264.854 282.996 264.802 283.259 264.802C283.733 264.802 284.109 264.97 284.386 265.306C284.662 265.635 284.801 266.089 284.801 266.669V267.529H283.674V266.827C283.674 266.162 283.404 265.829 282.864 265.829C282.521 265.829 282.264 265.984 282.093 266.294C281.928 266.597 281.846 267.051 281.846 267.657V269.871H283.684V270.889H279.642V269.871H280.759V265.977H279.464V264.96ZM288.903 271.047C288.357 271.047 287.882 270.922 287.48 270.671C287.079 270.414 286.766 270.052 286.542 269.584C286.324 269.117 286.216 268.563 286.216 267.924C286.216 267.285 286.324 266.732 286.542 266.264C286.766 265.796 287.079 265.437 287.48 265.187C287.882 264.93 288.357 264.802 288.903 264.802C289.457 264.802 289.931 264.93 290.326 265.187C290.728 265.437 291.038 265.796 291.255 266.264C291.479 266.732 291.591 267.285 291.591 267.924C291.591 268.563 291.479 269.117 291.255 269.584C291.038 270.052 290.728 270.414 290.326 270.671C289.931 270.922 289.457 271.047 288.903 271.047ZM288.903 270.029C289.411 270.029 289.806 269.845 290.089 269.476C290.372 269.107 290.514 268.59 290.514 267.924C290.514 267.259 290.372 266.742 290.089 266.373C289.806 266.004 289.411 265.819 288.903 265.819C288.396 265.819 288.001 266.004 287.718 266.373C287.434 266.742 287.293 267.259 287.293 267.924C287.293 268.59 287.434 269.107 287.718 269.476C288.001 269.845 288.396 270.029 288.903 270.029ZM293.115 264.96H294.202V265.434H294.983L294.4 265.78C294.419 265.477 294.512 265.24 294.676 265.068C294.848 264.89 295.068 264.802 295.338 264.802C295.595 264.802 295.809 264.9 295.981 265.098C296.152 265.296 296.257 265.562 296.297 265.898L295.684 265.483H296.959L296.406 265.8C296.425 265.497 296.527 265.256 296.712 265.078C296.903 264.894 297.143 264.802 297.433 264.802C297.776 264.802 298.049 264.946 298.253 265.236C298.464 265.52 298.57 265.902 298.57 266.383V270.889H297.532V266.808C297.532 266.537 297.483 266.337 297.384 266.205C297.285 266.066 297.137 265.997 296.939 265.997C296.748 265.997 296.603 266.066 296.504 266.205C296.406 266.337 296.356 266.537 296.356 266.808V270.889H295.328V266.808C295.328 266.537 295.279 266.337 295.18 266.205C295.081 266.066 294.936 265.997 294.745 265.997C294.548 265.997 294.4 266.066 294.301 266.205C294.202 266.337 294.152 266.537 294.152 266.808V270.889H293.115V264.96ZM304.086 267.183V268.142L302.307 268.418C302.03 268.464 301.823 268.56 301.684 268.705C301.552 268.85 301.487 269.041 301.487 269.278C301.487 269.502 301.569 269.683 301.734 269.821C301.905 269.96 302.122 270.029 302.386 270.029C302.676 270.029 302.939 269.96 303.176 269.821C303.42 269.683 303.614 269.499 303.759 269.268C303.904 269.031 303.977 268.771 303.977 268.487V267.035C303.977 266.653 303.862 266.353 303.631 266.136C303.4 265.918 303.084 265.809 302.682 265.809C302.399 265.809 302.145 265.856 301.921 265.948C301.697 266.04 301.513 266.175 301.368 266.353C301.23 266.531 301.134 266.748 301.081 267.005H300.044C300.077 266.551 300.205 266.159 300.429 265.829C300.66 265.5 300.969 265.246 301.358 265.068C301.747 264.89 302.198 264.802 302.712 264.802C303.45 264.802 304.02 264.989 304.421 265.365C304.83 265.74 305.034 266.274 305.034 266.966V270.889H303.977V270.345H303.68C303.522 270.569 303.315 270.74 303.058 270.859C302.807 270.978 302.498 271.037 302.129 271.037C301.767 271.037 301.45 270.968 301.18 270.829C300.917 270.684 300.709 270.484 300.558 270.227C300.413 269.97 300.34 269.67 300.34 269.327C300.34 268.833 300.498 268.428 300.815 268.112C301.131 267.789 301.582 267.582 302.168 267.489L304.086 267.183Z" fill="black"/>
<rect x="267.511" y="284.182" width="28.2334" height="28.2334" rx="2.82334" fill="#D9D9D9"/>
<path d="M284.285 297.701V299.008H279.041V297.701H284.285Z" fill="black"/>
<rect x="298.567" y="284.182" width="93.1701" height="28.2334" rx="2.82334" fill="#E6E6E6"/>
<path d="M361.103 303.49C359.988 303.49 359.145 303.098 358.573 302.315C358.008 301.525 357.726 300.347 357.726 298.781C357.726 297.215 358.008 296.04 358.573 295.257C359.145 294.466 359.988 294.071 361.103 294.071C362.224 294.071 363.068 294.466 363.632 295.257C364.197 296.04 364.479 297.215 364.479 298.781C364.479 300.347 364.197 301.525 363.632 302.315C363.068 303.098 362.224 303.49 361.103 303.49ZM361.103 302.112C361.75 302.112 362.228 301.841 362.537 301.299C362.846 300.757 363 299.917 363 298.781C363 297.644 362.846 296.804 362.537 296.262C362.228 295.72 361.75 295.449 361.103 295.449C360.455 295.449 359.977 295.72 359.668 296.262C359.36 296.804 359.205 297.644 359.205 298.781C359.205 299.917 359.36 300.757 359.668 301.299C359.977 301.841 360.455 302.112 361.103 302.112ZM358.765 299.752L363.497 296.183V297.809L358.765 301.378V299.752ZM369.01 303.399C368.641 303.399 368.355 303.298 368.152 303.095C367.949 302.884 367.847 302.59 367.847 302.214C367.847 301.83 367.949 301.536 368.152 301.333C368.355 301.13 368.641 301.028 369.01 301.028C369.379 301.028 369.665 301.13 369.868 301.333C370.072 301.536 370.173 301.83 370.173 302.214C370.173 302.59 370.072 302.884 369.868 303.095C369.665 303.298 369.379 303.399 369.01 303.399ZM374.196 294.263H379.877V295.641H375.167L375.675 295.178V297.73H376.037C376.187 297.587 376.383 297.474 376.624 297.391C376.872 297.301 377.136 297.256 377.415 297.256C377.934 297.256 378.39 297.384 378.781 297.64C379.18 297.888 379.493 298.238 379.718 298.69C379.952 299.142 380.069 299.669 380.069 300.271C380.069 300.904 379.937 301.461 379.673 301.943C379.417 302.424 379.06 302.805 378.6 303.083C378.141 303.354 377.614 303.49 377.019 303.49C376.108 303.49 375.378 303.253 374.828 302.778C374.286 302.297 373.974 301.63 373.891 300.779H375.314C375.434 301.209 375.63 301.54 375.901 301.773C376.18 302.007 376.541 302.123 376.985 302.123C377.309 302.123 377.591 302.048 377.832 301.897C378.073 301.747 378.258 301.532 378.386 301.254C378.521 300.975 378.589 300.648 378.589 300.271C378.589 299.91 378.525 299.597 378.397 299.334C378.269 299.07 378.088 298.871 377.855 298.735C377.622 298.592 377.339 298.521 377.008 298.521C376.669 298.521 376.372 298.6 376.116 298.758C375.867 298.916 375.679 299.142 375.551 299.436H374.196V294.263Z" fill="black"/>
<rect x="394.561" y="284.182" width="28.2334" height="28.2334" rx="2.82334" fill="#D9D9D9"/>
<path d="M407.945 302.664V299.455H404.752V298.115H407.945V294.922H409.285V298.115H412.494V299.455H409.285V302.664H407.945Z" fill="black"/>
<path d="M35.6442 246.807C34.9761 246.807 34.4726 246.565 34.1338 246.08C33.7997 245.591 33.6326 244.857 33.6326 243.878C33.6326 242.899 33.7997 242.167 34.1338 241.683C34.4679 241.193 34.9714 240.949 35.6442 240.949C36.3124 240.949 36.8136 241.193 37.1477 241.683C37.4865 242.167 37.6559 242.899 37.6559 243.878C37.6559 244.857 37.4888 245.591 37.1547 246.08C36.8206 246.565 36.3171 246.807 35.6442 246.807ZM35.6442 246.151C36.0913 246.151 36.4207 245.967 36.6324 245.6C36.8489 245.228 36.9571 244.654 36.9571 243.878C36.9571 243.101 36.8489 242.53 36.6324 242.163C36.4207 241.791 36.0913 241.605 35.6442 241.605C35.1972 241.605 34.8655 241.791 34.649 242.163C34.4373 242.53 34.3314 243.101 34.3314 243.878C34.3314 244.654 34.4373 245.228 34.649 245.6C34.8655 245.967 35.1972 246.151 35.6442 246.151ZM34.1338 244.612L37.1336 242.346V243.144L34.1338 245.409V244.612Z" fill="#464646"/>
<path d="M45.5054 240.913C44.9831 241.092 44.5879 241.445 44.3196 241.972C44.0561 242.494 43.9244 243.177 43.9244 244.019C43.9244 244.861 44.0561 245.544 44.3196 246.066C44.5879 246.588 44.9831 246.941 45.5054 247.125V247.732C45.0114 247.614 44.5949 247.393 44.2561 247.068C43.922 246.748 43.6703 246.334 43.5009 245.826C43.3315 245.313 43.2468 244.711 43.2468 244.019C43.2468 243.323 43.3315 242.72 43.5009 242.212C43.6703 241.699 43.922 241.283 44.2561 240.963C44.5949 240.643 45.0114 240.424 45.5054 240.306V240.913ZM47.1232 240.716H49.0854V246.066H50.37V246.701H47.1232V246.066H48.4078V241.351H47.1232V240.716ZM51.7478 242.48H53.71V246.066H54.9946V246.701H51.7478V246.066H53.0324V243.116H51.7478V242.48ZM53.3147 241.845C53.1547 241.845 53.0277 241.798 52.9336 241.704C52.8442 241.605 52.7995 241.466 52.7995 241.287C52.7995 241.113 52.8442 240.979 52.9336 240.885C53.0277 240.786 53.1547 240.737 53.3147 240.737C53.4794 240.737 53.6065 240.786 53.6959 240.885C53.7853 240.979 53.83 241.116 53.83 241.294C53.83 241.469 53.7853 241.605 53.6959 241.704C53.6065 241.798 53.4794 241.845 53.3147 241.845ZM59.3722 246.581C59.3722 246.92 59.2992 247.212 59.1533 247.456C59.0122 247.701 58.8075 247.889 58.5393 248.021C58.2711 248.153 57.9464 248.219 57.5652 248.219C57.2217 248.219 56.9182 248.165 56.6547 248.056C56.3912 247.953 56.1841 247.8 56.0336 247.598C55.883 247.4 55.7983 247.165 55.7795 246.892H56.4288C56.4947 247.118 56.6265 247.292 56.8241 247.414C57.0264 247.541 57.2735 247.605 57.5652 247.605C57.9228 247.605 58.2005 247.511 58.3981 247.322C58.5957 247.139 58.6946 246.88 58.6946 246.546V246.031H58.4969C58.4028 246.177 58.2616 246.292 58.0734 246.376C57.8852 246.461 57.6829 246.504 57.4664 246.504C57.1229 246.504 56.8241 246.421 56.57 246.256C56.3206 246.087 56.1277 245.849 55.9912 245.544C55.8547 245.233 55.7865 244.868 55.7865 244.45C55.7865 244.021 55.8547 243.654 55.9912 243.348C56.1277 243.038 56.3206 242.798 56.57 242.629C56.8241 242.459 57.1229 242.374 57.4664 242.374C57.6876 242.374 57.8899 242.419 58.0734 242.509C58.2616 242.598 58.4028 242.718 58.4969 242.868H58.6946V242.48H59.3722V246.581ZM56.4641 244.45C56.4641 244.906 56.5629 245.261 56.7606 245.515C56.9629 245.765 57.2429 245.889 57.6005 245.889C57.9581 245.889 58.2358 245.765 58.4334 245.515C58.6357 245.261 58.7369 244.906 58.7369 244.45C58.7369 243.993 58.6357 243.64 58.4334 243.391C58.2358 243.137 57.9581 243.01 57.6005 243.01C57.2429 243.01 56.9629 243.137 56.7606 243.391C56.5629 243.64 56.4641 243.993 56.4641 244.45ZM60.5664 246.701V240.716H61.244V242.819H61.4416C61.5499 242.678 61.691 242.57 61.8651 242.494C62.0392 242.414 62.2298 242.374 62.4369 242.374C62.738 242.374 62.9968 242.44 63.2133 242.572C63.4297 242.704 63.5968 242.89 63.7144 243.13C63.8368 243.365 63.8979 243.645 63.8979 243.97V246.701H63.2203V244.153C63.2203 243.786 63.1356 243.506 62.9662 243.313C62.7968 243.12 62.5521 243.024 62.2322 243.024C61.9122 243.024 61.6675 243.12 61.4981 243.313C61.3287 243.506 61.244 243.786 61.244 244.153V246.701H60.5664ZM66.4615 241.407V242.48H68.3884V243.116H66.4615V245.339C66.4615 245.612 66.518 245.819 66.6309 245.96C66.7438 246.101 66.9085 246.172 67.125 246.172C67.3508 246.172 67.5273 246.097 67.6543 245.946C67.7814 245.791 67.8684 245.558 67.9155 245.247H68.5225C68.499 245.755 68.3649 246.144 68.1202 246.412C67.8755 246.675 67.5344 246.807 67.0967 246.807C66.6779 246.807 66.3533 246.682 66.1227 246.433C65.8968 246.179 65.7839 245.821 65.7839 245.36V243.116H64.8239V242.48H65.7839V241.407H66.4615ZM69.6038 246.701V242.48H70.2814V242.819H70.4791C70.5873 242.678 70.7285 242.57 70.9026 242.494C71.0767 242.414 71.2672 242.374 71.4743 242.374C71.7754 242.374 72.0342 242.44 72.2507 242.572C72.4672 242.704 72.6342 242.89 72.7518 243.13C72.8742 243.365 72.9354 243.645 72.9354 243.97V246.701H72.2578V244.153C72.2578 243.786 72.1731 243.506 72.0037 243.313C71.8343 243.12 71.5896 243.024 71.2696 243.024C70.9496 243.024 70.7049 243.12 70.5355 243.313C70.3661 243.506 70.2814 243.786 70.2814 244.153V246.701H69.6038ZM74.4966 244.21H77.1082L76.8753 244.506C76.8753 244.012 76.7859 243.636 76.6071 243.377C76.4283 243.118 76.1671 242.988 75.8236 242.988C75.4519 242.988 75.1625 243.127 74.9554 243.405C74.7531 243.678 74.6519 244.061 74.6519 244.555C74.6519 245.087 74.7554 245.494 74.9625 245.777C75.1695 246.054 75.466 246.193 75.8518 246.193C76.1106 246.193 76.3342 246.127 76.5224 245.995C76.7106 245.859 76.8635 245.661 76.9812 245.402H77.6164C77.5458 245.694 77.4282 245.946 77.2635 246.158C77.0988 246.369 76.8965 246.532 76.6565 246.645C76.4212 246.753 76.153 246.807 75.8518 246.807C75.4613 246.807 75.1272 246.72 74.8495 246.546C74.5719 246.367 74.3578 246.111 74.2072 245.777C74.0614 245.438 73.9884 245.031 73.9884 244.555C73.9884 244.104 74.0637 243.715 74.2143 243.391C74.3649 243.066 74.5766 242.817 74.8495 242.643C75.1272 242.464 75.4519 242.374 75.8236 242.374C76.1812 242.374 76.4847 242.457 76.7341 242.621C76.9835 242.786 77.1741 243.028 77.3058 243.348C77.4376 243.664 77.5035 244.047 77.5035 244.499C77.5035 244.551 77.5011 244.605 77.4964 244.661C77.4964 244.713 77.4941 244.762 77.4894 244.81H74.4966V244.21ZM79.2342 245.417C79.2953 245.661 79.4153 245.849 79.5941 245.981C79.7776 246.108 80.0153 246.172 80.307 246.172C80.6082 246.172 80.8387 246.115 80.9987 246.002C81.1587 245.889 81.2387 245.729 81.2387 245.522C81.2387 245.377 81.1752 245.257 81.0481 245.162C80.9211 245.068 80.7305 245.002 80.4764 244.965L79.947 244.887C79.4953 244.821 79.1636 244.69 78.9518 244.492C78.7401 244.294 78.6342 244.021 78.6342 243.673C78.6342 243.268 78.7801 242.951 79.0718 242.72C79.3683 242.49 79.7753 242.374 80.2929 242.374C80.8199 242.374 81.234 242.506 81.5352 242.77C81.841 243.028 82.0057 243.393 82.0293 243.864H81.4081C81.3469 243.586 81.2223 243.374 81.034 243.228C80.8458 243.083 80.5964 243.01 80.2858 243.01C79.9706 243.01 79.7282 243.068 79.5588 243.186C79.3894 243.299 79.3047 243.459 79.3047 243.666C79.3047 243.812 79.3683 243.932 79.4953 244.026C79.6224 244.115 79.8153 244.179 80.0741 244.217L80.6035 244.294C81.0552 244.365 81.3846 244.499 81.5916 244.697C81.8034 244.894 81.9093 245.167 81.9093 245.515C81.9093 245.784 81.8434 246.014 81.7116 246.207C81.5846 246.4 81.4011 246.548 81.1611 246.652C80.9211 246.755 80.6341 246.807 80.3 246.807C79.7871 246.807 79.3824 246.687 79.0859 246.447C78.7942 246.202 78.6342 245.859 78.606 245.417H79.2342ZM83.7529 245.417C83.814 245.661 83.934 245.849 84.1128 245.981C84.2964 246.108 84.534 246.172 84.8257 246.172C85.1269 246.172 85.3575 246.115 85.5175 246.002C85.6774 245.889 85.7574 245.729 85.7574 245.522C85.7574 245.377 85.6939 245.257 85.5669 245.162C85.4398 245.068 85.2492 245.002 84.9951 244.965L84.4658 244.887C84.014 244.821 83.6823 244.69 83.4705 244.492C83.2588 244.294 83.1529 244.021 83.1529 243.673C83.1529 243.268 83.2988 242.951 83.5905 242.72C83.887 242.49 84.294 242.374 84.8116 242.374C85.3386 242.374 85.7527 242.506 86.0539 242.77C86.3597 243.028 86.5244 243.393 86.548 243.864H85.9268C85.8657 243.586 85.741 243.374 85.5527 243.228C85.3645 243.083 85.1151 243.01 84.8046 243.01C84.4893 243.01 84.247 243.068 84.0776 243.186C83.9082 243.299 83.8234 243.459 83.8234 243.666C83.8234 243.812 83.887 243.932 84.014 244.026C84.1411 244.115 84.334 244.179 84.5928 244.217L85.1222 244.294C85.5739 244.365 85.9033 244.499 86.1104 244.697C86.3221 244.894 86.428 245.167 86.428 245.515C86.428 245.784 86.3621 246.014 86.2303 246.207C86.1033 246.4 85.9198 246.548 85.6798 246.652C85.4398 246.755 85.1528 246.807 84.8187 246.807C84.3058 246.807 83.9011 246.687 83.6046 246.447C83.3129 246.202 83.1529 245.859 83.1247 245.417H83.7529ZM87.9116 240.913V240.306C88.4104 240.424 88.8268 240.643 89.1609 240.963C89.495 241.283 89.7468 241.699 89.9162 242.212C90.0856 242.72 90.1703 243.323 90.1703 244.019C90.1703 244.711 90.0856 245.313 89.9162 245.826C89.7468 246.334 89.495 246.748 89.1609 247.068C88.8268 247.393 88.4104 247.614 87.9116 247.732V247.125C88.4339 246.941 88.8268 246.588 89.0904 246.066C89.3586 245.544 89.4927 244.861 89.4927 244.019C89.4927 243.177 89.3586 242.494 89.0904 241.972C88.8268 241.445 88.4339 241.092 87.9116 240.913Z" fill="#464646"/>
<path d="M376.313 53.8928C375.791 54.0716 375.395 54.4246 375.127 54.9516C374.864 55.4739 374.732 56.1562 374.732 56.9985C374.732 57.8408 374.864 58.5231 375.127 59.0454C375.395 59.5677 375.791 59.9206 376.313 60.1042V60.7112C375.819 60.5935 375.403 60.3724 375.064 60.0477C374.73 59.7277 374.478 59.3136 374.308 58.8054C374.139 58.2925 374.054 57.6902 374.054 56.9985C374.054 56.3021 374.139 55.6998 374.308 55.1916C374.478 54.6787 374.73 54.2622 375.064 53.9422C375.403 53.6223 375.819 53.4034 376.313 53.2858V53.8928ZM379.533 59.7865C379.152 59.7865 378.823 59.6995 378.545 59.5254C378.267 59.3466 378.053 59.0925 377.903 58.7631C377.752 58.4337 377.677 58.0431 377.677 57.5914C377.677 57.1303 377.754 56.7326 377.91 56.3985C378.065 56.0644 378.286 55.808 378.573 55.6292C378.86 55.4457 379.201 55.3539 379.597 55.3539C379.94 55.3539 380.239 55.4245 380.493 55.5657C380.747 55.7068 380.947 55.9068 381.093 56.1656C381.244 56.4244 381.326 56.7303 381.34 57.0832H380.719C380.662 56.735 380.535 56.4668 380.338 56.2785C380.14 56.0856 379.886 55.9892 379.575 55.9892C379.185 55.9892 378.884 56.1303 378.672 56.4127C378.46 56.6903 378.354 57.0832 378.354 57.5914C378.354 58.0902 378.455 58.476 378.658 58.749C378.865 59.0172 379.157 59.1513 379.533 59.1513C379.815 59.1513 380.051 59.0666 380.239 58.8972C380.427 58.7278 380.556 58.4902 380.627 58.1843H381.248C381.22 58.5137 381.131 58.7984 380.98 59.0384C380.829 59.2783 380.629 59.4642 380.38 59.596C380.135 59.723 379.853 59.7865 379.533 59.7865ZM382.337 59.6807V53.6952H383.014V55.7986H383.212C383.32 55.6574 383.461 55.5492 383.635 55.4739C383.809 55.3939 384 55.3539 384.207 55.3539C384.508 55.3539 384.767 55.4198 384.983 55.5515C385.2 55.6833 385.367 55.8692 385.485 56.1091C385.607 56.3444 385.668 56.6244 385.668 56.9491V59.6807H384.991V57.1326C384.991 56.7656 384.906 56.4856 384.736 56.2927C384.567 56.0997 384.322 56.0033 384.002 56.0033C383.682 56.0033 383.438 56.0997 383.268 56.2927C383.099 56.4856 383.014 56.7656 383.014 57.1326V59.6807H382.337ZM386.693 55.4598H388.288V55.7845H388.486C388.575 55.648 388.693 55.5421 388.839 55.4668C388.989 55.3915 389.161 55.3539 389.354 55.3539C389.697 55.3539 389.966 55.4692 390.159 55.6998C390.356 55.9303 390.455 56.2503 390.455 56.6597V57.2808H389.749V56.7656C389.749 56.2527 389.54 55.9962 389.121 55.9962C388.853 55.9962 388.653 56.1115 388.521 56.3421C388.389 56.5679 388.323 56.9067 388.323 57.3585V59.0454H389.686V59.6807H386.834V59.0454H387.646V56.095H386.693V55.4598ZM392.997 59.7865C392.616 59.7865 392.285 59.6971 392.002 59.5183C391.72 59.3395 391.501 59.0854 391.346 58.756C391.195 58.4219 391.12 58.0267 391.12 57.5702C391.12 57.1138 391.195 56.7209 391.346 56.3915C391.501 56.0621 391.72 55.808 392.002 55.6292C392.285 55.4457 392.616 55.3539 392.997 55.3539C393.383 55.3539 393.715 55.4457 393.993 55.6292C394.275 55.808 394.491 56.0621 394.642 56.3915C394.797 56.7209 394.875 57.1138 394.875 57.5702C394.875 58.0267 394.797 58.4219 394.642 58.756C394.491 59.0854 394.275 59.3395 393.993 59.5183C393.715 59.6971 393.383 59.7865 392.997 59.7865ZM392.997 59.1513C393.379 59.1513 393.673 59.0125 393.88 58.7348C394.091 58.4572 394.197 58.069 394.197 57.5702C394.197 57.0714 394.091 56.6832 393.88 56.4056C393.673 56.128 393.379 55.9892 392.997 55.9892C392.621 55.9892 392.327 56.128 392.115 56.4056C391.903 56.6832 391.798 57.0714 391.798 57.5702C391.798 58.069 391.903 58.4572 392.115 58.7348C392.327 59.0125 392.621 59.1513 392.997 59.1513ZM395.61 55.4598H396.288V55.7915H396.782L396.408 56.0103C396.427 55.8033 396.497 55.6433 396.62 55.5304C396.742 55.4127 396.9 55.3539 397.093 55.3539C397.276 55.3539 397.431 55.4221 397.558 55.5586C397.686 55.6903 397.766 55.8715 397.798 56.1021L397.41 55.8268H398.222L397.869 56.0386C397.888 55.8268 397.966 55.6598 398.102 55.5374C398.238 55.4151 398.408 55.3539 398.61 55.3539C398.864 55.3539 399.067 55.4574 399.217 55.6645C399.372 55.8668 399.45 56.1421 399.45 56.4903V59.6807H398.801V56.7373C398.801 56.5256 398.761 56.3656 398.681 56.2574C398.601 56.1491 398.481 56.095 398.321 56.095C398.166 56.095 398.048 56.1491 397.968 56.2574C397.893 56.3656 397.855 56.5256 397.855 56.7373V59.6807H397.206V56.7373C397.206 56.5256 397.166 56.3656 397.086 56.2574C397.01 56.1491 396.895 56.095 396.74 56.095C396.58 56.095 396.46 56.1491 396.38 56.2574C396.3 56.3656 396.26 56.5256 396.26 56.7373V59.6807H395.61V55.4598ZM403.037 57.0761V57.6832L401.717 57.8808C401.501 57.9184 401.338 57.9961 401.23 58.1137C401.122 58.2266 401.068 58.3749 401.068 58.5584C401.068 58.7372 401.131 58.8831 401.258 58.996C401.39 59.1042 401.564 59.1583 401.781 59.1583C401.997 59.1583 402.195 59.1066 402.374 59.0031C402.552 58.8995 402.694 58.7607 402.797 58.5866C402.905 58.4125 402.96 58.2172 402.96 58.0008V56.9138C402.96 56.6221 402.872 56.3938 402.698 56.2291C402.529 56.0644 402.291 55.9821 401.985 55.9821C401.769 55.9821 401.578 56.0197 401.414 56.095C401.249 56.1656 401.113 56.2691 401.004 56.4056C400.901 56.5421 400.833 56.7091 400.8 56.9067H400.15C400.174 56.5868 400.266 56.3115 400.426 56.0809C400.586 55.8456 400.8 55.6668 401.068 55.5445C401.336 55.4174 401.649 55.3539 402.007 55.3539C402.52 55.3539 402.915 55.4857 403.192 55.7492C403.475 56.008 403.616 56.3797 403.616 56.8644V59.6807H402.96V59.2713H402.762C402.649 59.436 402.496 59.563 402.303 59.6524C402.115 59.7418 401.889 59.7865 401.625 59.7865C401.367 59.7865 401.141 59.7371 400.948 59.6383C400.76 59.5348 400.614 59.3936 400.51 59.2148C400.407 59.036 400.355 58.8266 400.355 58.5866C400.355 58.2384 400.463 57.9537 400.68 57.7326C400.901 57.5114 401.216 57.3679 401.625 57.302L403.037 57.0761ZM405.163 53.8928V53.2858C405.662 53.4034 406.078 53.6223 406.412 53.9422C406.747 54.2622 406.998 54.6787 407.168 55.1916C407.337 55.6998 407.422 56.3021 407.422 56.9985C407.422 57.6902 407.337 58.2925 407.168 58.8054C406.998 59.3136 406.747 59.7277 406.412 60.0477C406.078 60.3724 405.662 60.5935 405.163 60.7112V60.1042C405.685 59.9206 406.078 59.5677 406.342 59.0454C406.61 58.5231 406.744 57.8408 406.744 56.9985C406.744 56.1562 406.61 55.4739 406.342 54.9516C406.078 54.4246 405.685 54.0716 405.163 53.8928Z" fill="#464646"/>
<path d="M423.71 241.055V246.045H425.108V246.701H421.466V246.045H423.012V241.344L423.223 241.45L421.466 242.586V241.831L422.694 241.055H423.71Z" fill="#464646"/>
<line x1="17.6172" y1="40.048" x2="441.175" y2="40.048" stroke="#A7A7A7" stroke-width="0.705834" stroke-dasharray="1.41 1.41"/>
<defs>
<filter id="filter0_d_232_1125" x="267.511" y="161.013" width="46.5849" height="46.5849" filterUnits="userSpaceOnUse" color-interpolation-filters="sRGB">
<feFlood flood-opacity="0" result="BackgroundImageFix"/>
<feColorMatrix in="SourceAlpha" type="matrix" values="0 0 0 0 0 0 0 0 0 0 0 0 0 0 0 0 0 0 127 0" result="hardAlpha"/>
<feOffset dy="0.705834"/>
<feGaussianBlur stdDeviation="3.17625"/>
<feComposite in2="hardAlpha" operator="out"/>
<feColorMatrix type="matrix" values="0 0 0 0 0 0 0 0 0 0 0 0 0 0 0 0 0 0 0.25 0"/>
<feBlend mode="normal" in2="BackgroundImageFix" result="effect1_dropShadow_232_1125"/>
<feBlend mode="normal" in="SourceGraphic" in2="effect1_dropShadow_232_1125" result="shape"/>
</filter>
<filter id="filter1_d_232_1125" x="274.834" y="168.329" width="31.9395" height="31.9531" filterUnits="userSpaceOnUse" color-interpolation-filters="sRGB">
<feFlood flood-opacity="0" result="BackgroundImageFix"/>
<feColorMatrix in="SourceAlpha" type="matrix" values="0 0 0 0 0 0 0 0 0 0 0 0 0 0 0 0 0 0 127 0" result="hardAlpha"/>
<feOffset dy="0.705834"/>
<feGaussianBlur stdDeviation="3.88209"/>
<feComposite in2="hardAlpha" operator="out"/>
<feColorMatrix type="matrix" values="0 0 0 0 0 0 0 0 0 0 0 0 0 0 0 0 0 0 0.25 0"/>
<feBlend mode="normal" in2="BackgroundImageFix" result="effect1_dropShadow_232_1125"/>
<feBlend mode="normal" in="SourceGraphic" in2="effect1_dropShadow_232_1125" result="shape"/>
</filter>
<clipPath id="clip0_232_1125">
<rect x="33.1738" y="64.314" width="392.444" height="172.223" rx="3.52917" fill="white"/>
</clipPath>
</defs>
</svg>
