<?xml version="1.0" standalone="no"?>
<!DOCTYPE svg PUBLIC "-//W3C//DTD SVG 20010904//EN"
 "http://www.w3.org/TR/2001/REC-SVG-20010904/DTD/svg10.dtd">
<svg version="1.0" xmlns="http://www.w3.org/2000/svg"
 width="100" height="50" viewBox="0 0 512.000000 256.000000"
 preserveAspectRatio="xMidYMid meet">

<g transform="translate(0.000000,256.000000) scale(0.100000,-0.100000)"
fill="#000000" stroke="none">
<path d="M1003 1973 c-57 -20 -138 -95 -169 -156 -14 -27 -28 -75 -31 -105
l-6 -55 39 7 c57 11 131 55 170 100 40 47 74 132 74 186 0 46 -8 48 -77 23z"/>
<path d="M980 1636 c-25 -8 -73 -25 -107 -37 l-62 -24 -101 34 c-85 28 -111
33 -163 29 -204 -17 -340 -211 -323 -463 12 -194 100 -397 230 -533 76 -80
127 -90 242 -46 94 35 158 35 261 0 136 -47 190 -27 290 105 55 73 95 144 118
209 13 36 13 37 -22 55 -51 28 -119 108 -137 162 -9 26 -16 74 -16 108 0 92
24 149 91 218 l57 59 -44 44 c-76 74 -217 109 -314 80z"/>
<path d="M3221 1368 c-55 -27 -81 -69 -81 -132 0 -68 33 -109 119 -149 86 -39
121 -72 121 -112 0 -69 -91 -104 -186 -71 -26 9 -48 15 -49 13 -1 -1 -7 -17
-13 -35 -11 -31 -10 -33 16 -44 15 -6 63 -13 107 -15 69 -4 86 -1 124 19 57
29 82 64 88 122 10 85 -23 126 -150 186 -97 46 -122 93 -73 139 31 29 81 36
134 18 43 -15 43 -15 53 10 15 41 11 52 -28 62 -62 18 -134 13 -182 -11z"/>
<path d="M1661 1118 c-46 -145 -86 -269 -89 -275 -3 -9 9 -13 41 -13 l46 0 23
78 24 77 90 3 90 3 25 -78 25 -78 48 -3 c46 -3 47 -2 41 20 -4 13 -38 122 -77
243 -38 121 -74 235 -79 253 -10 31 -12 32 -68 32 l-57 0 -83 -262z m170 57
c20 -63 34 -117 31 -120 -9 -9 -142 -5 -142 4 0 5 14 52 30 106 17 54 30 104
30 111 0 39 19 2 51 -101z"/>
<path d="M3613 1309 c-29 -8 -33 -14 -33 -44 0 -29 -4 -34 -27 -37 -23 -2 -29
-8 -31 -35 -3 -31 -1 -33 27 -33 l31 0 0 -112 c0 -184 24 -228 125 -228 28 0
54 2 57 5 2 3 3 18 0 35 -4 25 -9 30 -33 30 -48 0 -59 29 -59 157 l0 113 51 0
50 0 -3 33 c-3 31 -5 32 -50 35 l-48 3 0 45 c0 47 -2 49 -57 33z"/>
<path d="M2110 946 l0 -286 45 0 45 0 0 100 0 101 30 -23 c23 -16 44 -22 83
-22 63 0 107 23 144 77 22 32 27 52 31 120 3 71 0 88 -20 127 -30 58 -78 90
-135 90 -53 0 -109 -24 -126 -54 -11 -20 -12 -19 -17 14 -5 32 -8 35 -42 38
l-38 3 0 -285z m252 185 c27 -24 32 -36 36 -87 6 -81 -15 -130 -63 -150 -48
-20 -99 -4 -120 36 -20 38 -19 133 1 175 28 60 94 72 146 26z"/>
<path d="M2570 946 l0 -286 45 0 45 0 0 101 0 100 25 -19 c71 -56 197 -25 241
59 57 111 24 267 -66 314 -59 31 -166 9 -193 -39 -11 -20 -12 -19 -17 14 -5
32 -8 35 -42 38 l-38 3 0 -285z m239 199 c39 -20 54 -62 49 -140 -3 -54 -9
-70 -30 -92 -30 -29 -95 -36 -124 -12 -42 34 -56 130 -30 193 25 61 78 81 135
51z"/>
<path d="M3923 1211 c-62 -29 -97 -87 -101 -171 -5 -87 9 -130 58 -174 51 -46
109 -62 174 -47 68 16 105 46 134 109 21 46 24 64 19 118 -5 73 -30 117 -85
155 -48 32 -141 37 -199 10z m136 -56 c57 -29 77 -135 41 -210 -42 -87 -138
-84 -174 5 -41 102 6 214 92 219 7 1 26 -6 41 -14z"/>
<path d="M4422 1216 c-13 -7 -32 -26 -43 -42 l-19 -29 0 38 c0 37 0 37 -41 37
l-42 0 7 -37 c3 -21 6 -111 6 -200 l0 -163 40 0 40 0 0 98 c1 53 5 117 9 142
11 53 48 90 92 90 27 0 29 2 29 40 0 37 -2 40 -27 40 -16 -1 -38 -6 -51 -14z"/>
<path d="M4655 1214 c-88 -45 -127 -141 -105 -251 22 -106 117 -163 244 -147
73 10 86 18 77 51 -5 17 -14 27 -22 25 -95 -24 -177 -4 -204 49 -30 58 -28 59
121 59 l137 0 -6 60 c-9 108 -68 170 -161 170 -28 0 -64 -7 -81 -16z m117 -55
c16 -9 48 -64 48 -84 0 -3 -43 -5 -96 -5 -94 0 -95 0 -89 23 19 61 85 94 137
66z"/>
</g>
</svg>
