<?xml version="1.0" standalone="no"?>
<!DOCTYPE svg PUBLIC "-//W3C//DTD SVG 20010904//EN"
 "http://www.w3.org/TR/2001/REC-SVG-20010904/DTD/svg10.dtd">
<svg version="1.0" xmlns="http://www.w3.org/2000/svg"
 width="100" height="50" viewBox="0 0 920.000000 300.000000"
 preserveAspectRatio="xMidYMid meet">

<g transform="translate(0.000000,300.000000) scale(0.100000,-0.100000)"
fill="#000000" stroke="none">
<path d="M4410 2340 l-55 -29 58 -1 57 0 0 -579 c0 -570 0 -579 -21 -605 l-20
-26 156 0 c129 0 162 3 188 17 l32 17 -64 7 c-109 11 -101 -36 -101 589 0 345
4 549 10 567 6 15 23 38 38 50 l27 23 -125 -1 c-118 0 -128 -2 -180 -29z"/>
<path d="M807 2320 c-353 -64 -587 -328 -587 -660 0 -295 164 -526 440 -620
51 -18 96 -23 210 -27 160 -6 219 1 443 49 l147 32 0 159 0 159 31 29 31 29
-189 0 -189 0 -64 -35 -65 -35 133 6 133 7 -3 -148 -3 -149 -55 -19 c-67 -24
-246 -28 -330 -8 -179 44 -331 165 -416 333 -70 137 -90 353 -46 493 71 232
282 372 526 352 116 -10 207 -50 306 -135 33 -28 34 -30 20 -58 -8 -16 -16
-33 -18 -38 -3 -4 6 -5 19 -1 24 8 169 131 169 144 0 11 -83 59 -140 81 -107
42 -201 61 -330 65 -69 2 -147 0 -173 -5z"/>
<path d="M7100 1665 l0 -605 60 0 60 0 0 605 0 605 -60 0 -60 0 0 -605z"/>
<path d="M6481 1920 c-52 -11 -116 -47 -155 -89 -17 -17 -33 -31 -37 -31 -4 0
-10 25 -14 55 l-6 55 -50 0 -49 0 0 -620 0 -620 60 0 61 0 -1 243 c0 133 -1
246 0 250 0 4 16 -9 37 -29 20 -20 61 -48 92 -63 77 -36 210 -37 288 -2 144
64 224 237 210 459 -9 148 -43 235 -119 309 -24 23 -65 52 -91 63 -55 24 -161
34 -226 20z m142 -112 c127 -38 196 -236 153 -437 -30 -144 -96 -212 -213
-219 -135 -9 -214 42 -248 159 -26 90 -27 272 -1 354 20 68 71 124 127 142 47
15 134 15 182 1z"/>
<path d="M7681 1920 c-46 -7 -201 -57 -201 -65 0 -1 9 -23 20 -49 21 -45 21
-46 48 -32 54 27 142 46 215 46 60 0 80 -4 107 -23 48 -32 69 -73 76 -154 l7
-70 -114 -7 c-220 -14 -316 -41 -387 -109 -52 -50 -65 -83 -66 -167 0 -58 5
-84 21 -116 50 -94 149 -141 279 -131 90 7 149 32 213 92 l50 47 7 -29 c21
-94 16 -88 68 -91 l47 -3 -3 343 -3 343 -28 52 c-28 55 -78 96 -136 113 -50
14 -161 19 -220 10z m259 -507 c0 -99 -15 -141 -69 -194 -56 -57 -105 -72
-208 -67 -66 3 -76 6 -105 35 -27 27 -32 41 -36 91 -10 142 83 192 371 201
l47 1 0 -67z"/>
<path d="M1920 1901 c-149 -48 -253 -148 -299 -288 -67 -202 46 -436 246 -514
80 -31 219 -37 299 -14 84 24 130 50 191 107 230 219 146 606 -155 707 -78 27
-204 27 -282 2z m198 -57 c92 -46 160 -163 188 -326 25 -144 7 -247 -55 -319
-45 -53 -101 -79 -171 -79 -133 0 -235 107 -287 300 -21 80 -24 239 -4 293 45
130 205 193 329 131z"/>
<path d="M2894 1901 c-209 -60 -349 -277 -310 -482 39 -208 210 -349 423 -349
43 0 98 5 122 11 215 49 365 264 332 477 -26 169 -137 298 -298 347 -64 20
-193 18 -269 -4z m192 -52 c125 -60 211 -257 202 -462 -5 -119 -37 -186 -112
-232 -43 -26 -59 -30 -121 -30 -62 0 -78 4 -121 30 -104 64 -175 220 -182 402
-6 140 12 191 90 261 59 53 170 67 244 31z"/>
<path d="M5075 1897 c-153 -57 -250 -177 -271 -334 -9 -71 12 -187 48 -265 36
-79 116 -161 193 -199 45 -22 63 -24 175 -24 118 0 128 2 182 29 31 16 71 44
89 62 l32 33 -54 -21 c-82 -31 -197 -30 -271 4 -152 70 -240 222 -242 418 0
80 3 102 23 143 63 130 216 162 312 66 42 -42 60 -99 39 -124 -7 -8 -16 -15
-20 -15 -4 0 -83 -34 -176 -76 l-169 -75 69 6 c54 5 111 23 270 87 110 45 204
84 208 87 12 10 -41 105 -80 142 -82 78 -234 101 -357 56z"/>
<path d="M5595 1913 c18 -3 20 -10 17 -58 -3 -35 0 -55 7 -55 7 0 11 22 11 54
0 34 5 56 13 59 6 3 -6 5 -28 5 -22 0 -31 -3 -20 -5z"/>
<path d="M5692 1858 l2 -63 3 53 c2 28 8 52 14 52 5 0 9 5 9 10 0 6 -7 10 -15
10 -12 0 -15 -13 -13 -62z"/>
<path d="M5776 1904 c-9 -24 -7 -27 9 -10 17 17 19 26 6 26 -5 0 -12 -7 -15
-16z"/>
<path d="M8325 1480 l173 -430 -35 -92 c-44 -112 -87 -160 -161 -177 -29 -7
-69 -10 -96 -6 l-46 7 0 -50 c0 -47 1 -50 31 -56 89 -18 193 3 257 51 73 55
91 93 287 613 101 266 196 516 210 553 7 16 2 18 -61 15 l-69 -3 -77 -215
c-43 -118 -98 -276 -124 -350 -25 -74 -48 -142 -51 -150 -3 -8 -20 30 -39 85
-18 55 -80 220 -136 368 l-102 267 -67 0 -66 0 172 -430z"/>
<path d="M3896 1889 c-189 -31 -313 -152 -324 -314 -5 -84 14 -138 71 -202 50
-55 113 -83 200 -90 l73 -6 -4 -56 c-3 -47 0 -62 21 -93 14 -20 23 -39 19 -42
-3 -3 -26 -6 -51 -6 -25 0 -77 -7 -114 -15 -241 -51 -367 -222 -279 -379 50
-90 156 -142 310 -152 274 -18 494 116 509 309 10 120 -19 166 -205 327 -43
38 -52 51 -52 79 0 29 12 46 80 114 106 105 115 122 115 227 0 97 -19 143 -80
203 -20 20 -32 37 -28 40 5 3 30 5 56 5 33 0 61 8 92 27 25 14 45 28 45 30 0
8 -403 3 -454 -6z m57 -63 c128 -55 209 -316 134 -427 -59 -86 -194 -93 -269
-13 -36 39 -77 130 -90 203 -13 69 1 151 31 188 48 58 127 78 194 49z m129
-835 c81 -62 115 -101 128 -152 23 -85 -20 -166 -108 -207 -50 -23 -69 -26
-157 -26 -121 1 -193 25 -254 84 -61 59 -76 132 -42 206 31 68 97 110 205 129
133 24 155 21 228 -34z"/>
<path d="M5793 1845 c0 -27 2 -38 4 -22 2 15 2 37 0 50 -2 12 -4 0 -4 -28z"/>
<path d="M5761 1854 c0 -11 3 -14 6 -6 3 7 2 16 -1 19 -3 4 -6 -2 -5 -13z"/>
<path d="M5730 1838 c0 -22 17 -42 24 -29 4 6 0 18 -8 27 -12 12 -16 12 -16 2z"/>
</g>
</svg>
